<?xml version="1.0" standalone="no"?><!DOCTYPE svg PUBLIC "-//W3C//DTD SVG 1.1//EN" "http://www.w3.org/Graphics/SVG/1.1/DTD/svg11.dtd" ><svg xmlns="http://www.w3.org/2000/svg"><metadata></metadata><defs><font id="fonteditor" horiz-adv-x="1000"><font-face font-family="ùe¹ ry~Æ" font-weight="400" font-stretch="normal" units-per-em="1000" panose-1="2 11 1 0 0 0 0 0 0 0" ascent="1060" descent="-340" x-height="0" bbox="-15 -212 974 837" underline-thickness="0" underline-position="0" unicode-range="U+0026-ff1b" /><missing-glyph horiz-adv-x="1000"  /><glyph glyph-name="ampersand" unicode="&amp;" d="M293 704 Q233 704 197 672 Q159 643 159 588 Q159 549 198 498 Q216 475 265 422 L327 456 Q426 515 426 592 Q426 639 394 669 Q358 704 293 704 ZM243 410 Q188 468 172 493 Q135 545 135 588 Q135 653 183 692 Q227 728 293 728 Q368 728 410 687 Q450 649 450 592 Q450 546 422 506 Q398 473 351 442 Q305 418 282 405 L522 154 Q583 258 592 418 L615 418 Q606 249 539 137 L670 0 L636 0 L525 116 Q434 -14 281 -14 Q180 -14 112 42 Q45 99 45 187 Q45 289 144 356 Q192 383 243 410 ZM281 10 Q425 10 509 133 L260 393 L168 343 Q69 280 69 187 Q69 111 129 60 Q190 10 281 10 Z" /><glyph glyph-name="parenleft" unicode="(" d="M247 827 Q190 737 153 619 Q110 487 110 360 Q110 234 153 101 Q189 -14 247 -107 L219 -107 Q164 -14 127 101 Q86 233 86 360 Q86 489 127 619 Q164 735 219 827 L247 827 Z" /><glyph glyph-name="parenright" unicode=")" d="M114 827 Q171 730 206 619 Q247 484 247 360 Q247 238 206 101 Q171 -8 114 -107 L86 -107 Q145 -8 180 101 Q223 239 223 360 Q223 482 180 619 Q144 732 86 827 L114 827 Z" /><glyph glyph-name="plus" unicode="+" d="M291 511 L315 511 L315 271 L555 271 L555 247 L315 247 L315 6 L291 6 L291 247 L50 247 L50 271 L291 271 L291 511 Z" /><glyph glyph-name="comma" unicode="," d="M123 66 Q162 66 162 11 Q162 -89 87 -131 L74 -111 Q133 -70 136 1 L124 0 Q107 0 99 8 Q90 17 90 32 Q90 50 98 58 Q106 66 123 66 Z" /><glyph glyph-name="hyphen" unicode="-" d="M50 271 L555 271 L555 247 L50 247 L50 271 Z" /><glyph glyph-name="period" unicode="." d="M123 66 Q137 66 146 56 Q156 46 156 33 Q156 20 146 10 Q136 0 123 0 Q110 0 100 10 Q90 19 90 33 Q90 47 100 56 Q109 66 123 66 Z" /><glyph glyph-name="slash" unicode="/" d="M420 820 L446 820 L80 -100 L54 -100 L420 820 Z" /><glyph glyph-name="zero" unicode="0" d="M300 728 Q432 728 490 601 Q533 506 533 357 Q533 208 490 113 Q431 -14 300 -14 Q167 -14 110 113 Q68 206 68 357 Q68 510 110 601 Q167 728 300 728 ZM300 704 Q185 704 132 590 Q92 504 92 357 Q92 210 132 124 Q185 10 300 10 Q414 10 468 124 Q509 214 509 357 Q509 502 468 590 Q414 704 300 704 Z" /><glyph glyph-name="one" unicode="1" d="M331 714 L331 0 L307 0 L307 681 Q234 595 130 565 L130 591 Q180 607 227 638 Q270 668 307 714 L331 714 Z" /><glyph glyph-name="two" unicode="2" d="M308 728 Q400 728 459 675 Q519 623 519 532 Q519 438 448 364 Q420 336 300 251 Q119 126 107 24 L520 24 L520 0 L80 0 Q80 80 151 157 Q194 207 291 275 Q403 356 427 380 Q495 450 495 532 Q495 610 442 657 Q391 704 308 704 Q220 704 170 648 Q113 588 113 479 L89 479 Q89 599 152 665 Q211 728 308 728 Z" /><glyph glyph-name="three" unicode="3" d="M307 728 Q402 728 458 676 Q516 623 516 540 Q516 412 402 373 Q461 354 496 307 Q531 261 531 199 Q531 105 466 45 Q401 -14 301 -14 Q216 -14 156 31 Q76 91 69 210 L92 210 Q98 104 170 50 Q225 9 301 9 Q392 9 450 62 Q507 116 507 199 Q507 271 456 316 Q405 361 323 361 L252 361 L252 385 L314 385 Q399 385 446 426 Q492 467 492 540 Q492 611 443 657 Q392 704 307 704 Q222 704 172 654 Q121 606 110 520 L86 520 Q96 615 155 672 Q211 728 307 728 Z" /><glyph glyph-name="four" unicode="4" d="M411 714 L438 714 L438 200 L570 200 L570 176 L438 176 L438 0 L414 0 L414 176 L31 176 L31 201 L411 714 ZM411 675 L59 200 L414 200 L414 675 L411 675 Z" /><glyph glyph-name="five" unicode="5" d="M125 714 L509 714 L509 690 L148 690 L119 382 L123 382 Q153 423 203 445 Q250 466 301 466 Q404 466 466 405 Q532 341 532 225 Q532 123 466 54 Q400 -14 297 -14 Q209 -14 146 35 Q77 89 69 184 L94 184 Q100 101 162 53 Q218 9 297 9 Q389 9 449 71 Q508 135 508 225 Q508 331 449 388 Q393 443 301 443 Q243 443 192 413 Q140 382 116 332 L91 332 L125 714 Z" /><glyph glyph-name="six" unicode="6" d="M311 728 Q489 728 522 544 L497 544 Q469 704 310 704 Q206 704 148 598 Q92 501 92 341 Q92 318 93 288 L96 288 Q117 363 176 409 Q233 456 311 456 Q411 456 472 392 Q533 328 533 227 Q533 125 472 55 Q409 -14 310 -14 Q180 -14 120 87 Q68 175 68 340 Q68 505 127 610 Q193 728 311 728 ZM311 433 Q230 433 170 372 Q108 313 108 228 Q108 142 159 79 Q217 9 310 9 Q398 9 454 71 Q509 135 509 227 Q509 318 454 376 Q400 433 311 433 Z" /><glyph glyph-name="seven" unicode="7" d="M77 714 L523 714 L523 691 L240 0 L212 0 L496 690 L77 690 L77 714 Z" /><glyph glyph-name="eight" unicode="8" d="M300 728 Q406 728 463 674 Q515 625 515 550 Q515 491 483 447 Q450 402 389 385 L389 381 Q455 369 498 316 Q542 263 542 191 Q542 101 482 45 Q417 -14 300 -14 Q182 -14 118 45 Q58 101 58 191 Q58 265 102 316 Q144 369 212 381 L212 385 Q150 402 117 447 Q85 489 85 550 Q85 626 137 674 Q194 728 300 728 ZM300 704 Q203 704 152 656 Q109 616 109 550 Q109 486 152 444 Q202 396 300 396 Q397 396 448 444 Q491 487 491 550 Q491 615 448 656 Q397 704 300 704 ZM300 371 Q195 371 136 317 Q82 269 82 191 Q82 111 133 63 Q190 9 300 9 Q410 9 467 63 Q518 111 518 191 Q518 269 464 317 Q404 371 300 371 Z" /><glyph glyph-name="nine" unicode="9" d="M291 728 Q419 728 480 628 Q533 540 533 374 Q533 213 474 104 Q407 -14 290 -14 Q111 -14 79 170 L104 170 Q131 10 291 10 Q392 10 453 116 Q509 217 509 373 L508 426 L506 426 Q485 354 426 305 Q365 258 290 258 Q190 258 129 322 Q68 384 68 487 Q68 591 130 659 Q190 728 291 728 ZM291 705 Q200 705 147 643 Q92 582 92 487 Q92 395 146 338 Q200 281 290 281 Q368 281 432 342 Q493 405 493 486 Q493 572 442 635 Q385 705 291 705 Z" /><glyph glyph-name="at" unicode="@" d="M430 728 Q580 728 669 640 Q759 553 759 413 Q759 304 691 221 Q628 147 563 147 Q501 147 501 220 Q437 144 359 144 Q301 144 268 183 Q235 222 235 281 Q235 405 307 487 Q372 564 462 564 Q545 564 566 479 L584 545 L609 545 L533 255 Q526 230 526 204 Q526 172 563 172 Q617 172 672 238 Q734 314 734 413 Q734 539 652 621 Q568 704 430 704 Q285 704 182 604 Q79 504 79 356 Q79 200 175 104 Q272 10 419 10 Q537 10 632 60 Q711 101 760 171 L789 171 Q737 91 646 41 Q542 -14 419 -14 Q262 -14 160 86 Q55 190 55 356 Q55 514 166 620 Q276 728 430 728 ZM462 540 Q385 540 325 471 Q259 396 259 281 Q259 232 286 200 Q313 168 358 168 Q411 168 462 213 Q507 254 519 297 L545 394 Q553 426 553 436 Q553 470 533 501 Q506 540 462 540 Z" /><glyph glyph-name="A" unicode="a" d="M294 714 L326 714 L620 0 L592 0 L496 235 L124 235 L28 0 L0 0 L294 714 ZM134 259 L486 259 L312 688 L309 688 L134 259 Z" /><glyph glyph-name="B" unicode="b" d="M75 714 L381 714 Q471 714 525 670 Q584 622 584 535 Q584 473 545 428 Q506 384 451 372 Q522 361 566 314 Q612 263 612 195 Q612 98 540 45 Q476 0 374 0 L75 0 L75 714 ZM99 690 L99 383 L380 383 Q458 383 507 422 Q560 464 560 535 Q560 611 508 652 Q460 690 379 690 L99 690 ZM99 359 L99 24 L383 24 Q470 24 527 64 Q588 110 588 194 Q588 275 524 319 Q468 359 379 359 L99 359 Z" /><glyph glyph-name="C" unicode="c" d="M381 728 Q487 728 567 669 Q654 606 666 503 L643 503 Q631 593 553 650 Q478 704 381 704 Q236 704 150 600 Q69 501 69 352 Q69 206 150 110 Q233 10 370 10 Q472 10 548 67 Q632 130 653 241 L676 241 Q653 118 564 49 Q482 -14 370 -14 Q221 -14 131 94 Q45 196 45 352 Q45 510 132 615 Q224 728 381 728 Z" /><glyph glyph-name="D" unicode="d" d="M75 714 L324 714 Q486 714 567 612 Q639 522 639 357 Q639 198 553 101 Q463 0 302 0 L75 0 L75 714 ZM99 690 L99 24 L302 24 Q451 24 535 117 Q615 208 615 357 Q615 515 550 598 Q477 690 324 690 L99 690 Z" /><glyph glyph-name="E" unicode="e" d="M75 714 L566 714 L566 690 L99 690 L99 384 L543 384 L543 360 L99 360 L99 24 L583 24 L583 0 L75 0 L75 714 Z" /><glyph glyph-name="F" unicode="f" d="M75 714 L538 714 L538 690 L99 690 L99 381 L517 381 L517 358 L99 358 L99 0 L75 0 L75 714 Z" /><glyph glyph-name="G" unicode="g" d="M372 728 Q500 728 578 657 Q651 590 670 479 L645 479 Q627 580 561 639 Q490 704 372 704 Q230 704 146 598 Q69 503 69 353 Q69 204 150 111 Q237 10 390 10 Q460 10 529 31 Q594 51 639 83 L639 323 L358 323 L358 347 L663 347 L663 71 Q616 33 545 10 Q467 -14 390 -14 Q224 -14 130 95 Q45 195 45 353 Q45 511 128 613 Q218 728 372 728 Z" /><glyph glyph-name="H" unicode="h" d="M75 714 L99 714 L99 384 L596 384 L596 714 L620 714 L620 0 L596 0 L596 360 L99 360 L99 0 L75 0 L75 714 Z" /><glyph glyph-name="I" unicode="i" d="M90 714 L114 714 L114 0 L90 0 L90 714 Z" /><glyph glyph-name="J" unicode="j" d="M385 714 L409 714 L409 224 Q409 116 367 56 Q315 -14 208 -14 Q120 -14 70 34 Q15 86 15 190 L15 219 L39 219 L39 190 Q39 10 208 10 Q303 10 345 66 Q385 118 385 224 L385 714 Z" /><glyph glyph-name="K" unicode="k" d="M570 714 L608 714 L271 410 L652 0 L618 0 L253 394 L99 255 L99 0 L75 0 L75 714 L99 714 L99 286 L570 714 Z" /><glyph glyph-name="L" unicode="l" d="M75 714 L99 714 L99 24 L557 24 L557 0 L75 0 L75 714 Z" /><glyph glyph-name="M" unicode="m" d="M75 714 L119 714 L423 26 L425 26 L728 714 L772 714 L772 0 L748 0 L748 693 L745 693 L439 0 L408 0 L102 693 L99 693 L99 0 L75 0 L75 714 Z" /><glyph glyph-name="N" unicode="n" d="M75 714 L112 714 L597 25 L599 25 L599 714 L623 714 L623 0 L587 0 L101 692 L99 692 L99 0 L75 0 L75 714 Z" /><glyph glyph-name="O" unicode="o" d="M378 728 Q533 728 624 619 Q709 516 709 357 Q709 199 623 95 Q531 -14 377 -14 Q222 -14 131 95 Q45 197 45 357 Q45 518 131 619 Q222 728 378 728 ZM378 704 Q233 704 150 603 Q69 507 69 357 Q69 206 149 111 Q233 10 377 10 Q519 10 605 111 Q685 208 685 357 Q685 508 605 603 Q522 704 378 704 Z" /><glyph glyph-name="P" unicode="p" d="M75 714 L361 714 Q585 714 585 519 Q585 322 361 322 L99 322 L99 0 L75 0 L75 714 ZM99 690 L99 346 L361 346 Q462 346 513 391 Q561 435 561 519 Q561 603 513 645 Q462 690 361 690 L99 690 Z" /><glyph glyph-name="Q" unicode="q" d="M378 728 Q533 728 624 619 Q709 516 709 357 Q709 199 623 95 Q620 91 613 84 L602 72 Q639 24 690 -50 L671 -66 Q623 4 584 56 Q499 -14 377 -14 Q222 -14 131 95 Q45 197 45 357 Q45 518 131 619 Q222 728 378 728 ZM378 704 Q233 704 150 603 Q69 507 69 357 Q69 206 149 111 Q233 10 377 10 Q490 10 569 75 Q499 165 424 248 L442 265 Q518 182 587 92 L605 111 Q685 208 685 357 Q685 508 605 603 Q522 704 378 704 Z" /><glyph glyph-name="R" unicode="r" d="M75 714 L366 714 Q471 714 528 664 Q585 616 585 524 Q585 459 548 408 Q510 361 441 346 L441 344 Q559 319 570 207 L579 105 Q585 37 608 0 L581 0 Q561 38 556 99 L547 205 Q541 275 489 307 Q444 334 368 334 L99 334 L99 0 L75 0 L75 714 ZM99 690 L99 358 L367 358 Q461 358 513 406 Q561 451 561 524 Q561 604 516 646 Q468 690 366 690 L99 690 Z" /><glyph glyph-name="S" unicode="s" d="M296 728 Q408 728 474 668 Q541 607 550 503 L526 503 Q517 598 458 651 Q399 704 296 704 Q195 704 138 666 Q74 626 74 548 Q74 478 153 438 Q189 420 300 390 Q431 357 482 324 Q567 272 567 176 Q567 88 490 35 Q417 -14 305 -14 Q188 -14 119 46 Q44 112 35 236 L58 236 Q67 124 136 64 Q199 10 304 10 Q409 10 476 55 Q543 101 543 176 Q543 261 466 306 Q420 334 296 366 Q174 398 132 421 Q50 466 50 548 Q50 640 126 686 Q192 728 296 728 Z" /><glyph glyph-name="T" unicode="t" d="M20 714 L605 714 L605 690 L325 690 L325 0 L301 0 L301 690 L20 690 L20 714 Z" /><glyph glyph-name="U" unicode="u" d="M75 714 L99 714 L99 280 Q99 151 154 84 Q214 10 340 10 Q467 10 527 84 Q582 153 582 280 L582 714 L606 714 L606 280 Q606 141 546 67 Q480 -14 340 -14 Q201 -14 135 66 Q75 141 75 280 L75 714 Z" /><glyph glyph-name="V" unicode="v" d="M5 714 L34 714 L302 20 L304 20 L572 714 L601 714 L321 0 L285 0 L5 714 Z" /><glyph glyph-name="W" unicode="w" d="M5 714 L32 714 L227 23 L230 23 L428 714 L465 714 L663 23 L666 23 L861 714 L888 714 L683 0 L647 0 L448 689 L445 689 L246 0 L210 0 L5 714 Z" /><glyph glyph-name="Y" unicode="y" d="M5 714 L36 714 L307 323 L578 714 L609 714 L319 300 L319 0 L295 0 L295 300 L5 714 Z" /><glyph glyph-name="a" unicode="a" d="M274 531 Q378 531 429 471 Q473 419 473 335 L473 0 L449 0 L449 119 Q415 68 360 32 Q288 -14 212 -14 Q138 -14 92 24 Q45 62 45 128 Q45 228 129 271 Q194 305 305 305 L449 306 L449 329 Q449 507 274 507 Q195 507 147 471 Q94 435 85 364 L61 364 Q73 446 131 489 Q185 531 274 531 ZM449 282 L305 281 Q69 280 69 127 Q69 72 109 41 Q149 10 215 10 Q301 10 377 74 Q449 136 449 196 L449 282 Z" /><glyph glyph-name="b" unicode="b" d="M65 728 L89 728 L89 382 Q141 531 288 531 Q395 531 458 446 Q514 370 514 258 Q514 145 459 69 Q397 -14 288 -14 Q142 -14 89 134 L89 0 L65 0 L65 728 ZM288 507 Q192 507 138 434 Q89 369 89 263 L89 249 Q89 146 139 81 Q192 10 288 10 Q384 10 440 83 Q490 153 490 258 Q490 365 439 432 Q384 507 288 507 Z" /><glyph glyph-name="c" unicode="c" d="M274 531 Q361 531 418 486 Q475 441 485 352 L461 352 Q451 428 402 468 Q351 507 274 507 Q179 507 123 433 Q69 364 69 252 Q69 144 120 78 Q174 10 273 10 Q435 10 464 180 L488 180 Q473 86 418 36 Q362 -14 273 -14 Q161 -14 101 64 Q45 135 45 252 Q45 371 104 448 Q166 531 274 531 Z" /><glyph glyph-name="d" unicode="d" d="M470 728 L494 728 L494 0 L470 0 L470 133 Q416 -14 271 -14 Q160 -14 100 69 Q45 143 45 258 Q45 372 101 446 Q162 531 271 531 Q418 531 470 383 L470 728 ZM271 507 Q174 507 120 432 Q69 365 69 258 Q69 151 119 83 Q174 10 271 10 Q366 10 420 81 Q470 148 470 249 L470 263 Q470 367 421 434 Q366 507 271 507 Z" /><glyph glyph-name="e" unicode="e" d="M267 531 Q386 531 444 450 Q494 380 500 250 L59 250 Q62 141 118 76 Q175 10 267 10 Q349 10 401 56 Q444 96 462 166 L488 166 Q470 90 421 42 Q360 -14 267 -14 Q162 -14 98 62 Q35 139 35 259 Q35 372 96 448 Q160 531 267 531 ZM267 507 Q177 507 120 440 Q64 375 59 274 L475 274 Q459 507 267 507 Z" /><glyph glyph-name="f" unicode="f" d="M360 714 L360 690 L278 690 Q225 690 205 664 Q183 641 183 582 L183 517 L353 517 L353 493 L183 493 L183 0 L159 0 L159 493 L5 493 L5 517 L159 517 L159 582 Q159 646 187 678 Q217 714 279 714 L360 714 Z" /><glyph glyph-name="g" unicode="g" d="M276 531 Q425 531 483 386 L483 517 L507 517 L507 41 Q507 -212 283 -212 Q187 -212 132 -166 Q81 -124 69 -44 L93 -44 Q105 -111 148 -147 Q197 -188 283 -188 Q483 -188 483 41 L483 155 Q426 12 276 12 Q165 12 102 93 Q45 167 45 271 Q45 377 102 449 Q165 531 276 531 ZM276 507 Q178 507 121 434 Q69 370 69 271 Q69 173 121 108 Q178 36 276 36 Q374 36 431 108 Q483 175 483 271 Q483 368 431 434 Q374 507 276 507 Z" /><glyph glyph-name="h" unicode="h" d="M65 728 L90 728 L90 406 Q118 466 164 498 Q212 531 269 531 Q355 531 405 481 Q458 428 458 336 L458 0 L434 0 L434 336 Q434 418 388 464 Q344 507 269 507 Q197 507 144 448 Q90 390 90 305 L90 0 L65 0 L65 728 Z" /><glyph glyph-name="i" unicode="i" d="M113 686 Q127 686 136 676 Q146 666 146 653 Q146 640 136 630 Q126 620 113 620 Q100 620 90 630 Q80 639 80 653 Q80 667 90 676 Q99 686 113 686 ZM101 517 L125 517 L125 0 L101 0 L101 517 Z" /><glyph glyph-name="j" unicode="j" d="M138 686 Q152 686 162 676 Q171 667 171 653 Q171 639 162 630 Q150 620 138 620 Q124 620 114 630 Q105 639 105 653 Q105 667 114 676 Q123 686 138 686 ZM126 517 L150 517 L150 -81 Q150 -198 32 -198 L-15 -198 L-15 -174 L32 -174 Q126 -174 126 -81 L126 517 Z" /><glyph glyph-name="k" unicode="k" d="M65 728 L89 728 L89 219 L426 517 L465 517 L239 318 L489 0 L456 0 L220 301 L89 185 L89 0 L65 0 L65 728 Z" /><glyph glyph-name="l" unicode="l" d="M90 728 L114 728 L114 0 L90 0 L90 728 Z" /><glyph glyph-name="m" unicode="m" d="M245 531 Q374 531 407 410 Q428 466 472 498 Q514 531 571 531 Q653 531 698 482 Q743 433 743 338 L743 0 L719 0 L719 338 Q719 418 685 461 Q648 507 571 507 Q504 507 461 458 Q417 411 417 338 L417 0 L392 0 L392 338 Q392 507 245 507 Q179 507 135 454 Q89 402 89 324 L89 0 L65 0 L65 517 L89 517 L89 422 Q138 531 245 531 Z" /><glyph glyph-name="n" unicode="n" d="M267 531 Q458 531 458 317 L458 0 L433 0 L433 317 Q433 507 267 507 Q192 507 142 453 Q92 400 89 313 L89 0 L65 0 L65 517 L89 517 L89 416 Q113 469 160 500 Q207 531 267 531 Z" /><glyph glyph-name="o" unicode="o" d="M282 531 Q395 531 460 445 Q519 369 519 258 Q519 150 460 71 Q393 -14 282 -14 Q171 -14 104 71 Q45 148 45 258 Q45 371 104 445 Q169 531 282 531 ZM282 507 Q181 507 123 431 Q69 362 69 258 Q69 155 123 86 Q182 10 282 10 Q380 10 441 86 Q495 155 495 258 Q495 362 441 431 Q381 507 282 507 Z" /><glyph glyph-name="p" unicode="p" d="M288 531 Q395 531 458 446 Q514 370 514 258 Q514 145 459 69 Q397 -14 288 -14 Q142 -14 89 132 L89 -198 L65 -198 L65 517 L89 517 L89 383 Q149 531 288 531 ZM288 507 Q192 507 139 433 Q89 367 89 261 L89 248 Q89 145 138 80 Q193 10 288 10 Q384 10 439 83 Q489 153 489 258 Q489 364 439 432 Q384 507 288 507 Z" /><glyph glyph-name="r" unicode="r" d="M264 531 Q317 531 346 521 L346 495 Q304 507 263 507 Q178 507 130 426 Q90 359 90 273 L90 0 L65 0 L65 517 L90 517 L90 402 Q109 455 152 490 Q199 531 264 531 Z" /><glyph glyph-name="s" unicode="s" d="M228 531 Q399 531 423 375 L399 375 Q389 437 351 470 Q307 507 228 507 Q162 507 119 476 Q75 447 75 402 Q75 354 125 325 Q159 305 238 285 Q337 259 374 238 Q437 202 437 138 Q437 -14 242 -14 Q53 -14 35 159 L60 159 Q69 78 116 43 Q158 10 242 10 Q412 10 412 138 Q412 191 357 220 Q326 236 233 261 Q145 284 108 307 Q51 342 51 402 Q51 460 105 496 Q155 531 228 531 Z" /><glyph glyph-name="t" unicode="t" d="M165 684 L165 517 L313 517 L313 493 L165 493 L165 105 Q165 60 180 42 Q194 24 237 24 L301 24 L301 0 L237 0 Q181 0 159 28 Q141 52 141 105 L141 493 L20 493 L20 517 L141 517 L141 673 L165 684 Z" /><glyph glyph-name="u" unicode="u" d="M65 517 L89 517 L89 200 Q89 108 128 60 Q170 10 256 10 Q332 10 383 64 Q434 118 434 204 L434 517 L458 517 L458 0 L434 0 L434 101 Q377 -14 256 -14 Q65 -14 65 200 L65 517 Z" /><glyph glyph-name="v" unicode="v" d="M5 517 L33 517 L221 32 L409 517 L437 517 L235 0 L207 0 L5 517 Z" /><glyph glyph-name="w" unicode="w" d="M5 517 L32 517 L197 38 L346 517 L373 517 L522 38 L687 517 L714 517 L534 0 L509 0 L360 479 L210 0 L185 0 L5 517 Z" /><glyph glyph-name="y" unicode="y" d="M5 517 L32 517 L223 44 L413 517 L441 517 L153 -198 L125 -198 L210 13 L5 517 Z" /><glyph glyph-name="uniB7" unicode="·" d="M250 427 Q277 427 296 408 Q316 388 316 361 Q316 336 296 314 Q275 295 250 295 Q223 295 204 314 Q184 334 184 361 Q184 389 204 408 Q222 427 250 427 Z" /><glyph glyph-name="quotedblleft" unicode="&#x201c;" d="M332 817 Q271 775 270 705 Q272 706 282 706 Q299 706 307 698 Q316 691 316 674 Q316 658 308 648 Q298 640 283 640 Q244 640 244 695 Q244 797 319 837 L332 817 ZM208 817 Q147 775 146 705 Q148 706 158 706 Q175 706 183 698 Q192 691 192 674 Q192 658 184 648 Q174 640 159 640 Q120 640 120 695 Q120 797 195 837 L208 817 Z" /><glyph glyph-name="quotedblright" unicode="&#x201d;" d="M253 837 Q292 837 292 782 Q292 682 217 640 L204 660 Q263 701 266 772 L254 771 Q237 771 229 779 Q220 788 220 803 Q220 821 228 828 Q236 837 253 837 ZM129 837 Q168 837 168 782 Q168 682 93 640 L80 660 Q139 701 142 772 L130 771 Q113 771 105 779 Q96 788 96 803 Q96 821 104 828 Q112 837 129 837 Z" /><glyph glyph-name="uni3001" unicode="&#x3001;" d="M171 121 Q216 90 275 28 Q321 -20 354 -66 L335 -83 Q305 -41 256 11 Q194 76 153 103 L171 121 Z" /><glyph glyph-name="uni3002" unicode="&#x3002;" d="M250 126 Q298 126 330 94 Q364 62 364 15 Q364 -30 330 -64 Q296 -95 250 -95 Q204 -95 170 -64 Q136 -31 136 15 Q136 64 170 94 Q202 126 250 126 ZM250 102 Q211 102 186 77 Q160 54 160 15 Q160 -23 186 -46 Q213 -71 250 -71 Q286 -71 314 -46 Q340 -20 340 15 Q340 52 314 76 Q288 102 250 102 Z" /><glyph glyph-name="uniFF0C" unicode="&#xff0c;" d="M173 66 Q212 66 212 11 Q212 -89 137 -131 L124 -111 Q183 -70 186 1 L174 0 Q157 0 149 8 Q140 17 140 32 Q140 50 148 58 Q156 66 173 66 Z" /><glyph glyph-name="uniFF1B" unicode="&#xff1b;" d="M250 580 Q264 580 274 570 Q283 561 283 547 Q283 533 274 524 Q262 514 250 514 Q236 514 226 524 Q217 533 217 547 Q217 561 226 570 Q235 580 250 580 ZM250 214 Q289 214 289 159 Q289 59 214 17 L201 37 Q260 78 263 149 L251 148 Q234 148 226 156 Q217 165 217 180 Q217 198 225 206 Q233 214 250 214 Z" /><glyph glyph-name="uni2F00" unicode="&#x2f00;&#x4e00;" d="M57 378 L942 378 L942 356 L57 356 L57 378 Z" /><glyph glyph-name="uni4E07" unicode="&#x4e07;" d="M69 725 L931 725 L931 704 L404 704 L404 666 Q404 554 391 443 L817 443 Q814 69 777 -5 Q737 -78 645 -78 L543 -78 L537 -56 L639 -58 Q740 -55 765 21 Q790 96 796 421 L388 421 Q369 278 325 176 Q249 5 71 -94 L59 -75 Q231 18 312 199 Q383 379 383 666 L383 704 L69 704 L69 725 Z" /><glyph glyph-name="uni4E0A" unicode="&#x4e0a;" d="M442 811 L464 811 L464 483 L835 483 L835 462 L464 462 L464 -23 L939 -23 L939 -44 L63 -44 L63 -23 L442 -23 L442 811 Z" /><glyph glyph-name="uni4E0B" unicode="&#x4e0b;" d="M62 742 L937 742 L937 720 L484 720 L484 526 Q671 423 876 282 L864 264 Q647 417 484 505 L484 -98 L463 -98 L463 720 L62 720 L62 742 Z" /><glyph glyph-name="uni4E0D" unicode="&#x4e0d;" d="M87 744 L913 744 L913 722 L581 722 Q551 651 511 585 L511 -96 L489 -96 L489 550 Q343 334 77 176 L63 194 Q428 412 558 722 L87 722 L87 744 ZM636 484 Q819 338 939 192 L924 177 Q810 315 621 469 L636 484 Z" /><glyph glyph-name="uni4E0E" unicode="&#x4e0e;" d="M291 641 L269 433 L832 433 Q832 42 792 -23 Q750 -82 621 -82 L478 -81 L472 -61 Q574 -64 615 -64 Q755 -64 782 5 Q811 77 811 412 L244 412 L287 815 L309 813 L293 663 L876 663 L876 641 L291 641 ZM65 200 L674 200 L674 178 L65 178 L65 200 Z" /><glyph glyph-name="uni4E13" unicode="&#x4e13;" d="M58 485 L353 485 Q382 587 399 658 L126 658 L126 679 L404 679 Q414 723 432 813 L453 811 Q438 742 426 679 L883 679 L883 658 L421 658 Q398 562 376 485 L942 485 L942 463 L369 463 Q341 371 307 286 L814 286 L814 266 Q737 132 560 4 Q663 -37 768 -91 L756 -110 Q523 11 277 83 L289 100 Q420 61 538 13 Q702 127 792 264 L278 264 Q315 361 347 463 L58 463 L58 485 Z" /><glyph glyph-name="uni4E1A" unicode="&#x4e1a;" d="M381 795 L402 795 L402 -18 L596 -18 L596 795 L617 795 L617 -18 L936 -18 L936 -39 L64 -39 L64 -18 L381 -18 L381 795 ZM897 618 Q833 345 736 149 L716 157 Q807 337 877 623 L897 618 ZM117 625 Q199 419 265 147 L244 141 Q188 384 98 619 L117 625 Z" /><glyph glyph-name="uni4E1C" unicode="&#x4e1c;" d="M90 672 L341 672 Q369 732 407 823 L429 819 Q395 734 365 672 L901 672 L901 650 L354 650 Q268 479 159 355 L510 355 L510 526 L531 526 L531 355 L861 355 L861 336 L531 336 L531 -18 Q531 -91 461 -91 L357 -91 L354 -70 Q422 -72 453 -72 Q510 -72 510 -13 L510 336 L137 336 L131 351 Q237 468 330 650 L90 650 L90 672 ZM325 211 Q220 67 67 -38 L55 -22 Q204 84 309 225 L325 211 ZM697 222 Q843 94 938 -32 L922 -46 Q832 74 683 209 L697 222 Z" /><glyph glyph-name="uni4E24" unicode="&#x4e24;" d="M65 750 L935 750 L935 728 L648 728 L648 526 L875 526 L875 -14 Q875 -84 805 -84 L705 -84 L698 -62 L797 -63 Q853 -63 853 -10 L853 505 L647 505 Q644 443 638 393 Q723 262 798 115 L786 97 Q700 264 634 365 Q601 160 493 47 L478 60 Q617 205 626 505 L369 505 Q364 436 356 384 Q422 294 491 174 L479 158 Q405 286 352 357 Q318 174 221 68 L205 82 Q335 221 348 505 L147 505 L147 -89 L125 -89 L125 526 L349 526 L350 547 L350 728 L65 728 L65 750 ZM370 526 L627 526 L627 728 L371 728 L371 547 L370 526 Z" /><glyph glyph-name="uni4E2A" unicode="&#x4e2a;" d="M489 520 L511 520 L511 -92 L489 -92 L489 520 ZM511 808 Q640 591 955 424 L943 406 Q645 561 500 787 Q321 533 57 396 L45 415 Q333 567 489 808 L511 808 Z" /><glyph glyph-name="uni4E2D" unicode="&#x4e2d;" d="M489 814 L511 814 L511 620 L877 620 L877 178 L855 178 L855 253 L511 253 L511 -100 L489 -100 L489 253 L146 253 L146 178 L124 178 L124 620 L489 620 L489 814 ZM146 274 L489 274 L489 598 L146 598 L146 274 ZM511 274 L855 274 L855 598 L511 598 L511 274 Z" /><glyph glyph-name="uni4E3A" unicode="&#x4e3a;" d="M163 781 Q251 689 300 615 L282 603 Q224 687 145 769 L163 781 ZM498 357 Q620 224 679 134 L661 122 Q596 222 480 346 L498 357 ZM436 810 L457 810 L457 739 Q457 643 449 549 L868 549 Q868 142 831 28 Q794 -83 696 -83 L585 -82 L579 -60 Q663 -62 694 -62 Q812 -55 830 128 Q847 317 847 527 L447 527 Q426 339 365 206 Q277 21 71 -89 L59 -70 Q259 32 353 228 Q405 354 425 527 L94 527 L94 549 L427 549 Q436 639 436 739 L436 810 Z" /><glyph glyph-name="uni4E3B" unicode="&#x4e3b;" d="M490 600 L99 600 L99 622 L902 622 L902 600 L512 600 L512 304 L854 304 L854 284 L512 284 L512 -36 L937 -36 L937 -58 L64 -58 L64 -36 L490 -36 L490 284 L146 284 L146 304 L490 304 L490 600 ZM459 809 Q498 730 518 669 L497 661 Q472 736 437 803 L459 809 Z" /><glyph glyph-name="uni4E4B" unicode="&#x4e4b;" d="M425 813 Q480 728 527 620 L846 620 L846 603 Q663 264 305 84 Q319 66 325 56 Q393 -38 519 -50 Q588 -53 716 -53 L936 -52 L932 -75 L720 -75 Q591 -75 534 -72 Q380 -69 293 67 Q270 99 248 99 Q188 99 98 -90 L78 -78 Q171 121 250 121 Q272 121 280 110 Q283 108 290 101 Q641 276 818 598 L133 598 L133 620 L506 620 Q463 723 403 809 L425 813 Z" /><glyph glyph-name="uni4E60" unicode="&#x4e60;" d="M651 297 Q438 165 120 60 L111 81 Q425 178 646 318 L651 297 ZM216 579 Q357 473 445 372 L431 357 Q342 458 201 565 L216 579 ZM533 -87 L528 -67 L686 -67 Q743 -67 772 -20 Q801 30 807 214 L808 710 L136 710 L136 731 L829 731 Q826 239 825 200 Q819 31 793 -27 Q766 -87 690 -87 L533 -87 Z" /><glyph glyph-name="uni4E66" unicode="&#x4e66;" d="M433 814 L454 814 L454 623 L747 623 L747 612 L724 353 L871 353 Q871 92 831 44 Q811 22 774 13 Q742 9 725 9 L657 9 L651 30 L728 30 Q790 30 814 59 Q844 95 850 332 L454 332 L454 -94 L433 -94 L433 332 L56 332 L56 353 L433 353 L433 601 L113 601 L113 623 L433 623 L433 814 ZM454 353 L704 353 L727 601 L454 601 L454 353 ZM715 806 Q831 742 925 647 L913 630 Q812 729 703 790 L715 806 Z" /><glyph glyph-name="uni4E70" unicode="&#x4e70;" d="M141 481 Q255 433 355 362 L344 343 Q240 421 129 463 L141 481 ZM238 627 Q343 577 431 501 L419 482 Q325 564 227 610 L238 627 ZM547 651 L568 651 L568 442 Q568 338 542 254 L938 254 L938 232 L534 232 Q521 196 503 167 Q730 56 912 -74 L898 -89 Q705 44 492 148 Q478 126 457 100 Q350 -19 100 -90 L87 -71 Q334 -5 447 119 Q486 168 511 232 L79 232 L79 254 L519 254 Q547 344 547 442 L547 651 ZM122 737 L860 737 L860 722 Q837 626 799 539 L777 545 Q815 621 838 715 L122 715 L122 737 Z" /><glyph glyph-name="uni4E86" unicode="&#x4e86;" d="M505 474 Q671 575 820 713 L126 713 L126 734 L850 734 L850 713 Q706 581 526 464 L526 -25 Q526 -85 457 -85 L300 -84 L293 -62 Q389 -64 450 -64 Q505 -64 505 -21 L505 474 Z" /><glyph glyph-name="uni4E89" unicode="&#x4e89;" d="M795 158 L495 158 L495 -29 Q495 -85 434 -85 L278 -85 L273 -64 Q381 -66 427 -66 Q474 -66 474 -23 L474 158 L188 158 L188 179 L474 179 L474 340 L66 340 L66 362 L474 362 L474 519 L205 519 L205 541 L491 541 Q589 604 670 687 L294 687 Q215 591 102 516 L87 533 Q264 650 352 810 L374 805 Q346 754 311 709 L700 709 L700 690 Q611 598 527 541 L795 541 L795 362 L937 362 L937 340 L795 340 L795 158 ZM495 519 L495 362 L773 362 L773 519 L495 519 ZM495 340 L495 179 L773 179 L773 340 L495 340 Z" /><glyph glyph-name="uni2F06" unicode="&#x2f06;&#x4e8c;" d="M152 680 L848 680 L848 659 L152 659 L152 680 ZM61 51 L938 51 L938 30 L61 30 L61 51 Z" /><glyph glyph-name="uni4E8E" unicode="&#x4e8e;" d="M128 759 L865 759 L865 738 L520 738 L520 405 L935 405 L935 383 L520 383 L520 -3 Q520 -84 439 -84 L290 -84 L285 -63 Q387 -65 432 -65 Q498 -65 498 2 L498 383 L65 383 L65 405 L498 405 L498 738 L128 738 L128 759 Z" /><glyph glyph-name="uni4E91" unicode="&#x4e91;" d="M156 738 L854 738 L854 716 L156 716 L156 738 ZM60 452 L943 452 L943 430 L450 430 Q289 87 173 -17 Q495 -2 817 34 Q754 151 667 280 L685 291 Q829 72 903 -87 L886 -100 Q859 -42 829 13 Q527 -19 143 -39 L137 -19 Q141 -17 143 -17 Q249 63 429 430 L60 430 L60 452 Z" /><glyph glyph-name="uni4E92" unicode="&#x4e92;" d="M81 752 L917 752 L917 730 L373 730 L323 516 L765 516 L678 -33 L947 -33 L947 -54 L67 -54 L67 -33 L656 -33 L693 200 L227 200 L350 730 L81 730 L81 752 ZM696 221 L741 495 L318 495 L253 221 L696 221 Z" /><glyph glyph-name="uni4E9F" unicode="&#x4e9f;" d="M116 528 L348 528 L348 207 L116 207 L116 528 ZM326 228 L326 506 L137 506 L137 228 L326 228 ZM66 -36 L936 -36 L936 -58 L66 -58 L66 -36 ZM613 436 Q694 372 760 307 Q826 400 862 518 L599 518 L599 540 L886 540 L886 522 Q846 391 776 291 Q855 213 918 137 L902 122 Q835 204 763 273 Q695 184 597 120 L584 136 Q679 198 747 289 Q675 358 598 422 L613 436 ZM186 757 L754 757 L754 735 Q649 656 507 576 L507 116 Q507 63 454 63 L339 63 L333 86 L445 85 Q485 85 485 124 L485 589 Q657 683 720 735 L186 735 L186 757 Z" /><glyph glyph-name="uni4EA4" unicode="&#x4ea4;" d="M65 674 L511 674 Q481 749 443 812 L465 816 Q500 756 532 674 L936 674 L936 653 L65 653 L65 674 ZM643 585 Q808 449 921 309 L905 295 Q800 426 627 570 L643 585 ZM712 394 Q636 244 519 138 Q688 2 942 -67 L930 -86 Q670 -14 503 124 Q329 -25 76 -91 L64 -73 Q320 -6 488 136 Q362 241 287 382 L306 393 Q381 254 504 150 Q622 259 692 402 L712 394 ZM368 569 Q251 419 87 310 L73 328 Q237 437 352 585 L368 569 Z" /><glyph glyph-name="uni4EA7" unicode="&#x4ea7;" d="M480 825 Q512 768 537 693 L898 693 L898 671 L712 671 Q692 563 648 472 L919 472 L919 451 L183 451 L183 276 Q177 44 70 -94 L54 -79 Q157 51 161 276 L161 472 L371 472 L316 671 L122 671 L122 693 L516 693 Q488 767 459 821 L480 825 ZM393 472 L627 472 Q674 565 690 671 L338 671 L393 472 Z" /><glyph glyph-name="uni4EAB" unicode="&#x4eab;" d="M222 590 L779 590 L779 421 L222 421 L222 590 ZM758 442 L758 568 L243 568 L243 442 L758 442 ZM461 812 Q488 772 517 707 L928 707 L928 685 L73 685 L73 707 L496 707 Q470 765 439 808 L461 812 ZM51 125 L506 125 L506 187 Q657 242 780 302 L147 302 L147 324 L828 324 L828 306 Q686 232 527 175 L527 125 L949 125 L949 103 L527 103 L527 -30 Q527 -93 467 -93 L322 -93 L316 -71 L458 -73 Q506 -73 506 -24 L506 103 L51 103 L51 125 Z" /><glyph glyph-name="uni4EAC" unicode="&#x4eac;" d="M207 521 L794 521 L794 289 L515 289 L515 -14 Q515 -85 447 -85 L340 -85 L336 -64 Q408 -66 439 -66 Q493 -66 493 -8 L493 289 L207 289 L207 521 ZM772 310 L772 500 L229 500 L229 310 L772 310 ZM457 818 Q490 755 515 686 L937 686 L937 665 L63 665 L63 686 L493 686 Q465 760 436 814 L457 818 ZM692 189 Q839 70 938 -53 L922 -69 Q829 48 679 174 L692 189 ZM325 172 Q224 34 74 -70 L61 -53 Q206 48 310 188 L325 172 Z" /><glyph glyph-name="uni2F08" unicode="&#x2f08;&#x4eba;" d="M515 808 Q515 695 508 586 Q592 159 953 -64 L940 -81 Q584 147 501 536 Q436 161 58 -81 L45 -63 Q474 210 491 644 L493 808 L515 808 Z" /><glyph glyph-name="uni4EBF" unicode="&#x4ebf;" d="M192 545 Q126 440 42 353 L36 375 Q220 576 299 822 L318 813 Q275 689 214 583 L214 -96 L192 -96 L192 545 ZM391 699 L874 699 L874 679 Q641 436 574 359 Q475 248 430 149 Q401 88 401 42 Q401 8 426 -14 Q456 -35 534 -35 L812 -35 Q868 -34 894 3 Q917 47 917 189 L939 183 Q939 36 911 -11 Q883 -57 817 -57 L530 -57 Q446 -57 412 -32 Q379 -2 379 42 Q379 92 406 147 Q451 251 553 364 Q654 481 844 677 L391 677 L391 699 Z" /><glyph glyph-name="uni4ECE" unicode="&#x4ece;" d="M300 804 Q300 569 275 388 Q403 251 485 119 L470 103 Q393 231 271 364 L266 335 Q215 77 52 -82 L38 -65 Q186 79 239 314 Q278 512 278 804 L300 804 ZM689 805 Q689 649 677 520 Q760 148 954 -61 L940 -78 Q753 130 671 461 Q663 384 652 331 Q600 70 430 -89 L416 -72 Q571 73 627 311 Q667 516 667 805 L689 805 Z" /><glyph glyph-name="uni4ED8" unicode="&#x4ed8;" d="M305 810 Q270 700 228 615 L228 -96 L206 -96 L206 571 Q139 445 48 341 L42 364 Q213 569 285 819 L305 810 ZM346 576 L768 576 L768 811 L789 811 L789 576 L945 576 L945 554 L789 554 L789 1 Q789 -84 719 -84 L581 -84 L577 -63 Q669 -65 711 -65 Q768 -65 768 7 L768 554 L346 554 L346 576 ZM413 412 Q536 270 603 160 L585 147 Q515 264 396 401 L413 412 Z" /><glyph glyph-name="uni4EE3" unicode="&#x4ee3;" d="M909 549 L912 527 L564 488 Q574 360 596 270 Q635 117 711 23 Q779 -62 838 -62 Q891 -62 916 151 L935 140 Q919 17 890 -43 Q865 -83 839 -83 Q769 -83 694 10 Q612 114 573 277 Q553 355 542 486 L306 460 L303 481 L540 508 Q529 645 529 812 L551 812 Q551 645 562 510 L909 549 ZM194 540 Q128 435 44 348 L38 370 Q223 571 299 811 L318 802 Q276 681 216 577 L216 -96 L194 -96 L194 540 ZM668 799 Q768 716 828 639 L812 624 Q753 699 652 785 L668 799 Z" /><glyph glyph-name="uni4EE5" unicode="&#x4ee5;" d="M347 692 Q498 535 574 421 L557 408 Q475 531 329 681 L347 692 ZM718 258 Q622 47 388 -89 L373 -71 Q627 74 717 308 Q782 509 782 799 L804 799 Q804 523 746 329 L727 280 Q861 103 948 -63 L934 -78 Q850 84 718 258 ZM138 52 Q157 62 157 75 L157 749 L179 749 L179 66 Q316 118 446 196 L452 174 Q309 92 144 32 L138 52 Z" /><glyph glyph-name="uni4EEC" unicode="&#x4eec;" d="M720 -87 L715 -66 L820 -67 Q878 -67 878 1 L878 707 L610 707 L610 728 L899 728 L899 -4 Q899 -87 825 -87 L720 -87 ZM435 809 Q516 714 557 644 L539 631 Q492 711 418 798 L435 809 ZM315 803 Q274 682 212 573 L212 -96 L190 -96 L190 536 Q126 435 48 353 L42 375 Q221 572 296 811 L315 803 ZM382 640 L403 640 L403 -92 L382 -92 L382 640 Z" /><glyph glyph-name="uni4EF6" unicode="&#x4ef6;" d="M308 804 Q266 678 206 574 L206 -96 L185 -96 L185 537 Q123 436 43 352 L37 374 Q212 570 288 812 L308 804 ZM476 757 Q461 662 434 585 L640 585 L640 810 L661 810 L661 585 L911 585 L911 563 L661 563 L661 268 L947 268 L947 247 L661 247 L661 -89 L640 -89 L640 247 L322 247 L322 268 L640 268 L640 563 L426 563 Q387 460 330 377 L317 394 Q418 545 454 759 L476 757 Z" /><glyph glyph-name="uni4EF7" unicode="&#x4ef7;" d="M193 551 Q134 451 54 363 L48 384 Q211 572 281 803 L301 795 Q266 688 215 591 L215 -96 L193 -96 L193 551 ZM741 466 L763 466 L763 -84 L741 -84 L741 466 ZM472 463 L493 463 L493 307 Q490 35 343 -91 L327 -77 Q469 43 472 307 L472 463 ZM619 807 Q718 592 957 430 L945 412 Q721 563 610 784 Q480 533 286 399 L274 417 Q485 566 602 807 L619 807 Z" /><glyph glyph-name="uni4EFB" unicode="&#x4efb;" d="M894 749 Q789 711 638 693 L638 364 L947 364 L947 342 L638 342 L638 -13 L897 -13 L897 -35 L358 -35 L358 -13 L616 -13 L616 342 L309 342 L309 364 L616 364 L616 691 Q504 679 372 679 L365 700 Q685 701 883 768 L894 749 ZM315 796 Q275 683 212 575 L212 -96 L190 -96 L190 539 Q126 442 51 367 L45 388 Q221 576 296 803 L315 796 Z" /><glyph glyph-name="uni4EFF" unicode="&#x4eff;" d="M312 800 Q278 697 224 595 L224 -96 L202 -96 L202 555 Q138 448 53 357 L47 379 Q220 575 292 809 L312 800 ZM509 616 L341 616 L341 637 L642 637 Q613 729 574 805 L596 810 Q628 743 664 637 L937 637 L937 616 L530 616 L530 475 Q530 434 527 398 L855 398 Q855 142 843 46 Q825 -76 721 -82 Q689 -82 579 -80 L573 -60 Q660 -63 719 -63 Q808 -59 823 58 Q833 163 833 377 L525 377 Q500 62 332 -92 L316 -78 Q506 94 509 475 L509 616 Z" /><glyph glyph-name="uni4F01" unicode="&#x4f01;" d="M508 804 Q700 586 954 458 L943 439 Q686 571 500 785 Q332 586 53 438 L43 457 Q310 595 492 804 L508 804 ZM518 550 L539 550 L539 301 L832 301 L832 280 L539 280 L539 -24 L903 -24 L903 -45 L85 -45 L85 -24 L251 -24 L251 406 L272 406 L272 -24 L518 -24 L518 550 Z" /><glyph glyph-name="uni4F17" unicode="&#x4f17;" d="M508 810 Q693 562 936 418 L925 398 Q678 547 500 790 Q337 560 69 391 L58 411 Q317 569 491 810 L508 810 ZM327 458 Q327 363 314 277 Q418 173 485 74 L471 59 Q407 154 310 252 Q303 213 292 177 Q241 23 75 -72 L62 -54 Q213 31 267 170 Q306 286 306 458 L327 458 ZM679 466 Q679 375 670 298 Q752 71 948 -60 L934 -77 Q745 53 664 258 Q658 222 647 178 Q601 19 451 -78 L438 -60 Q573 27 622 170 Q657 292 657 466 L679 466 Z" /><glyph glyph-name="uni4F18" unicode="&#x4f18;" d="M197 543 Q131 433 46 344 L40 366 Q218 565 294 807 L313 798 Q273 681 220 584 L220 -94 L197 -94 L197 543 ZM324 549 L536 549 Q539 591 539 633 L539 807 L561 807 L561 633 L558 549 L921 549 L921 527 L701 527 L701 -27 Q701 -57 734 -57 L846 -57 Q874 -57 888 -40 Q911 -8 916 146 L937 140 Q931 -8 906 -52 Q888 -78 851 -78 L728 -78 Q680 -78 680 -32 L680 527 L557 527 Q529 114 309 -89 L293 -76 Q508 121 535 527 L324 527 L324 549 ZM700 783 Q801 711 866 640 L850 625 Q784 695 687 768 L700 783 Z" /><glyph glyph-name="uni4F19" unicode="&#x4f19;" d="M198 533 Q139 440 69 367 L62 388 Q231 577 303 804 L322 796 Q280 674 220 570 L220 -92 L198 -92 L198 533 ZM462 633 Q444 460 373 324 L352 330 Q423 461 440 635 L462 633 ZM640 802 Q640 676 637 556 Q637 520 634 484 Q682 129 943 -68 L928 -84 Q684 106 627 419 Q582 112 338 -90 L323 -74 Q602 153 617 536 L618 802 L640 802 ZM904 645 Q868 474 813 346 L792 353 Q845 472 884 650 L904 645 Z" /><glyph glyph-name="uni4F1A" unicode="&#x4f1a;" d="M508 807 Q701 582 954 450 L943 431 Q684 569 500 788 Q331 582 53 430 L43 449 Q312 592 492 807 L508 807 ZM263 487 L740 487 L740 465 L263 465 L263 487 ZM106 285 L896 285 L896 263 L414 263 Q329 91 202 -47 Q515 -30 774 13 Q714 97 636 187 L653 198 Q788 41 861 -81 L844 -94 Q814 -44 786 -4 Q552 -45 176 -69 L169 -49 Q178 -46 181 -43 Q315 105 392 263 L106 263 L106 285 Z" /><glyph glyph-name="uni4F2A" unicode="&#x4f2a;" d="M198 565 Q133 450 44 353 L37 375 Q209 570 281 809 L301 800 Q266 695 220 606 L220 -96 L198 -96 L198 565 ZM379 779 Q456 689 496 627 L478 615 Q429 692 361 767 L379 779 ZM621 358 Q714 246 766 157 L748 144 Q696 236 603 347 L621 358 ZM589 810 L610 810 L610 700 Q610 626 605 543 L893 543 Q893 147 878 51 Q863 -78 733 -78 L656 -77 L650 -56 Q716 -58 735 -58 Q841 -58 856 49 Q868 139 871 521 L603 521 Q588 331 539 195 Q470 19 311 -83 L298 -65 Q453 32 525 217 Q567 345 582 521 L349 521 L349 543 L584 543 Q589 626 589 700 L589 810 Z" /><glyph glyph-name="uni4F30" unicode="&#x4f30;" d="M306 800 Q266 677 207 572 L207 -96 L186 -96 L186 535 Q123 431 44 345 L38 368 Q213 568 286 809 L306 800 ZM331 594 L623 594 L623 810 L645 810 L645 594 L949 594 L949 573 L645 573 L645 319 L869 319 L869 -92 L848 -92 L848 -40 L427 -40 L427 -92 L405 -92 L405 319 L623 319 L623 573 L331 573 L331 594 ZM427 -19 L848 -19 L848 297 L427 297 L427 -19 Z" /><glyph glyph-name="uni4F34" unicode="&#x4f34;" d="M404 758 Q456 667 497 546 L477 541 Q441 646 385 752 L404 758 ZM881 771 Q842 638 780 538 L760 546 Q817 635 860 776 L881 771 ZM348 466 L620 466 L620 808 L642 808 L642 466 L922 466 L922 445 L642 445 L642 230 L949 230 L949 209 L642 209 L642 -93 L620 -93 L620 209 L318 209 L318 230 L620 230 L620 445 L348 445 L348 466 ZM304 802 Q263 677 205 573 L205 -96 L184 -96 L184 536 Q124 436 51 357 L45 379 Q214 575 284 810 L304 802 Z" /><glyph glyph-name="uni4F46" unicode="&#x4f46;" d="M417 739 L867 739 L867 162 L417 162 L417 739 ZM845 183 L845 439 L439 439 L439 183 L845 183 ZM439 461 L845 461 L845 717 L439 717 L439 461 ZM330 -36 L952 -36 L952 -58 L330 -58 L330 -36 ZM318 804 Q275 684 213 577 L213 -96 L191 -96 L191 541 Q125 439 46 359 L40 381 Q222 577 299 813 L318 804 Z" /><glyph glyph-name="uni4F4D" unicode="&#x4f4d;" d="M313 804 Q273 683 214 579 L214 -96 L192 -96 L192 541 Q130 442 53 360 L47 382 Q222 578 294 812 L313 804 ZM338 632 L633 632 Q606 731 576 806 L598 810 Q625 739 654 632 L926 632 L926 611 L338 611 L338 632 ZM321 -10 L671 -10 Q756 201 817 519 L838 514 Q781 215 694 -10 L952 -10 L952 -32 L321 -32 L321 -10 ZM427 506 Q490 304 538 42 L518 37 Q474 278 407 501 L427 506 Z" /><glyph glyph-name="uni4F4E" unicode="&#x4f4e;" d="M403 404 L403 -28 Q469 -5 529 23 L533 2 Q462 -29 373 -58 L367 -38 Q382 -32 382 -20 L382 673 Q709 725 866 783 L879 764 Q807 739 696 712 Q696 539 706 425 L942 425 L942 404 L708 404 Q713 329 727 258 Q752 122 798 33 Q837 -38 866 -38 Q900 -35 922 154 L941 143 Q915 -63 871 -63 Q831 -63 784 18 Q733 108 706 255 Q692 330 687 404 L403 404 ZM675 707 Q549 680 403 657 L403 425 L685 425 Q675 545 675 707 ZM577 111 Q669 5 717 -72 L699 -84 Q644 4 560 99 L577 111 ZM313 798 Q270 676 213 576 L213 -96 L191 -96 L191 538 Q126 435 45 351 L39 373 Q218 568 293 806 L313 798 Z" /><glyph glyph-name="uni4F53" unicode="&#x4f53;" d="M186 519 Q123 414 52 334 L46 355 Q218 561 290 812 L310 803 Q269 674 207 557 L207 -95 L186 -95 L186 519 ZM308 616 L601 616 L601 811 L622 811 L622 616 L914 616 L914 594 L675 594 Q749 315 952 100 L938 84 Q731 311 656 594 L622 594 L622 151 L805 151 L805 130 L622 130 L622 -93 L601 -93 L601 130 L419 130 L419 151 L601 151 L601 594 L567 594 Q488 277 286 77 L275 94 Q472 287 550 594 L308 594 L308 616 Z" /><glyph glyph-name="uni4F55" unicode="&#x4f55;" d="M335 737 L948 737 L948 715 L858 715 L858 -29 Q858 -90 785 -90 L613 -90 L609 -69 Q725 -71 777 -71 Q837 -71 837 -24 L837 715 L335 715 L335 737 ZM377 520 L679 520 L679 175 L377 175 L377 520 ZM657 197 L657 499 L398 499 L398 197 L657 197 ZM301 802 Q262 682 207 581 L207 -96 L186 -96 L186 544 Q127 445 54 365 L48 386 Q211 576 281 811 L301 802 Z" /><glyph glyph-name="uni4F59" unicode="&#x4f59;" d="M509 802 Q701 608 955 495 L944 476 Q684 594 501 783 Q332 599 54 465 L44 484 Q312 611 493 802 L509 802 ZM246 521 L761 521 L761 500 L520 500 L520 323 L898 323 L898 301 L520 301 L520 -2 Q520 -80 439 -80 L320 -80 L316 -59 Q396 -61 432 -61 Q498 -61 498 3 L498 301 L101 301 L101 323 L498 323 L498 500 L246 500 L246 521 ZM337 200 Q245 43 93 -41 L77 -28 Q232 59 317 208 L337 200 ZM681 215 Q844 71 927 -35 L910 -48 Q821 66 664 205 L681 215 Z" /><glyph glyph-name="uni4F5C" unicode="&#x4f5c;" d="M461 630 Q392 483 293 366 L279 382 Q431 563 508 812 L528 807 Q501 722 470 651 L947 651 L947 630 L576 630 L576 416 L895 416 L895 394 L576 394 L576 177 L909 177 L909 156 L576 156 L576 -92 L555 -92 L555 630 L461 630 ZM190 538 Q131 448 52 368 L46 389 Q223 578 299 808 L318 799 Q274 674 212 574 L212 -92 L190 -92 L190 538 Z" /><glyph glyph-name="uni4F73" unicode="&#x4f73;" d="M387 666 L618 666 L618 811 L640 811 L640 666 L874 666 L874 644 L640 644 L640 446 L931 446 L931 424 L330 424 L330 446 L618 446 L618 644 L387 644 L387 666 ZM371 212 L618 212 L618 381 L640 381 L640 212 L889 212 L889 190 L640 190 L640 -36 L949 -36 L949 -58 L310 -58 L310 -36 L618 -36 L618 190 L371 190 L371 212 ZM190 532 Q129 438 53 360 L47 382 Q224 574 299 808 L318 799 Q273 671 212 569 L212 -91 L190 -91 L190 532 Z" /><glyph glyph-name="uni4F7F" unicode="&#x4f7f;" d="M341 691 L630 691 L630 810 L651 810 L651 691 L941 691 L941 670 L651 670 L651 540 L895 540 L895 288 L648 288 Q636 130 585 47 Q752 -59 974 -71 L967 -91 Q740 -79 573 30 Q500 -65 313 -97 L303 -76 Q485 -49 555 41 Q455 109 376 212 L394 224 Q468 125 567 58 Q616 140 627 288 L388 288 L388 540 L630 540 L630 670 L341 670 L341 691 ZM873 309 L873 519 L651 519 L651 371 Q651 347 649 309 L873 309 ZM628 309 Q630 349 630 371 L630 519 L409 519 L409 309 L628 309 ZM187 542 Q125 432 43 340 L36 363 Q208 566 280 813 L300 804 Q260 681 209 583 L209 -96 L187 -96 L187 542 Z" /><glyph glyph-name="uni4F9B" unicode="&#x4f9b;" d="M349 580 L497 580 L497 804 L519 804 L519 580 L750 580 L750 804 L772 804 L772 580 L923 580 L923 558 L772 558 L772 276 L951 276 L951 255 L321 255 L321 276 L497 276 L497 558 L349 558 L349 580 ZM519 276 L750 276 L750 558 L519 558 L519 276 ZM732 179 Q862 37 933 -74 L915 -86 Q844 28 715 169 L732 179 ZM543 166 Q462 21 353 -84 L335 -72 Q446 33 523 175 L543 166 ZM190 543 Q126 441 43 353 L36 375 Q218 575 295 817 L314 808 Q273 687 212 581 L212 -94 L190 -94 L190 543 Z" /><glyph glyph-name="uni4F9D" unicode="&#x4f9d;" d="M309 803 Q270 688 216 587 L216 -96 L194 -96 L194 547 Q129 438 42 343 L35 368 Q213 567 289 812 L309 803 ZM589 810 Q616 741 644 644 L922 644 L922 623 L659 623 Q679 452 732 305 Q837 374 906 452 L920 435 Q853 359 740 285 Q817 75 957 -59 L944 -78 Q692 169 638 623 L612 623 Q561 476 476 361 L476 -48 Q601 -9 708 42 L713 21 Q605 -32 443 -79 L439 -59 Q454 -53 454 -41 L454 333 Q378 240 277 165 L267 183 Q500 352 592 623 L323 623 L323 644 L623 644 Q600 733 567 806 L589 810 Z" /><glyph glyph-name="uni4FB5" unicode="&#x4fb5;" d="M170 526 Q118 436 50 356 L44 378 Q202 575 269 811 L288 802 Q250 677 191 565 L191 -96 L170 -96 L170 526 ZM844 483 L354 483 L354 505 L822 505 L822 613 L386 613 L386 634 L822 634 L822 742 L361 742 L361 763 L844 763 L844 483 ZM916 387 L916 244 L894 244 L894 366 L325 366 L325 243 L304 243 L304 387 L916 387 ZM368 251 L839 251 L839 230 Q768 119 634 37 Q763 -32 946 -74 L935 -91 Q741 -44 616 26 Q484 -49 298 -94 L289 -75 Q466 -34 596 37 Q457 118 399 229 L368 229 L368 251 ZM420 229 Q481 123 614 48 Q744 124 813 229 L420 229 Z" /><glyph glyph-name="uni4FBF" unicode="&#x4fbf;" d="M350 752 L937 752 L937 730 L639 730 L639 606 L887 606 L887 254 L638 254 Q632 124 563 44 Q730 -59 954 -71 L948 -90 Q716 -78 549 30 Q467 -46 304 -89 L291 -71 Q448 -32 531 41 Q440 103 373 184 L391 197 Q460 112 546 55 L547 56 Q613 134 616 254 L368 254 L368 606 L617 606 L617 730 L350 730 L350 752 ZM865 275 L865 421 L639 421 L639 275 L865 275 ZM617 275 L617 421 L390 421 L390 275 L617 275 ZM390 442 L617 442 L617 585 L390 585 L390 442 ZM639 585 L639 442 L865 442 L865 585 L639 585 ZM181 530 Q121 423 54 343 L48 366 Q204 563 271 805 L291 798 Q254 676 202 571 L202 -89 L181 -89 L181 530 Z" /><glyph glyph-name="uni4FDD" unicode="&#x4fdd;" d="M304 803 Q264 682 210 585 L210 -96 L188 -96 L188 546 Q126 441 43 352 L36 374 Q211 573 284 811 L304 803 ZM397 758 L845 758 L845 478 L632 478 L632 324 L937 324 L937 302 L671 302 Q776 115 951 -13 L939 -31 Q763 102 652 302 L632 302 L632 -93 L610 -93 L610 302 L590 302 Q477 88 297 -33 L286 -14 Q466 105 570 302 L313 302 L313 324 L610 324 L610 478 L397 478 L397 758 ZM822 500 L822 737 L420 737 L420 500 L822 500 Z" /><glyph glyph-name="uni4FE1" unicode="&#x4fe1;" d="M179 548 Q118 441 43 356 L37 378 Q201 576 270 817 L290 808 Q253 691 200 588 L200 -96 L179 -96 L179 548 ZM315 654 L953 654 L953 632 L315 632 L315 654 ZM410 508 L864 508 L864 487 L410 487 L410 508 ZM410 367 L864 367 L864 345 L410 345 L410 367 ZM877 221 L877 -93 L855 -93 L855 -34 L419 -34 L419 -93 L397 -93 L397 221 L877 221 ZM419 -13 L855 -13 L855 200 L419 200 L419 -13 ZM609 813 Q644 750 662 700 L642 692 Q620 751 588 807 L609 813 Z" /><glyph glyph-name="uni503C" unicode="&#x503c;" d="M620 809 L642 809 L642 701 L916 701 L916 679 L642 679 L642 561 L842 561 L842 -38 L950 -38 L950 -59 L294 -59 L294 -38 L406 -38 L406 561 L620 561 L620 679 L337 679 L337 701 L620 701 L620 809 ZM428 -38 L820 -38 L820 88 L428 88 L428 -38 ZM428 108 L820 108 L820 234 L428 234 L428 108 ZM428 256 L820 256 L820 384 L428 384 L428 256 ZM428 406 L820 406 L820 540 L428 540 L428 406 ZM203 569 Q139 449 56 354 L50 376 Q211 573 279 811 L299 802 Q268 705 225 613 L225 -96 L203 -96 L203 569 Z" /><glyph glyph-name="uni505A" unicode="&#x505a;" d="M671 534 Q636 449 591 386 L577 403 Q683 553 720 806 L741 802 Q726 711 705 638 L939 638 L939 617 L881 617 L881 613 Q879 330 790 147 Q853 18 954 -77 L939 -92 Q837 7 779 123 Q709 -9 590 -87 L577 -71 Q699 6 768 145 Q686 319 671 534 ZM779 170 Q858 348 859 609 L859 617 L699 617 Q693 596 687 578 Q699 342 779 170 ZM282 798 Q248 684 199 583 L199 -93 L178 -93 L178 542 Q122 439 52 354 L46 376 Q198 570 263 807 L282 798 ZM568 351 L568 34 L341 34 L341 -42 L319 -42 L319 351 L434 351 L434 591 L286 591 L286 613 L434 613 L434 798 L455 798 L455 613 L597 613 L597 591 L455 591 L455 351 L568 351 ZM341 55 L547 55 L547 331 L341 331 L341 55 Z" /><glyph glyph-name="uni50CF" unicode="&#x50cf;" d="M367 601 L634 601 Q699 654 750 714 L480 714 Q401 632 293 567 L279 584 Q444 679 529 813 L552 808 Q531 774 500 736 L778 736 L778 717 Q721 648 662 601 L882 601 L882 418 L581 418 L567 401 Q650 322 686 230 Q807 281 888 362 L902 347 Q847 292 775 251 Q823 91 954 -29 L940 -45 Q806 85 758 241 Q737 230 693 210 Q713 148 716 84 Q716 -10 689 -48 Q664 -79 603 -88 Q563 -90 540 -90 L533 -70 L601 -70 Q641 -67 669 -36 Q694 -5 694 84 Q691 135 683 168 Q548 35 306 -48 L295 -29 Q548 57 677 192 Q662 242 634 289 Q516 177 308 110 L297 130 Q511 198 623 307 Q593 351 554 388 Q463 294 308 256 L298 277 Q467 316 554 418 L367 418 L367 601 ZM860 439 L860 580 L653 580 Q635 499 596 439 L860 439 ZM570 439 Q614 500 632 580 L389 580 L389 439 L570 439 ZM181 551 Q124 446 54 363 L48 384 Q199 577 263 809 L282 800 Q250 692 202 593 L202 -93 L181 -93 L181 551 Z" /><glyph glyph-name="uni5145" unicode="&#x5145;" d="M470 819 Q505 752 532 674 L924 674 L924 653 L424 653 Q301 428 213 355 Q492 367 771 391 Q715 476 648 561 L666 572 Q795 406 859 290 L842 276 Q815 326 785 371 L612 357 L612 0 Q612 -53 679 -53 L824 -53 Q865 -53 884 -38 Q916 -7 922 132 L942 125 Q936 -11 902 -51 Q880 -75 829 -75 L672 -75 Q591 -75 591 -4 L591 356 Q524 351 396 343 Q386 159 322 68 Q254 -25 92 -92 L77 -75 Q234 -11 301 76 Q363 162 374 342 L181 333 L175 353 Q179 355 181 355 Q263 409 401 653 L77 653 L77 674 L511 674 Q483 754 448 815 L470 819 Z" /><glyph glyph-name="uni5148" unicode="&#x5148;" d="M215 619 Q174 537 117 461 L99 472 Q207 611 265 803 L286 799 Q260 711 225 640 L498 640 L498 813 L520 813 L520 640 L869 640 L869 619 L520 619 L520 382 L937 382 L937 361 L645 361 L645 6 Q645 -57 707 -57 L823 -57 Q859 -57 878 -40 Q909 -8 915 150 L936 143 Q929 -10 897 -52 Q874 -78 828 -78 L700 -78 Q623 -78 623 1 L623 361 L387 361 Q375 167 310 76 Q238 -23 72 -91 L59 -74 Q219 -8 288 83 Q355 175 365 361 L68 361 L68 382 L498 382 L498 619 L215 619 Z" /><glyph glyph-name="uni5149" unicode="&#x5149;" d="M489 813 L511 813 L511 416 L930 416 L930 394 L621 394 L621 6 Q621 -44 676 -44 L816 -44 Q867 -44 888 -23 Q914 6 923 154 L943 147 Q935 1 903 -37 Q879 -66 820 -66 L669 -66 Q600 -66 600 2 L600 394 L389 394 L389 379 Q389 193 313 79 Q237 -26 65 -86 L53 -68 Q220 -11 299 97 Q367 206 367 379 L367 394 L71 394 L71 416 L489 416 L489 813 ZM843 750 Q791 630 701 505 L682 514 Q770 640 822 759 L843 750 ZM178 752 Q260 644 329 514 L310 505 Q239 635 158 742 L178 752 Z" /><glyph glyph-name="uni2F0A" unicode="&#x2f0a;&#x5165;" d="M479 595 Q408 727 306 798 L324 810 Q475 704 557 473 Q695 99 949 -57 L936 -75 Q679 85 533 474 Q515 525 494 567 Q398 140 63 -78 L50 -61 Q388 161 479 595 Z" /><glyph glyph-name="uni5168" unicode="&#x5168;" d="M508 799 Q699 593 949 474 L938 456 Q684 580 500 779 Q333 588 58 446 L48 464 Q317 600 492 799 L508 799 ZM222 474 L780 474 L780 453 L511 453 L511 228 L819 228 L819 207 L511 207 L511 -36 L910 -36 L910 -58 L91 -58 L91 -36 L489 -36 L489 207 L180 207 L180 228 L489 228 L489 453 L222 453 L222 474 Z" /><glyph glyph-name="uni516C" unicode="&#x516c;" d="M387 792 Q267 473 70 309 L55 323 Q258 497 367 798 L387 792 ZM636 271 Q752 106 837 -80 L817 -89 Q777 -4 758 33 Q505 -11 180 -34 L175 -16 Q326 103 488 464 L509 458 Q356 121 214 -11 Q515 9 747 52 Q681 175 616 265 L636 271 ZM621 804 Q714 509 947 323 L934 307 Q697 496 604 794 L621 804 Z" /><glyph glyph-name="uni5171" unicode="&#x5171;" d="M111 590 L311 590 L311 819 L333 819 L333 590 L667 590 L667 815 L689 815 L689 590 L890 590 L890 568 L689 568 L689 276 L939 276 L939 255 L61 255 L61 276 L311 276 L311 568 L111 568 L111 590 ZM333 276 L667 276 L667 568 L333 568 L333 276 ZM397 168 Q267 21 79 -86 L66 -69 Q252 39 381 183 L397 168 ZM625 181 Q809 57 932 -69 L916 -84 Q801 34 609 167 L625 181 Z" /><glyph glyph-name="uni5173" unicode="&#x5173;" d="M283 807 Q352 723 407 625 L388 615 Q326 721 264 797 L283 807 ZM733 813 Q691 684 625 585 L864 585 L864 563 L511 563 L511 481 Q511 399 497 329 L922 329 L922 307 L528 307 Q607 61 944 -71 L933 -89 Q585 51 507 307 L493 307 Q466 193 407 115 Q306 -13 74 -88 L62 -69 Q289 1 396 134 Q448 210 470 307 L78 307 L78 329 L474 329 Q489 401 489 481 L489 563 L135 563 L135 585 L601 585 Q666 680 713 818 L733 813 Z" /><glyph glyph-name="uni5174" unicode="&#x5174;" d="M54 339 L619 339 Q737 548 817 802 L837 797 Q745 516 641 339 L946 339 L946 317 L54 317 L54 339 ZM150 743 Q228 607 295 445 L275 435 Q205 605 131 734 L150 743 ZM397 798 Q475 651 537 486 L518 476 Q451 652 377 788 L397 798 ZM363 219 Q257 48 111 -79 L94 -68 Q238 55 344 228 L363 219 ZM662 230 Q819 55 897 -67 L880 -79 Q793 58 645 218 L662 230 Z" /><glyph glyph-name="uni517B" unicode="&#x517b;" d="M94 689 L365 689 Q326 755 286 803 L305 813 Q352 755 389 689 L612 689 Q656 751 686 815 L707 808 Q675 739 635 689 L909 689 L909 668 L513 668 Q498 609 475 546 L856 546 L856 524 L467 524 Q434 451 402 402 L928 402 L928 380 L646 380 Q736 245 948 170 L939 151 Q709 239 623 380 L387 380 Q270 218 71 150 L60 169 Q251 234 361 380 L72 380 L72 402 L376 402 Q417 462 443 524 L146 524 L146 546 L452 546 Q476 607 490 668 L94 668 L94 689 ZM652 261 L674 261 L674 -91 L652 -91 L652 261 ZM355 261 L377 261 L377 194 Q377 83 320 15 Q265 -46 137 -84 L124 -66 Q248 -33 306 31 Q355 95 355 194 L355 261 Z" /><glyph glyph-name="uni5185" unicode="&#x5185;" d="M485 451 Q425 252 229 130 L215 147 Q395 258 458 437 Q481 516 493 608 L146 608 L146 -92 L124 -92 L124 630 L496 630 Q505 716 505 813 L526 813 Q526 713 517 630 L878 630 L878 -9 Q878 -85 797 -85 L641 -85 L634 -63 L789 -64 Q856 -64 856 -5 L856 608 L514 608 Q504 534 492 482 Q662 321 776 159 L762 144 Q653 297 487 460 L485 451 Z" /><glyph glyph-name="uni5192" unicode="&#x5192;" d="M781 383 L781 -95 L760 -95 L760 -37 L242 -37 L242 -95 L221 -95 L221 383 L781 383 ZM242 -15 L760 -15 L760 95 L242 95 L242 -15 ZM242 117 L760 117 L760 226 L242 226 L242 117 ZM242 248 L760 248 L760 362 L242 362 L242 248 ZM848 757 L848 461 L826 461 L826 735 L174 735 L174 461 L152 461 L152 757 L848 757 ZM288 632 L713 632 L713 610 L288 610 L288 632 ZM288 510 L713 510 L713 489 L288 489 L288 510 Z" /><glyph glyph-name="uni5199" unicode="&#x5199;" d="M325 517 Q295 405 276 338 L821 338 Q820 -11 770 -56 Q742 -85 635 -88 L544 -88 L538 -67 L636 -67 Q736 -64 759 -35 Q794 3 800 316 L247 316 Q307 515 337 666 L358 663 L330 539 L764 539 L764 517 L325 517 ZM80 145 L675 145 L675 124 L80 124 L80 145 ZM877 755 L877 565 L855 565 L855 733 L145 733 L145 566 L123 566 L123 755 L877 755 Z" /><glyph glyph-name="uni51B3" unicode="&#x51b3;" d="M365 646 L584 646 L584 809 L605 809 L605 646 L840 646 L840 348 L940 348 L940 327 L612 327 Q715 74 954 -73 L940 -88 Q690 71 592 327 L586 327 Q524 35 259 -92 L246 -76 Q505 44 565 327 L324 327 L324 348 L569 348 Q583 426 584 511 L584 625 L365 625 L365 646 ZM605 625 L605 516 Q605 426 590 348 L818 348 L818 625 L605 625 ZM86 763 Q193 641 256 544 L238 531 Q178 628 68 753 L86 763 ZM267 348 Q185 134 80 -65 L60 -56 Q163 136 248 356 L267 348 Z" /><glyph glyph-name="uni51B5" unicode="&#x51b5;" d="M374 749 L852 749 L852 385 L702 385 L702 -9 Q702 -51 750 -51 L833 -51 Q878 -51 896 -30 Q920 2 929 147 L948 140 Q940 -5 912 -44 Q889 -73 837 -73 L744 -73 Q681 -73 681 -13 L681 385 L544 385 Q535 58 266 -92 L254 -74 Q516 71 522 385 L374 385 L374 749 ZM830 407 L830 727 L396 727 L396 407 L830 407 ZM87 761 Q201 644 264 552 L246 540 Q184 633 69 751 L87 761 ZM270 349 Q183 124 75 -74 L55 -65 Q167 141 251 357 L270 349 Z" /><glyph glyph-name="uni51C6" unicode="&#x51c6;" d="M79 763 Q195 638 253 548 L235 536 Q171 635 62 753 L79 763 ZM262 331 Q180 109 82 -82 L62 -75 Q163 119 244 338 L262 331 ZM415 395 L415 207 L670 207 L670 395 L415 395 ZM415 185 L415 -17 L670 -17 L670 185 L415 185 ZM415 -38 L415 -94 L394 -94 L394 581 Q339 473 267 380 L259 404 Q399 590 458 814 L480 810 Q455 713 414 622 L925 622 L925 600 L691 600 L691 417 L905 417 L905 395 L691 395 L691 207 L907 207 L907 185 L691 185 L691 -17 L947 -17 L947 -38 L415 -38 ZM670 600 L415 600 L415 417 L670 417 L670 600 ZM643 819 Q678 739 698 668 L679 661 Q656 736 622 813 L643 819 Z" /><glyph glyph-name="uni51CF" unicode="&#x51cf;" d="M427 513 L642 513 L642 492 L427 492 L427 513 ZM442 370 L628 370 L628 107 L442 107 L442 370 ZM607 129 L607 348 L463 348 L463 129 L607 129 ZM901 513 Q857 307 774 158 Q794 70 824 5 Q866 -69 894 -69 Q931 -69 937 137 L955 129 Q952 -90 899 -90 Q853 -90 808 -7 Q778 54 758 132 Q668 -15 537 -89 L524 -73 Q660 4 751 160 Q736 220 727 289 Q700 466 694 644 L357 644 L357 356 Q352 76 239 -91 L224 -77 Q330 78 336 356 L336 666 L693 666 Q690 738 690 810 L712 810 Q712 738 715 666 L858 666 Q834 728 802 784 L823 788 Q854 732 880 666 L934 666 L934 644 L716 644 Q724 475 746 312 Q755 246 767 188 Q841 328 881 521 L901 513 ZM74 757 Q187 635 242 548 L226 536 Q165 631 58 746 L74 757 ZM258 343 Q176 126 73 -70 L53 -61 Q158 134 240 351 L258 343 Z" /><glyph glyph-name="uni51FA" unicode="&#x51fa;" d="M800 445 L800 735 L821 735 L821 423 L511 423 L511 8 L845 8 L845 299 L866 299 L866 -87 L845 -87 L845 -13 L155 -13 L155 -87 L134 -87 L134 299 L155 299 L155 8 L489 8 L489 423 L179 423 L179 735 L200 735 L200 445 L489 445 L489 812 L511 812 L511 445 L800 445 Z" /><glyph glyph-name="uni51FB" unicode="&#x51fb;" d="M143 645 L489 645 L489 804 L511 804 L511 645 L853 645 L853 624 L511 624 L511 410 L935 410 L935 388 L511 388 L511 -18 L797 -18 L797 270 L818 270 L818 -95 L797 -95 L797 -39 L204 -39 L204 -95 L183 -95 L183 270 L204 270 L204 -18 L489 -18 L489 388 L66 388 L66 410 L489 410 L489 624 L143 624 L143 645 Z" /><glyph glyph-name="uni51FD" unicode="&#x51fd;" d="M192 152 Q354 255 505 413 L505 583 Q700 686 766 737 L204 737 L204 758 L804 758 L804 737 Q685 655 526 571 L526 390 Q659 294 807 159 L795 141 Q641 284 526 367 L526 142 Q526 74 465 74 L375 74 L370 96 L456 95 Q505 95 505 149 L505 385 Q360 237 199 131 L192 152 ZM865 590 L887 590 L887 -95 L865 -95 L865 -24 L135 -24 L135 -94 L113 -94 L113 591 L135 591 L135 -2 L865 -2 L865 590 ZM258 555 Q353 472 404 407 L387 394 Q334 461 240 545 L258 555 ZM769 556 Q708 460 624 390 L606 403 Q690 471 749 565 L769 556 Z" /><glyph glyph-name="uni5206" unicode="&#x5206;" d="M415 778 Q341 645 270 563 Q180 462 65 390 L52 408 Q171 480 253 578 Q337 673 396 789 L415 778 ZM193 375 L193 396 L770 396 Q766 226 753 109 Q739 2 710 -41 Q679 -83 612 -86 L426 -86 L420 -65 L602 -66 Q686 -66 713 15 Q739 96 748 375 L434 375 Q398 195 331 94 Q258 -9 112 -91 L99 -75 Q239 6 309 99 Q380 203 412 375 L193 375 ZM622 799 Q718 560 947 424 L933 407 Q696 553 603 789 L622 799 Z" /><glyph glyph-name="uni521B" unicode="&#x521b;" d="M459 461 L186 461 L186 -24 Q186 -53 220 -53 L449 -53 Q513 -53 530 -24 Q549 16 555 109 L576 103 Q568 -18 539 -50 Q514 -75 448 -75 L221 -75 Q164 -75 164 -25 L164 482 L480 482 L480 237 Q480 161 411 161 Q356 161 302 164 L296 185 Q372 181 410 181 Q459 181 459 236 L459 461 ZM343 794 Q463 664 596 495 L581 479 Q449 650 335 773 Q209 587 59 452 L46 469 Q200 610 324 794 L343 794 ZM684 722 L705 722 L705 87 L684 87 L684 722 ZM676 -84 L672 -63 Q790 -65 842 -65 Q873 -65 873 -28 L873 807 L895 807 L895 -34 Q895 -84 849 -84 L676 -84 Z" /><glyph glyph-name="uni522B" unicode="&#x522b;" d="M112 478 L112 758 L507 758 L507 478 L303 478 Q300 386 291 314 L512 314 Q512 66 497 6 Q484 -78 362 -78 L299 -77 L294 -56 Q348 -58 364 -58 Q461 -58 476 5 Q487 54 490 293 L288 293 Q272 186 244 120 Q188 -5 63 -90 L50 -74 Q170 8 224 126 Q251 193 266 293 L65 293 L65 314 L269 314 Q278 387 281 478 L112 478 ZM656 722 L678 722 L678 87 L656 87 L656 722 ZM681 -84 L676 -63 Q772 -65 812 -65 Q868 -65 868 -4 L868 807 L890 807 L890 -9 Q890 -84 820 -84 L681 -84 ZM485 500 L485 737 L134 737 L134 500 L485 500 Z" /><glyph glyph-name="uni5230" unicode="&#x5230;" d="M559 4 Q327 -45 66 -76 L62 -55 Q190 -40 307 -22 L307 221 L91 221 L91 243 L307 243 L307 383 L328 383 L328 243 L533 243 L533 221 L328 221 L328 -19 Q439 -1 559 25 L559 4 ZM70 750 L555 750 L555 728 L286 728 Q193 534 105 444 Q329 464 494 493 Q448 566 394 641 L411 652 Q517 504 569 402 L552 389 Q532 430 504 477 Q314 443 74 422 L68 443 L77 445 Q172 529 265 728 L70 728 L70 750 ZM683 -84 L678 -63 Q776 -65 819 -65 Q875 -65 875 -9 L875 807 L897 807 L897 -14 Q897 -84 827 -84 L683 -84 ZM661 717 L683 717 L683 87 L661 87 L661 717 Z" /><glyph glyph-name="uni5238" unicode="&#x5238;" d="M247 238 L247 259 L752 259 Q747 129 736 52 Q724 -24 694 -56 Q665 -85 602 -88 L476 -88 L470 -67 L591 -68 Q670 -68 696 -12 Q722 47 730 238 L442 238 Q412 113 353 40 Q290 -34 159 -93 L145 -77 Q270 -20 331 47 Q393 119 421 238 L247 238 ZM246 808 Q293 742 326 671 L307 662 Q269 743 226 802 L246 808 ZM782 810 Q747 724 695 662 L677 673 Q727 732 762 817 L782 810 ZM131 634 L459 634 Q491 723 506 821 L527 819 Q513 724 481 634 L869 634 L869 613 L474 613 Q441 529 396 460 L923 460 L923 438 L661 438 Q742 305 950 200 L937 183 Q721 296 640 438 L381 438 Q265 275 63 182 L51 201 Q241 286 355 438 L77 438 L77 460 L370 460 Q420 534 452 613 L131 613 L131 634 Z" /><glyph glyph-name="uni524D" unicode="&#x524d;" d="M716 811 Q682 730 636 668 L940 668 L940 646 L59 646 L59 668 L362 668 Q327 751 286 813 L308 817 Q350 751 384 668 L613 668 Q661 737 694 818 L716 811 ZM319 -87 L313 -65 L392 -66 Q445 -66 445 -12 L445 138 L162 138 L162 -95 L141 -95 L141 524 L467 524 L467 -16 Q467 -87 399 -87 L319 -87 ZM162 160 L445 160 L445 319 L162 319 L162 160 ZM162 340 L445 340 L445 503 L162 503 L162 340 ZM657 -84 L652 -63 Q740 -65 778 -65 Q833 -65 833 -8 L833 565 L855 565 L855 -13 Q855 -84 786 -84 L657 -84 ZM621 490 L643 490 L643 51 L621 51 L621 490 Z" /><glyph glyph-name="uni2F12" unicode="&#x2f12;&#x529b;" d="M443 807 L465 807 L465 738 Q465 689 461 601 L851 601 Q846 343 832 192 Q817 38 784 -23 Q751 -81 677 -87 L553 -87 L547 -66 L665 -67 Q759 -67 789 52 Q820 180 829 580 L459 580 Q442 354 377 205 Q291 19 94 -89 L80 -71 Q275 32 365 228 Q422 372 437 580 L123 580 L123 601 L439 601 Q443 689 443 738 L443 807 Z" /><glyph glyph-name="uni52A0" unicode="&#x52a0;" d="M886 656 L886 -78 L864 -78 L864 -3 L630 -3 L630 -78 L608 -78 L608 656 L886 656 ZM630 18 L864 18 L864 634 L630 634 L630 18 ZM241 807 L263 807 L263 622 L480 622 Q480 171 465 63 Q450 -81 315 -81 L243 -80 L238 -60 L316 -61 Q426 -61 443 60 Q455 162 458 600 L263 599 Q259 126 63 -94 L47 -79 Q238 132 241 600 L62 600 L62 622 L241 622 L241 807 Z" /><glyph glyph-name="uni52A1" unicode="&#x52a1;" d="M394 810 Q374 762 343 716 L798 716 L798 698 Q692 574 531 489 Q715 395 949 367 L939 346 Q691 376 507 477 Q316 385 61 346 L51 366 Q302 402 485 489 Q374 553 281 641 Q216 577 127 524 L113 542 Q304 653 372 812 L394 810 ZM508 501 Q661 579 768 695 L328 695 Q313 676 296 657 Q390 565 508 501 ZM490 381 Q490 307 476 242 L842 242 Q839 7 795 -37 Q749 -83 640 -83 L540 -82 L534 -61 L634 -64 Q753 -62 784 -16 Q813 31 819 222 L471 222 Q456 171 434 130 Q350 -8 81 -92 L66 -75 Q315 0 404 124 Q433 170 448 222 L118 222 L118 242 L453 242 Q469 311 469 381 L490 381 Z" /><glyph glyph-name="uni52A8" unicode="&#x52a8;" d="M100 723 L442 723 L442 702 L100 702 L100 723 ZM58 453 L483 453 L483 431 L241 431 Q161 145 103 51 Q264 77 421 136 Q374 234 327 311 L347 321 Q421 195 490 36 L471 27 Q443 92 430 118 Q272 60 75 23 L69 44 Q73 46 75 46 Q128 114 220 431 L58 431 L58 453 ZM665 807 L687 807 L687 617 L910 617 Q910 151 896 34 Q885 -81 792 -81 L688 -80 L683 -60 Q767 -62 793 -62 Q862 -62 874 32 Q886 137 889 595 L687 595 L687 585 Q682 122 468 -92 L452 -77 Q662 130 665 585 L665 595 L521 595 L521 617 L665 617 L665 807 Z" /><glyph glyph-name="uni52A9" unicode="&#x52a9;" d="M436 746 L436 109 L512 134 L512 113 Q331 50 62 -9 L57 12 L128 27 L128 746 L436 746 ZM150 32 Q297 67 414 102 L414 278 L150 278 L150 32 ZM150 299 L414 299 L414 502 L150 502 L150 299 ZM150 523 L414 523 L414 724 L150 724 L150 523 ZM653 805 L675 805 L675 606 L907 606 Q907 167 893 58 Q878 -81 730 -81 L666 -80 L661 -60 Q715 -62 731 -62 Q853 -62 871 55 Q883 154 886 585 L675 585 Q667 122 455 -93 L439 -78 Q647 128 653 585 L513 585 L513 606 L653 606 L653 805 Z" /><glyph glyph-name="uni52BF" unicode="&#x52bf;" d="M79 692 L238 692 L238 809 L260 809 L260 692 L398 692 L398 671 L260 671 L260 518 Q328 531 406 550 L406 529 Q355 516 260 497 L260 350 Q260 293 201 293 L109 293 L105 314 Q165 312 193 312 Q238 312 238 355 L238 492 Q175 480 71 466 L66 487 Q175 502 238 513 L238 671 L79 671 L79 692 ZM449 557 Q504 532 562 500 Q591 575 594 671 L459 671 L459 692 L595 692 L595 810 L616 810 L616 692 L804 692 L804 529 Q804 315 880 315 Q922 317 937 457 L955 446 Q947 369 925 324 Q906 296 879 296 Q835 296 811 343 Q783 399 783 529 L783 671 L615 671 Q612 569 580 490 Q651 450 712 403 L700 385 Q631 438 572 472 Q526 377 438 318 L421 332 Q510 389 554 482 Q500 514 438 540 L449 557 ZM493 295 Q487 250 475 211 L845 211 Q845 22 809 -31 Q772 -82 676 -82 L594 -81 L588 -59 Q650 -61 675 -61 Q789 -58 807 19 Q823 102 823 189 L468 189 Q436 100 375 43 Q276 -45 74 -90 L65 -70 Q269 -25 360 57 Q418 112 446 189 L95 189 L95 211 L453 211 Q467 258 472 295 L493 295 Z" /><glyph glyph-name="uni5316" unicode="&#x5316;" d="M389 800 Q334 676 255 569 L255 -96 L233 -96 L233 540 Q156 444 54 359 L48 381 Q273 574 369 809 L389 800 ZM611 -77 Q534 -77 534 -2 L534 357 Q448 305 367 266 L356 287 Q456 335 534 382 L534 808 L556 808 L556 396 Q734 510 869 668 L883 652 Q747 492 556 371 L556 1 Q556 -55 617 -55 L803 -55 Q852 -55 875 -27 Q897 2 904 174 L925 169 Q916 -4 894 -41 Q869 -77 806 -77 L611 -77 Z" /><glyph glyph-name="uni5317" unicode="&#x5317;" d="M368 804 L390 804 L390 -86 L368 -86 L368 119 Q225 46 60 1 L55 21 Q229 68 368 140 L368 492 L67 492 L67 513 L368 513 L368 804 ZM654 -78 Q592 -78 592 -15 L592 805 L613 805 L613 438 Q762 485 915 582 L928 564 Q768 465 613 416 L613 -12 Q613 -56 660 -56 L808 -56 Q858 -56 885 -31 Q908 -4 915 155 L936 148 Q927 -11 902 -45 Q878 -78 811 -78 L654 -78 Z" /><glyph glyph-name="uni5339" unicode="&#x5339;" d="M154 716 L154 -34 L931 -34 L931 -56 L133 -56 L133 738 L920 738 L920 716 L656 716 L656 240 Q656 192 712 192 L811 192 Q855 192 874 214 Q897 244 906 388 L927 381 Q919 236 890 198 Q868 171 814 171 L706 171 Q635 171 635 235 L635 716 L448 716 Q438 292 218 131 L200 146 Q421 296 427 716 L154 716 Z" /><glyph glyph-name="uni533A" unicode="&#x533a;" d="M301 598 Q446 489 581 368 Q683 493 755 657 L774 646 Q697 475 596 354 Q734 230 840 109 L824 94 Q713 221 583 338 Q441 178 254 98 L242 118 Q433 197 567 352 Q435 470 286 584 L301 598 ZM142 764 L917 764 L917 743 L163 743 L163 -27 L943 -27 L943 -48 L142 -48 L142 764 Z" /><glyph glyph-name="uni533B" unicode="&#x533b;" d="M374 543 Q325 467 265 417 L249 431 Q358 522 417 679 L438 674 Q417 617 387 564 L829 564 L829 543 L589 543 L589 461 Q589 401 578 344 L887 344 L887 323 L573 323 Q554 246 511 188 Q435 94 259 38 L246 57 Q416 108 498 206 Q532 255 551 323 L246 323 L246 344 L556 344 Q567 402 567 461 L567 543 L374 543 ZM592 250 Q755 172 891 59 L879 41 Q731 164 580 233 L592 250 ZM127 770 L896 770 L896 750 L148 750 L148 -36 L928 -36 L928 -58 L127 -58 L127 770 Z" /><glyph glyph-name="uni2F17" unicode="&#x2f17;&#x5341;" d="M492 808 L514 808 L514 464 L938 464 L938 442 L514 442 L514 -92 L492 -92 L492 442 L64 442 L64 464 L492 464 L492 808 Z" /><glyph glyph-name="uni5343" unicode="&#x5343;" d="M65 382 L494 382 L494 689 Q324 672 135 672 L128 693 Q579 695 852 780 L862 760 Q716 714 516 691 L516 382 L935 382 L935 360 L516 360 L516 -91 L494 -91 L494 360 L65 360 L65 382 Z" /><glyph glyph-name="uni5347" unicode="&#x5347;" d="M543 775 Q449 734 346 709 L346 413 L666 413 L666 800 L688 800 L688 413 L937 413 L937 391 L688 391 L688 -92 L666 -92 L666 391 L346 391 Q336 64 101 -89 L84 -76 Q315 72 324 391 L62 391 L62 413 L324 413 L324 703 Q214 678 89 667 L82 687 Q331 707 532 795 L543 775 Z" /><glyph glyph-name="uni5355" unicode="&#x5355;" d="M183 646 L597 646 Q651 726 687 813 L708 806 Q669 714 620 646 L819 646 L819 263 L512 263 L512 138 L938 138 L938 117 L512 117 L512 -94 L490 -94 L490 117 L62 117 L62 138 L490 138 L490 263 L183 263 L183 646 ZM798 285 L798 442 L512 442 L512 285 L798 285 ZM490 285 L490 442 L204 442 L204 285 L490 285 ZM204 464 L490 464 L490 625 L204 625 L204 464 ZM512 625 L512 464 L798 464 L798 625 L512 625 ZM299 808 Q351 748 397 672 L378 662 Q331 738 279 798 L299 808 Z" /><glyph glyph-name="uni535A" unicode="&#x535a;" d="M427 450 L427 355 L635 355 L635 450 L427 450 ZM656 450 L656 355 L865 355 L865 450 L656 450 ZM865 471 L865 569 L656 569 L656 471 L865 471 ZM635 471 L635 569 L427 569 L427 471 L635 471 ZM427 334 L427 227 L405 227 L405 590 L635 590 L635 694 L360 694 L360 715 L635 715 L635 810 L656 810 L656 715 L822 715 Q803 766 773 814 L795 818 Q817 779 844 715 L934 715 L934 694 L656 694 L656 590 L887 590 L887 227 L865 227 L865 334 L656 334 L656 236 L635 236 L635 334 L427 334 ZM335 160 L787 160 L787 236 L809 236 L809 160 L938 160 L938 138 L809 138 L809 -43 Q809 -92 759 -92 L647 -92 L643 -71 Q719 -73 752 -73 Q787 -73 787 -38 L787 138 L335 138 L335 160 ZM63 547 L186 547 L186 808 L207 808 L207 547 L332 547 L332 525 L207 525 L207 -92 L186 -92 L186 525 L63 525 L63 547 ZM439 100 Q535 34 598 -32 L583 -46 Q524 16 425 86 L439 100 Z" /><glyph glyph-name="uni5373" unicode="&#x5373;" d="M142 538 L142 351 L441 351 L441 538 L142 538 ZM441 559 L441 737 L142 737 L142 559 L441 559 ZM104 -39 Q120 -33 120 -22 L120 758 L462 758 L462 330 L142 330 L142 -28 Q311 18 445 75 Q410 138 356 220 L374 231 Q472 81 524 -35 L507 -48 Q483 7 455 57 Q311 -8 111 -58 L104 -39 ZM734 48 L729 70 L840 69 Q879 69 879 111 L879 738 L633 738 L633 -90 L611 -90 L611 759 L900 759 L900 107 Q900 48 847 48 L734 48 Z" /><glyph glyph-name="uni5378" unicode="&#x5378;" d="M185 673 Q147 594 97 541 L81 554 Q168 649 216 812 L235 805 Q219 749 195 695 L523 695 L523 673 L339 673 L339 465 L542 465 L542 444 L339 444 L339 279 L517 279 L517 257 L339 257 L339 35 Q464 61 556 88 L556 66 Q325 4 68 -34 L62 -13 L144 -1 L144 327 L165 327 L165 3 Q245 15 317 30 L317 444 L68 444 L68 465 L317 465 L317 673 L185 673 ZM725 31 L719 53 L801 52 Q857 52 857 117 L857 688 L642 688 L642 -87 L620 -87 L620 710 L879 710 L879 113 Q879 31 808 31 L725 31 Z" /><glyph glyph-name="uni539A" unicode="&#x539a;" d="M321 631 L826 631 L826 372 L321 372 L321 631 ZM805 393 L805 491 L343 491 L343 393 L805 393 ZM343 512 L805 512 L805 609 L343 609 L343 512 ZM584 169 Q692 210 793 267 L280 267 L280 289 L842 289 L842 272 Q738 210 606 154 L606 117 L942 117 L942 95 L606 95 L606 -28 Q606 -88 542 -88 L420 -88 L414 -67 L533 -68 Q584 -68 584 -21 L584 95 L235 95 L235 117 L584 117 L584 169 ZM917 759 L917 738 L158 738 L158 403 Q154 94 66 -93 L50 -77 Q133 96 137 403 L137 759 L917 759 Z" /><glyph glyph-name="uni539F" unicode="&#x539f;" d="M312 601 L531 601 Q554 661 563 732 L161 732 L161 359 Q157 80 69 -91 L53 -77 Q136 81 140 359 L140 754 L926 754 L926 732 L584 732 Q576 667 553 601 L846 601 L846 252 L597 252 L597 -39 Q597 -90 546 -90 L445 -90 L441 -69 Q509 -71 538 -71 Q575 -71 575 -35 L575 252 L312 252 L312 601 ZM824 273 L824 417 L334 417 L334 273 L824 273 ZM334 438 L824 438 L824 581 L334 581 L334 438 ZM419 163 Q346 36 251 -55 L233 -42 Q330 49 399 172 L419 163 ZM751 172 Q861 51 923 -46 L905 -60 Q843 42 734 161 L751 172 Z" /><glyph glyph-name="uni53CA" unicode="&#x53ca;" d="M323 727 L132 727 L132 750 L691 750 L691 736 Q662 580 636 479 L842 479 L842 465 Q800 252 634 106 Q761 1 935 -77 L922 -95 Q739 -13 618 92 Q482 -21 276 -96 L264 -76 Q469 -4 602 106 Q407 277 341 514 Q311 109 69 -88 L53 -74 Q319 139 323 610 L323 727 ZM617 120 Q776 261 819 458 L607 458 Q634 546 667 727 L345 727 L345 599 L344 587 Q394 312 617 120 Z" /><glyph glyph-name="uni53CC" unicode="&#x53cc;" d="M107 589 Q218 454 308 322 Q378 500 390 712 L78 712 L78 733 L411 733 L411 715 Q399 480 322 300 Q396 190 461 72 L445 56 Q382 173 312 276 Q225 83 63 -57 L49 -41 Q213 101 298 297 Q197 445 92 575 L107 589 ZM501 733 L888 733 L888 713 Q851 449 712 228 Q802 72 948 -74 L934 -91 Q790 55 699 209 Q594 47 438 -88 L424 -71 Q586 70 687 230 Q556 460 541 712 L501 712 L501 733 ZM563 712 Q575 474 699 250 Q828 462 864 712 L563 712 Z" /><glyph glyph-name="uni53CD" unicode="&#x53cd;" d="M223 478 L223 416 Q214 100 73 -86 L58 -71 Q191 105 201 416 L201 734 Q561 737 865 793 L876 773 Q579 721 223 715 L223 500 L840 500 L840 479 Q769 269 590 118 Q732 7 948 -75 L937 -92 Q714 -4 575 105 Q427 -13 214 -91 L201 -73 Q418 7 559 118 Q368 275 305 478 L223 478 ZM574 130 Q747 276 816 478 L325 478 Q390 279 574 130 Z" /><glyph glyph-name="uni53D1" unicode="&#x53d1;" d="M145 534 L223 781 L244 778 L173 555 L408 555 Q442 681 462 824 L483 822 Q463 688 428 555 L917 555 L917 534 L422 534 Q400 455 369 375 L796 375 L796 354 Q750 212 601 96 Q731 5 942 -71 L932 -89 Q720 -12 586 84 Q454 -13 251 -91 L240 -72 Q441 4 568 96 Q411 212 362 353 L360 353 Q249 83 59 -72 L49 -53 Q292 157 402 534 L145 534 ZM383 353 Q432 219 584 108 Q729 221 771 353 L383 353 ZM651 801 Q765 711 840 621 L824 606 Q752 691 637 787 L651 801 Z" /><glyph glyph-name="uni53D6" unicode="&#x53d6;" d="M62 757 L528 757 L528 736 L433 736 L433 118 Q495 133 543 146 L543 125 L433 96 L433 -98 L411 -98 L411 91 Q257 55 63 26 L59 47 L156 62 L156 736 L62 736 L62 757 ZM178 66 Q315 90 411 113 L411 292 L178 292 L178 66 ZM178 313 L411 313 L411 510 L178 510 L178 313 ZM178 532 L411 532 L411 736 L178 736 L178 532 ZM603 684 Q624 422 741 204 Q849 405 882 684 L603 684 ZM730 185 Q604 412 583 684 L546 684 L546 706 L902 706 L902 685 Q866 387 753 182 Q829 48 949 -74 L935 -89 Q820 29 742 164 Q655 13 523 -90 L510 -74 Q643 32 730 185 Z" /><glyph glyph-name="uni53D8" unicode="&#x53d8;" d="M738 590 Q867 511 950 434 L936 419 Q856 493 724 575 L738 590 ZM480 826 Q508 772 531 705 L923 705 L923 683 L629 683 L629 390 L607 390 L607 683 L394 683 L394 389 L372 389 L372 683 L77 683 L77 705 L510 705 Q486 771 456 822 L480 826 ZM280 572 Q193 479 66 409 L54 425 Q178 495 265 588 L280 572 ZM145 315 L806 315 L806 297 Q695 156 525 64 Q700 -28 952 -67 L941 -86 Q681 -44 504 52 Q320 -43 71 -85 L61 -65 Q308 -25 483 63 Q323 155 229 294 L145 294 L145 315 ZM252 294 Q350 160 505 74 Q671 163 778 294 L252 294 Z" /><glyph glyph-name="uni2F1D" unicode="&#x2f1d;&#x53e3;" d="M841 676 L841 -77 L819 -77 L819 1 L182 1 L182 -77 L160 -77 L160 676 L841 676 ZM182 22 L819 22 L819 655 L182 655 L182 22 Z" /><glyph glyph-name="uni53EF" unicode="&#x53ef;" d="M62 739 L940 739 L940 717 L796 717 L796 -5 Q796 -86 714 -86 L551 -86 L547 -65 Q659 -67 706 -67 Q774 -67 774 1 L774 717 L62 717 L62 739 ZM542 514 L542 185 L214 185 L214 86 L192 86 L192 514 L542 514 ZM214 207 L520 207 L520 493 L214 493 L214 207 Z" /><glyph glyph-name="uni53F0" unicode="&#x53f0;" d="M817 304 L817 -94 L796 -94 L796 -25 L204 -25 L204 -94 L183 -94 L183 304 L817 304 ZM204 -3 L796 -3 L796 283 L204 283 L204 -3 ZM94 450 Q268 541 446 809 L467 803 Q295 550 138 452 Q514 467 806 497 Q730 598 647 687 L667 697 Q810 542 927 364 L907 354 Q870 411 822 476 Q509 447 99 430 L94 450 Z" /><glyph glyph-name="uni53F7" unicode="&#x53f7;" d="M233 762 L767 762 L767 530 L233 530 L233 762 ZM745 551 L745 741 L255 741 L255 551 L745 551 ZM308 380 L62 380 L62 401 L937 401 L937 380 L330 380 L287 218 L785 218 Q776 3 745 -41 Q713 -82 623 -82 Q568 -82 488 -80 L479 -59 Q559 -62 618 -62 Q709 -62 731 -20 Q751 20 763 197 L261 197 L308 380 Z" /><glyph glyph-name="uni5404" unicode="&#x5404;" d="M764 260 L764 -95 L742 -95 L742 -35 L262 -35 L262 -95 L240 -95 L240 260 L764 260 ZM262 -13 L742 -13 L742 239 L262 239 L262 -13 ZM413 814 Q382 756 349 710 L757 710 L757 691 Q660 552 517 458 Q692 349 946 306 L937 288 Q677 333 500 447 Q315 332 63 284 L54 302 Q306 347 483 458 Q369 536 292 639 Q217 556 128 493 L114 509 Q300 640 393 819 L413 814 ZM305 654 Q382 548 500 469 Q636 559 730 688 L333 688 L305 654 Z" /><glyph glyph-name="uni5408" unicode="&#x5408;" d="M508 808 Q702 573 959 436 L948 418 Q686 560 500 789 Q330 574 48 416 L38 434 Q309 585 492 808 L508 808 ZM795 284 L795 -92 L773 -92 L773 -18 L227 -18 L227 -92 L205 -92 L205 284 L795 284 ZM227 4 L773 4 L773 262 L227 262 L227 4 ZM247 476 L753 476 L753 455 L247 455 L247 476 Z" /><glyph glyph-name="uni540C" unicode="&#x540c;" d="M679 -89 L673 -67 L810 -68 Q860 -68 860 -18 L860 737 L140 737 L140 -92 L118 -92 L118 758 L882 758 L882 -22 Q882 -89 817 -89 L679 -89 ZM240 578 L762 578 L762 556 L240 556 L240 578 ZM307 411 L694 411 L694 117 L307 117 L307 411 ZM673 138 L673 389 L328 389 L328 138 L673 138 Z" /><glyph glyph-name="uni540D" unicode="&#x540d;" d="M328 -20 L328 -89 L307 -89 L307 284 Q194 244 71 213 L60 233 Q339 303 517 405 Q442 472 312 547 L330 559 Q471 475 536 416 Q720 527 805 679 L380 679 Q276 581 116 507 L103 525 Q364 642 457 810 L479 808 Q451 755 402 701 L831 701 L831 680 Q699 441 356 303 L851 303 L851 -89 L829 -89 L829 -20 L328 -20 ZM829 2 L829 282 L328 282 L328 2 L829 2 Z" /><glyph glyph-name="uni540E" unicode="&#x540e;" d="M204 494 L204 438 Q195 107 63 -89 L47 -74 Q173 111 183 438 L183 716 Q557 721 862 792 L873 772 Q576 706 204 697 L204 515 L945 515 L945 494 L204 494 ZM857 306 L857 -93 L836 -93 L836 -32 L353 -32 L353 -93 L331 -93 L331 306 L857 306 ZM353 -10 L836 -10 L836 285 L353 285 L353 -10 Z" /><glyph glyph-name="uni5411" unicode="&#x5411;" d="M332 444 L671 444 L671 129 L332 129 L332 444 ZM649 150 L649 422 L354 422 L354 150 L649 150 ZM481 813 Q461 724 416 647 L884 647 L884 -23 Q884 -87 817 -87 L661 -87 L654 -65 L810 -66 Q862 -66 862 -18 L862 626 L146 626 L146 -91 L124 -91 L124 647 L395 647 Q438 724 460 816 L481 813 Z" /><glyph glyph-name="uni544A" unicode="&#x544a;" d="M805 247 L805 -92 L783 -92 L783 -28 L223 -28 L223 -92 L201 -92 L201 247 L805 247 ZM223 -6 L783 -6 L783 225 L223 225 L223 -6 ZM213 631 Q162 559 93 499 L80 516 Q224 638 276 817 L298 815 Q273 728 227 653 L497 653 L497 812 L519 812 L519 653 L880 653 L880 631 L519 631 L519 415 L945 415 L945 393 L55 393 L55 415 L497 415 L497 631 L213 631 Z" /><glyph glyph-name="uni5458" unicode="&#x5458;" d="M802 439 L802 101 L780 101 L780 418 L230 418 L230 86 L208 86 L208 439 L802 439 ZM262 759 L737 759 L737 556 L262 556 L262 759 ZM716 578 L716 738 L283 738 L283 578 L716 578 ZM521 322 Q501 112 427 30 Q343 -64 89 -87 L80 -68 Q329 -50 411 44 Q484 127 499 324 L521 322 ZM556 79 Q743 11 900 -86 L889 -105 Q718 2 544 61 L556 79 Z" /><glyph glyph-name="uni5468" unicode="&#x5468;" d="M501 688 L522 688 L522 577 L726 577 L726 555 L522 555 L522 418 L764 418 L764 396 L263 396 L263 418 L501 418 L501 555 L296 555 L296 577 L501 577 L501 688 ZM859 758 L859 -20 Q859 -81 795 -81 L669 -81 L663 -60 L787 -61 Q838 -61 838 -12 L838 737 L189 737 L189 307 Q186 63 98 -88 L82 -74 Q164 75 167 306 L167 758 L859 758 ZM333 294 L691 294 L691 73 L333 73 L333 294 ZM670 94 L670 273 L355 273 L355 94 L670 94 Z" /><glyph glyph-name="uni548C" unicode="&#x548c;" d="M886 726 L886 -56 L864 -56 L864 34 L564 34 L564 -63 L543 -63 L543 726 L886 726 ZM564 55 L864 55 L864 705 L564 705 L564 55 ZM78 519 L270 519 L270 715 Q185 698 86 690 L79 711 Q283 724 453 791 L464 771 Q388 741 292 719 L292 519 L480 519 L480 498 L292 498 L292 430 Q385 341 477 229 L464 212 Q369 332 292 407 L292 -93 L270 -93 L270 448 Q202 261 63 119 L55 139 Q211 299 267 498 L78 498 L78 519 Z" /><glyph glyph-name="uni54C1" unicode="&#x54c1;" d="M240 752 L756 752 L756 471 L240 471 L240 752 ZM734 493 L734 730 L262 730 L262 493 L734 493 ZM424 320 L424 -78 L402 -78 L402 -21 L134 -21 L134 -78 L112 -78 L112 320 L424 320 ZM134 1 L402 1 L402 298 L134 298 L134 1 ZM887 320 L887 -78 L865 -78 L865 -21 L588 -21 L588 -78 L566 -78 L566 320 L887 320 ZM588 1 L865 1 L865 298 L588 298 L588 1 Z" /><glyph glyph-name="uni5524" unicode="&#x5524;" d="M873 520 L873 242 L947 242 L947 220 L682 220 Q763 32 962 -74 L952 -94 Q738 24 659 220 L643 220 Q589 24 356 -95 L343 -77 Q567 37 621 220 L377 220 L377 242 L445 242 L445 520 L655 520 Q730 598 782 688 L542 688 Q471 584 355 505 L343 521 Q520 641 583 816 L605 814 Q583 755 556 710 L809 710 L809 691 Q743 586 682 520 L873 520 ZM467 242 L627 242 Q627 246 628 247 Q648 346 650 499 L467 499 L467 242 ZM852 242 L852 499 L672 499 Q671 338 648 242 L852 242 ZM310 705 L310 98 L123 98 L123 9 L102 9 L102 705 L310 705 ZM123 120 L288 120 L288 683 L123 683 L123 120 Z" /><glyph glyph-name="uni552E" unicode="&#x552e;" d="M828 168 L828 -97 L807 -97 L807 -34 L225 -34 L225 -97 L203 -97 L203 168 L828 168 ZM225 -12 L807 -12 L807 146 L225 146 L225 -12 ZM199 619 Q132 532 53 465 L47 486 Q215 636 284 813 L306 809 Q285 756 253 700 L563 700 Q541 756 508 809 L529 813 Q560 762 585 700 L896 700 L896 678 L566 678 L566 568 L852 568 L852 547 L566 547 L566 443 L854 443 L854 421 L566 421 L566 306 L907 306 L907 285 L199 285 L199 619 ZM239 678 L221 649 L221 568 L545 568 L545 678 L239 678 ZM545 306 L545 421 L221 421 L221 306 L545 306 ZM545 443 L545 547 L221 547 L221 443 L545 443 Z" /><glyph glyph-name="uni5546" unicode="&#x5546;" d="M335 249 L664 249 L664 40 L335 40 L335 249 ZM643 61 L643 227 L356 227 L356 61 L643 61 ZM576 452 Q705 358 792 261 L777 247 Q693 340 561 438 L576 452 ZM469 819 Q496 771 520 708 L936 708 L936 686 L709 686 Q673 591 630 525 L867 525 L867 -8 Q867 -89 801 -89 L700 -89 L694 -67 L793 -68 Q846 -68 846 -4 L846 504 L152 504 L152 -86 L131 -86 L131 525 L352 525 Q325 607 281 686 L64 686 L64 708 L499 708 Q477 762 446 815 L469 819 ZM608 525 Q650 594 685 686 L307 686 Q345 617 375 525 L608 525 ZM434 435 Q345 330 211 249 L198 266 Q325 343 417 450 L434 435 Z" /><glyph glyph-name="uni5668" unicode="&#x5668;&#xfa38;" d="M153 762 L424 762 L424 554 L153 554 L153 762 ZM402 576 L402 741 L175 741 L175 576 L402 576 ZM575 762 L846 762 L846 554 L575 554 L575 762 ZM824 576 L824 741 L597 741 L597 576 L824 576 ZM65 415 L408 415 Q446 468 466 517 L487 515 Q464 461 432 415 L769 415 Q739 471 708 507 L729 513 Q767 463 793 415 L935 415 L935 393 L622 393 Q724 264 959 192 L950 174 Q696 257 600 393 L415 393 Q296 248 52 173 L42 191 Q278 266 390 393 L65 393 L65 415 ZM437 195 L437 -95 L415 -95 L415 -43 L190 -43 L190 -95 L169 -95 L169 195 L437 195 ZM190 -22 L415 -22 L415 173 L190 173 L190 -22 ZM848 195 L848 -95 L826 -95 L826 -43 L586 -43 L586 -95 L564 -95 L564 195 L848 195 ZM586 -22 L826 -22 L826 173 L586 173 L586 -22 Z" /><glyph glyph-name="uni56DB" unicode="&#x56db;" d="M887 731 L887 -78 L865 -78 L865 -5 L135 -5 L135 -78 L113 -78 L113 731 L887 731 ZM135 16 L865 16 L865 228 L674 228 Q601 228 601 303 L601 710 L405 710 L405 476 Q401 270 220 174 L204 188 Q381 278 384 476 L384 710 L135 710 L135 16 ZM622 710 L622 304 Q622 250 675 250 L865 250 L865 710 L622 710 Z" /><glyph glyph-name="uni56DE" unicode="&#x56de;" d="M332 522 L668 522 L668 194 L332 194 L332 522 ZM646 215 L646 501 L354 501 L354 215 L646 215 ZM883 742 L883 -74 L861 -74 L861 -29 L139 -29 L139 -74 L117 -74 L117 742 L883 742 ZM139 -7 L861 -7 L861 720 L139 720 L139 -7 Z" /><glyph glyph-name="uni56E0" unicode="&#x56e0;" d="M215 489 L486 489 Q498 570 498 662 L520 662 Q520 571 509 489 L785 489 L785 467 L506 467 Q498 418 488 378 Q663 234 781 89 L766 74 Q660 208 482 358 Q479 352 479 348 Q418 176 222 71 L208 89 Q387 182 451 339 Q470 392 483 467 L215 467 L215 489 ZM882 748 L882 -91 L860 -91 L860 -33 L140 -33 L140 -91 L118 -91 L118 748 L882 748 ZM140 -11 L860 -11 L860 726 L140 726 L140 -11 Z" /><glyph glyph-name="uni56E2" unicode="&#x56e2;" d="M248 512 L601 512 L601 655 L622 655 L622 512 L764 512 L764 491 L622 491 L622 151 Q622 83 557 83 L446 83 L442 104 Q518 102 549 102 Q601 102 601 156 L601 491 L589 491 Q466 274 244 153 L233 171 Q447 285 568 491 L248 491 L248 512 ZM884 751 L884 -94 L862 -94 L862 -34 L138 -34 L138 -94 L116 -94 L116 751 L884 751 ZM138 -12 L862 -12 L862 729 L138 729 L138 -12 Z" /><glyph glyph-name="uni56FA" unicode="&#x56fa;" d="M219 532 L490 532 L490 666 L512 666 L512 532 L782 532 L782 510 L512 510 L512 361 L695 361 L695 112 L306 112 L306 361 L490 361 L490 510 L219 510 L219 532 ZM674 133 L674 339 L327 339 L327 133 L674 133 ZM883 750 L883 -93 L861 -93 L861 -37 L141 -37 L141 -93 L119 -93 L119 750 L883 750 ZM141 -16 L861 -16 L861 728 L141 728 L141 -16 Z" /><glyph glyph-name="uni5728" unicode="&#x5728;" d="M365 327 L617 327 L617 534 L639 534 L639 327 L892 327 L892 305 L639 305 L639 -36 L941 -36 L941 -58 L316 -58 L316 -36 L617 -36 L617 305 L365 305 L365 327 ZM225 370 Q152 284 56 205 L43 221 Q258 398 371 634 L77 634 L77 656 L381 656 Q414 729 439 812 L461 810 Q439 734 405 656 L937 656 L937 634 L395 634 Q336 510 247 397 L247 -96 L225 -96 L225 370 Z" /><glyph glyph-name="uni5730" unicode="&#x5730;" d="M896 615 Q896 329 886 259 Q877 198 806 198 L769 198 L763 219 L811 218 Q854 218 864 260 Q874 305 874 586 L685 526 L685 122 L663 122 L663 519 L485 463 L485 -3 Q485 -54 535 -54 L817 -54 Q863 -54 881 -33 Q904 -2 913 148 L934 142 Q926 -7 897 -47 Q874 -76 822 -76 L529 -76 Q464 -76 464 -8 L464 456 L370 427 L370 449 L464 478 L464 709 L485 709 L485 485 L663 541 L663 810 L685 810 L685 548 L896 615 ZM375 145 Q234 82 53 38 L48 58 Q129 77 196 98 L196 496 L60 496 L60 517 L196 517 L196 807 L218 807 L218 517 L348 517 L348 496 L218 496 L218 105 Q293 131 375 167 L375 145 Z" /><glyph glyph-name="uni573A" unicode="&#x573a;" d="M428 424 L428 446 Q634 570 809 717 L436 717 L436 739 L840 739 L840 717 Q668 568 467 446 L897 446 Q891 120 872 25 Q850 -77 751 -78 L656 -78 L650 -55 Q716 -57 747 -57 Q821 -54 845 12 Q866 80 875 424 L761 424 Q724 231 650 120 Q571 8 416 -80 L403 -65 Q553 22 628 124 Q706 237 739 424 L620 424 Q563 233 422 126 L408 142 Q547 249 598 424 L428 424 ZM58 516 L197 516 L197 792 L219 792 L219 516 L363 516 L363 495 L219 495 L219 85 Q299 109 372 136 L372 115 Q231 60 49 23 L44 44 Q117 58 197 79 L197 495 L58 495 L58 516 Z" /><glyph glyph-name="uni5740" unicode="&#x5740;" d="M688 815 L710 815 L710 477 L923 477 L923 456 L710 456 L710 -21 L948 -21 L948 -42 L332 -42 L332 -21 L463 -21 L463 603 L484 603 L484 -21 L688 -21 L688 815 ZM375 137 Q216 78 41 43 L36 64 Q117 79 192 100 L192 516 L48 516 L48 538 L192 538 L192 807 L214 807 L214 538 L356 538 L356 516 L214 516 L214 106 Q309 133 375 159 L375 137 Z" /><glyph glyph-name="uni5747" unicode="&#x5747;" d="M769 222 Q637 146 439 87 L431 107 Q627 163 763 243 L769 222 ZM535 484 Q627 411 693 329 L678 314 Q619 388 520 470 L535 484 ZM565 810 Q546 723 515 643 L902 643 Q902 150 879 38 Q860 -82 724 -82 L617 -81 L612 -61 L721 -62 Q833 -62 854 23 Q881 133 881 622 L506 622 Q454 505 374 415 L361 432 Q496 588 544 812 L565 810 ZM54 527 L183 527 L183 807 L204 807 L204 527 L326 527 L326 505 L204 505 L204 101 Q292 127 367 159 L367 137 Q222 77 55 42 L49 63 Q131 81 183 95 L183 505 L54 505 L54 527 Z" /><glyph glyph-name="uni578B" unicode="&#x578b;" d="M102 751 L554 751 L554 729 L438 729 L438 536 L575 536 L575 514 L438 514 L438 278 L416 278 L416 514 L240 514 Q228 345 118 265 L103 279 Q209 356 219 514 L76 514 L76 536 L221 536 L222 542 L222 729 L102 729 L102 751 ZM243 729 L243 542 L242 536 L416 536 L416 729 L243 729 ZM668 742 L689 742 L689 397 L668 397 L668 742 ZM124 150 L493 150 L493 267 L515 267 L515 150 L877 150 L877 129 L515 129 L515 -39 L933 -39 L933 -61 L67 -61 L67 -39 L493 -39 L493 129 L124 129 L124 150 ZM679 275 L675 296 Q765 294 805 294 Q849 294 849 330 L849 798 L870 798 L870 324 Q870 275 812 275 L679 275 Z" /><glyph glyph-name="uni57CB" unicode="&#x57cb;" d="M64 536 L199 536 L199 806 L221 806 L221 536 L354 536 L354 514 L221 514 L221 106 Q299 131 354 155 L354 133 Q219 78 60 43 L55 63 Q130 78 199 99 L199 514 L64 514 L64 536 ZM439 759 L866 759 L866 340 L664 340 L664 175 L900 175 L900 154 L664 154 L664 -31 L940 -31 L940 -52 L350 -52 L350 -31 L643 -31 L643 154 L406 154 L406 175 L643 175 L643 340 L439 340 L439 759 ZM845 362 L845 537 L664 537 L664 362 L845 362 ZM643 362 L643 537 L461 537 L461 362 L643 362 ZM461 558 L643 558 L643 738 L461 738 L461 558 ZM664 738 L664 558 L845 558 L845 738 L664 738 Z" /><glyph glyph-name="uni57DF" unicode="&#x57df;" d="M327 658 L699 658 Q697 708 697 812 L719 812 Q719 706 720 658 L871 658 Q844 724 809 781 L830 785 Q865 726 892 658 L948 658 L948 636 L720 636 Q726 320 753 159 Q838 307 881 521 L901 513 Q851 279 759 128 Q761 114 763 106 Q802 -68 858 -68 Q898 -62 933 102 L950 89 Q914 -89 858 -89 Q813 -89 778 -12 Q756 34 742 101 Q657 -23 545 -88 L532 -73 Q651 -3 736 130 Q727 178 721 232 Q702 398 699 636 L327 636 L327 658 ZM372 503 L602 503 L602 243 L372 243 L372 503 ZM580 263 L580 482 L394 482 L394 263 L580 263 ZM626 127 Q480 68 301 30 L296 50 Q470 85 626 148 L626 127 ZM62 527 L178 527 L178 812 L199 812 L199 527 L312 527 L312 505 L199 505 L199 139 Q261 165 314 194 L314 172 Q192 107 61 69 L56 90 Q116 107 178 131 L178 505 L62 505 L62 527 Z" /><glyph glyph-name="uni57FA" unicode="&#x57fa;" d="M86 721 L281 721 L281 812 L303 812 L303 721 L696 721 L696 812 L718 812 L718 721 L913 721 L913 700 L718 700 L718 329 L929 329 L929 307 L688 307 Q763 184 943 115 L935 96 Q738 177 665 307 L333 307 Q259 173 71 87 L60 105 Q236 182 310 307 L70 307 L70 329 L281 329 L281 700 L86 700 L86 721 ZM303 329 L696 329 L696 441 L303 441 L303 329 ZM303 463 L696 463 L696 569 L303 569 L303 463 ZM303 590 L696 590 L696 700 L303 700 L303 590 ZM489 251 L511 251 L511 150 L731 150 L731 129 L511 129 L511 -35 L871 -35 L871 -57 L122 -57 L122 -35 L489 -35 L489 129 L267 129 L267 150 L489 150 L489 251 Z" /><glyph glyph-name="uni586B" unicode="&#x586b;" d="M371 719 L634 719 Q642 781 645 812 L666 809 Q661 751 656 719 L922 719 L922 698 L653 698 L635 600 L854 600 L854 129 L955 129 L955 107 L336 107 L336 129 L440 129 L440 600 L613 600 Q623 647 631 698 L371 698 L371 719 ZM462 129 L832 129 L832 228 L462 228 L462 129 ZM462 249 L832 249 L832 343 L462 343 L462 249 ZM462 365 L832 365 L832 459 L462 459 L462 365 ZM462 480 L832 480 L832 579 L462 579 L462 480 ZM738 54 Q850 -2 937 -76 L923 -92 Q831 -18 723 41 L738 54 ZM572 45 Q480 -35 353 -91 L339 -74 Q466 -18 556 60 L572 45 ZM57 549 L186 549 L186 812 L207 812 L207 549 L327 549 L327 527 L207 527 L207 154 Q277 175 329 197 L329 175 Q207 126 58 93 L53 114 Q120 129 186 147 L186 527 L57 527 L57 549 Z" /><glyph glyph-name="uni5883" unicode="&#x5883;" d="M380 721 L635 721 Q621 772 602 816 L623 820 Q641 777 656 721 L909 721 L909 700 L794 700 Q780 628 745 555 L938 555 L938 534 L350 534 L350 555 L531 555 Q507 647 487 700 L380 700 L380 721 ZM723 555 Q760 624 773 700 L510 700 Q531 639 553 555 L723 555 ZM425 437 L855 437 L855 153 L719 153 L719 -16 Q719 -55 762 -55 L874 -55 Q901 -55 913 -41 Q927 -21 933 75 L952 68 Q946 -30 928 -57 Q912 -76 879 -76 L755 -76 Q697 -76 697 -20 L697 153 L573 153 Q557 54 495 -3 Q429 -61 292 -91 L283 -72 Q419 -42 480 11 Q538 63 553 153 L425 153 L425 437 ZM833 174 L833 286 L446 286 L446 174 L833 174 ZM446 307 L833 307 L833 416 L446 416 L446 307 ZM351 164 Q213 95 44 49 L39 70 Q102 86 174 111 L174 527 L51 527 L51 549 L174 549 L174 802 L195 802 L195 549 L306 549 L306 527 L195 527 L195 119 Q278 149 351 185 L351 164 Z" /><glyph glyph-name="uni5899" unicode="&#x5899;" d="M883 349 L883 -92 L861 -92 L861 -48 L431 -48 L431 -92 L409 -92 L409 349 L883 349 ZM431 -27 L861 -27 L861 328 L431 328 L431 -27 ZM544 232 L751 232 L751 69 L544 69 L544 232 ZM730 90 L730 212 L564 212 L564 90 L730 90 ZM373 725 L633 725 L633 814 L654 814 L654 725 L910 725 L910 704 L654 704 L654 474 L777 474 Q821 554 851 640 L870 634 Q840 546 799 474 L949 474 L949 453 L340 453 L340 474 L494 474 Q460 563 424 623 L443 630 Q488 550 516 474 L633 474 L633 704 L373 704 L373 725 ZM60 523 L169 523 L169 812 L190 812 L190 523 L297 523 L297 502 L190 502 L190 121 Q267 150 333 184 L333 163 Q205 96 53 54 L48 75 Q122 96 169 113 L169 502 L60 502 L60 523 Z" /><glyph glyph-name="uni2F20" unicode="&#x2f20;&#x58eb;" d="M62 470 L490 470 L490 811 L512 811 L512 470 L938 470 L938 449 L512 449 L512 -8 L900 -8 L900 -30 L102 -30 L102 -8 L490 -8 L490 449 L62 449 L62 470 Z" /><glyph glyph-name="uni5904" unicode="&#x5904;" d="M286 810 Q270 722 248 639 L481 639 L481 620 Q431 348 312 163 Q359 82 418 41 Q550 -49 828 -49 Q867 -49 949 -47 L945 -70 L838 -70 Q540 -70 404 27 Q346 69 300 146 Q209 11 74 -78 L62 -59 Q196 28 289 165 Q225 278 183 462 Q138 368 81 297 L66 313 Q212 498 265 814 L286 810 ZM197 493 Q236 301 301 183 Q412 360 460 618 L242 618 Q220 549 197 493 ZM665 805 L687 805 L687 550 Q817 454 947 328 L935 310 Q788 451 687 527 L687 51 L665 51 L665 805 Z" /><glyph glyph-name="uni5907" unicode="&#x5907;" d="M795 320 L795 -93 L773 -93 L773 -36 L229 -36 L229 -93 L207 -93 L207 320 L795 320 ZM229 -14 L489 -14 L489 130 L229 130 L229 -14 ZM511 -14 L773 -14 L773 130 L511 130 L511 -14 ZM229 152 L489 152 L489 298 L229 298 L229 152 ZM511 298 L511 152 L773 152 L773 298 L511 298 ZM415 817 Q387 772 348 725 L785 725 L785 707 Q681 577 524 489 Q700 403 948 369 L937 348 Q679 387 503 478 Q317 381 59 339 L49 357 Q299 396 482 489 Q358 557 275 649 Q208 586 116 530 L102 547 Q294 662 393 822 L415 817 ZM288 662 Q374 566 502 500 Q654 582 758 704 L330 704 Q309 682 288 662 Z" /><glyph glyph-name="uni591A" unicode="&#x591a;" d="M537 798 Q492 747 438 708 L772 708 L772 688 Q608 399 171 368 L160 388 Q318 398 440 442 Q381 517 320 569 L340 578 Q411 513 461 451 Q648 525 745 686 L405 686 Q288 614 124 578 L111 597 Q382 653 518 808 L537 798 ZM432 185 Q502 115 559 34 Q764 121 871 297 L534 297 Q395 227 206 203 L192 222 Q519 258 681 432 L700 421 Q646 363 574 319 L898 319 L898 300 Q689 -60 113 -71 L105 -49 Q358 -46 539 25 Q478 111 412 176 L432 185 Z" /><glyph glyph-name="uni591F" unicode="&#x591f;" d="M107 471 L315 471 L315 164 L107 164 L107 471 ZM295 185 L295 450 L129 450 L129 185 L295 185 ZM210 809 Q198 749 180 690 L440 690 Q440 193 426 70 Q412 -81 286 -81 L224 -80 L219 -60 Q271 -62 288 -62 Q389 -62 404 67 Q416 179 419 669 L173 669 Q132 554 62 463 L48 481 Q152 617 188 811 L210 809 ZM799 421 Q771 360 732 317 L939 317 L939 297 Q864 21 497 -93 L487 -75 Q648 -23 750 55 Q694 120 634 169 L651 180 Q710 132 765 67 Q880 164 917 296 L713 296 Q631 216 506 171 L494 189 Q701 262 780 430 L799 421 ZM722 812 Q702 763 667 713 L889 713 L889 693 Q814 462 509 362 L497 380 Q618 418 705 480 Q645 545 604 571 L619 584 Q681 544 721 492 Q825 572 866 692 L651 692 Q592 624 511 573 L498 590 Q646 683 700 814 L722 812 Z" /><glyph glyph-name="uni2F24" unicode="&#x2f24;&#x5927;" d="M68 530 L471 530 Q488 631 489 741 L489 808 L511 808 L511 745 Q511 634 494 530 L932 530 L932 508 L516 508 Q618 129 946 -71 L934 -87 Q600 117 495 508 L490 508 Q415 89 63 -91 L51 -74 Q395 97 468 508 L68 508 L68 530 Z" /><glyph glyph-name="uni5929" unicode="&#x5929;" d="M86 439 L464 439 Q489 569 495 720 L112 720 L112 742 L888 742 L888 720 L517 720 Q509 556 486 439 L917 439 L917 418 L522 418 Q624 97 943 -75 L931 -91 Q601 84 499 418 L482 418 Q454 289 406 206 Q304 31 66 -91 L53 -74 Q285 45 384 210 Q431 291 460 418 L86 418 L86 439 Z" /><glyph glyph-name="uni5934" unicode="&#x5934;" d="M78 321 L541 321 Q570 423 570 540 L570 803 L592 803 L592 540 Q592 424 564 321 L928 321 L928 299 L557 299 Q527 206 470 134 Q352 -6 78 -89 L65 -71 Q336 7 461 155 Q508 218 534 299 L78 299 L78 321 ZM633 185 Q815 56 934 -72 L919 -86 Q808 34 619 171 L633 185 ZM123 587 Q255 527 367 438 L355 420 Q235 516 111 569 L123 587 ZM238 751 Q350 692 444 604 L433 587 Q328 681 227 733 L238 751 Z" /><glyph glyph-name="uni5957" unicode="&#x5957;" d="M729 541 L729 519 L297 519 L297 421 L779 421 L779 399 L297 399 L297 302 L779 302 L779 281 L297 281 L297 178 L922 178 L922 157 L376 157 Q298 5 227 -47 Q508 -34 772 3 Q733 63 690 112 L711 118 Q791 24 851 -85 L831 -94 Q809 -53 785 -17 Q496 -59 176 -71 L170 -48 Q253 -39 350 157 L76 157 L76 178 L275 178 L275 541 L729 541 ZM90 712 L438 712 Q472 757 494 811 L516 809 Q495 757 463 712 L909 712 L909 690 L598 690 Q701 557 946 482 L937 463 Q674 551 575 690 L447 690 Q323 535 65 457 L56 475 Q303 552 421 690 L90 690 L90 712 Z" /><glyph glyph-name="uni5982" unicode="&#x5982;" d="M887 703 L887 -49 L865 -49 L865 12 L594 12 L594 -49 L572 -49 L572 703 L887 703 ZM594 34 L865 34 L865 681 L594 681 L594 34 ZM266 807 Q247 702 227 608 L444 608 L444 590 Q422 338 316 158 Q426 74 490 10 L476 -5 Q411 57 305 140 Q219 4 83 -89 L69 -73 Q206 22 289 153 Q198 223 111 284 Q162 422 201 587 L61 587 L61 608 L206 608 Q222 681 244 809 L266 807 ZM299 171 Q402 347 423 587 L222 587 Q180 406 135 290 Q243 214 299 171 Z" /><glyph glyph-name="uni5A92" unicode="&#x5a92;" d="M209 812 Q192 686 178 602 L345 602 L345 585 Q327 338 250 167 Q316 105 372 42 L357 26 Q315 77 241 147 Q171 3 63 -92 L49 -76 Q159 19 226 162 Q158 225 89 283 Q128 431 153 581 L54 581 L54 602 L157 602 Q173 702 187 814 L209 812 ZM234 181 Q308 346 323 581 L175 581 Q145 405 110 289 Q192 219 234 181 ZM807 391 L807 524 L509 524 L509 391 L807 391 ZM509 546 L807 546 L807 681 L509 681 L509 546 ZM509 703 L807 703 L807 808 L828 808 L828 703 L924 703 L924 681 L828 681 L828 370 L668 370 L668 249 L945 249 L945 227 L710 227 Q777 84 956 -29 L942 -45 Q758 77 692 227 L668 227 L668 -89 L646 -89 L646 227 L625 227 Q552 60 368 -47 L357 -29 Q533 71 605 227 L370 227 L370 249 L646 249 L646 370 L487 370 L487 681 L387 681 L387 703 L487 703 L487 808 L509 808 L509 703 Z" /><glyph glyph-name="uni5B57" unicode="&#x5b57;" d="M912 693 L912 495 L890 495 L890 671 L110 671 L110 495 L88 495 L88 693 L505 693 Q484 759 460 810 L481 814 Q505 761 526 693 L912 693 ZM237 523 L758 523 L758 502 Q654 429 523 360 L523 254 L936 254 L936 232 L523 232 L523 -32 Q523 -89 463 -89 L341 -89 L335 -67 L454 -68 Q502 -68 502 -24 L502 232 L65 232 L65 254 L502 254 L502 373 Q666 456 722 502 L237 502 L237 523 Z" /><glyph glyph-name="uni5B58" unicode="&#x5b58;" d="M75 685 L367 685 Q392 748 409 809 L431 807 Q414 747 390 685 L928 685 L928 664 L382 664 Q330 541 246 425 L246 -96 L225 -96 L225 398 Q155 308 61 226 L48 243 Q256 424 358 664 L75 664 L75 685 ZM347 232 L655 232 L655 349 Q754 404 841 482 L426 482 L426 504 L873 504 L873 482 Q786 406 677 338 L677 232 L945 232 L945 211 L677 211 L677 -34 Q677 -91 617 -91 L490 -91 L484 -70 L608 -71 Q655 -71 655 -26 L655 211 L347 211 L347 232 Z" /><glyph glyph-name="uni5B66" unicode="&#x5b66;" d="M900 593 L900 408 L879 408 L879 572 L121 572 L121 408 L100 408 L100 593 L663 593 Q741 694 796 818 L815 811 Q756 679 688 593 L900 593 ZM234 439 L768 439 L768 418 Q656 346 523 285 L523 199 L923 199 L923 177 L523 177 L523 -26 Q523 -89 458 -89 L336 -89 L331 -67 L450 -68 Q502 -68 502 -18 L502 177 L75 177 L75 199 L502 199 L502 297 Q667 374 732 418 L234 418 L234 439 ZM189 803 Q248 729 300 639 L280 630 Q228 721 170 794 L189 803 ZM438 819 Q489 741 533 650 L514 640 Q470 734 418 809 L438 819 Z" /><glyph glyph-name="uni5B87" unicode="&#x5b87;" d="M225 507 L780 507 L780 486 L526 486 L526 281 L927 281 L927 259 L526 259 L526 -20 Q526 -84 460 -84 L300 -84 L296 -63 Q404 -65 452 -65 Q505 -65 505 -15 L505 259 L75 259 L75 281 L505 281 L505 486 L225 486 L225 507 ZM887 714 L887 525 L865 525 L865 692 L135 692 L135 523 L113 523 L113 714 L509 714 Q492 764 463 821 L484 825 Q508 780 530 714 L887 714 Z" /><glyph glyph-name="uni5B88" unicode="&#x5b88;" d="M77 398 L668 398 L668 577 L689 577 L689 398 L922 398 L922 377 L689 377 L689 -25 Q689 -91 622 -91 L479 -91 L475 -70 Q571 -72 614 -72 Q668 -72 668 -19 L668 377 L77 377 L77 398 ZM241 281 Q368 182 447 90 L432 76 Q348 171 227 266 L241 281 ZM884 698 L884 511 L862 511 L862 676 L137 676 L137 512 L115 512 L115 698 L505 698 Q480 762 444 821 L466 825 Q498 771 527 698 L884 698 Z" /><glyph glyph-name="uni5B89" unicode="&#x5b89;" d="M889 698 L889 508 L867 508 L867 676 L132 676 L132 509 L110 509 L110 698 L502 698 Q481 754 450 813 L472 817 Q498 766 523 698 L889 698 ZM67 417 L353 417 Q407 509 452 597 L473 591 Q432 514 378 417 L935 417 L935 395 L727 395 Q663 214 563 111 Q730 35 900 -64 L887 -81 Q721 17 546 94 L539 87 Q379 -59 94 -70 L81 -49 Q343 -46 513 91 Q523 99 527 103 Q376 170 229 217 Q284 300 340 395 L67 395 L67 417 ZM365 395 Q306 296 262 229 Q403 184 544 120 Q644 222 706 395 L365 395 Z" /><glyph glyph-name="uni5B8C" unicode="&#x5b8c;" d="M909 685 L909 487 L887 487 L887 664 L111 664 L111 487 L89 487 L89 685 L498 685 Q478 750 451 805 L473 809 Q500 750 519 685 L909 685 ZM225 503 L771 503 L771 481 L225 481 L225 503 ZM72 312 L929 312 L929 291 L625 291 L625 -7 Q625 -53 678 -53 L827 -53 Q871 -53 888 -34 Q910 -8 919 124 L939 117 Q932 -14 904 -49 Q883 -75 831 -75 L671 -75 Q603 -75 603 -12 L603 291 L397 291 L397 273 Q397 127 320 36 Q245 -47 70 -95 L58 -77 Q228 -32 307 53 Q374 137 376 273 L376 291 L72 291 L72 312 Z" /><glyph glyph-name="uni5B9A" unicode="&#x5b9a;" d="M214 497 L788 497 L788 475 L516 475 L516 244 L836 244 L836 222 L516 222 L516 -33 Q621 -50 779 -52 Q829 -52 941 -50 L938 -72 L789 -72 Q513 -72 392 -19 Q281 35 221 159 Q163 8 69 -93 L55 -77 Q205 88 259 372 L280 368 Q259 264 231 184 Q308 27 421 -10 Q450 -19 494 -29 L494 475 L214 475 L214 497 ZM888 693 L888 508 L866 508 L866 671 L134 671 L134 504 L112 504 L112 693 L508 693 Q485 753 450 815 L472 819 Q502 765 529 693 L888 693 Z" /><glyph glyph-name="uni5B9E" unicode="&#x5b9e;" d="M886 690 L886 520 L864 520 L864 669 L136 669 L136 515 L114 515 L114 690 L504 690 Q482 761 453 817 L475 821 Q500 768 525 690 L886 690 ZM197 437 Q317 388 412 322 L400 303 Q294 378 186 420 L197 437 ZM263 593 Q376 547 470 479 L458 461 Q358 533 251 576 L263 593 ZM603 588 L625 588 L625 504 Q625 347 573 231 L928 231 L928 210 L563 210 Q539 164 511 130 Q737 43 923 -78 L911 -96 Q709 36 497 114 Q375 -14 115 -89 L103 -71 Q371 3 495 142 Q523 181 539 210 L69 210 L69 231 L549 231 Q603 348 603 504 L603 588 Z" /><glyph glyph-name="uni5BA2" unicode="&#x5ba2;" d="M776 192 L776 -96 L755 -96 L755 -44 L265 -44 L265 -96 L243 -96 L243 192 L776 192 ZM265 -23 L755 -23 L755 171 L265 171 L265 -23 ZM422 649 Q391 598 356 557 L750 557 L750 537 Q669 436 534 362 Q722 271 956 247 L951 226 Q706 251 513 351 Q332 258 58 204 L50 225 Q319 275 493 361 Q387 419 299 496 Q238 440 157 388 L143 405 Q314 510 401 654 L422 649 ZM514 372 Q647 444 722 536 L338 536 L313 510 Q405 429 514 372 ZM887 717 L887 557 L865 557 L865 696 L135 696 L135 557 L113 557 L113 717 L498 717 Q479 766 452 813 L474 817 Q499 772 519 717 L887 717 Z" /><glyph glyph-name="uni5BB6" unicode="&#x5bb6;" d="M668 315 Q611 295 566 283 Q595 208 598 113 Q598 1 569 -46 Q540 -92 424 -92 L386 -92 L379 -74 L421 -74 Q519 -71 546 -41 Q576 -2 576 113 Q573 171 565 209 Q393 61 94 -30 L83 -10 Q397 85 559 233 Q542 294 513 342 Q369 221 105 144 L95 164 Q362 239 502 361 Q474 405 437 442 L388 417 Q272 366 123 327 L110 344 Q267 383 373 431 Q467 475 534 522 L196 522 L196 544 L806 544 L806 522 L565 522 Q505 479 454 451 Q521 386 558 302 Q714 341 853 436 L869 421 Q782 360 687 323 Q761 104 931 -19 L916 -36 Q738 100 668 315 ZM489 817 Q514 759 529 705 L908 705 L908 557 L887 557 L887 683 L113 683 L113 557 L91 557 L91 705 L508 705 Q492 758 468 813 L489 817 Z" /><glyph glyph-name="uni5BB9" unicode="&#x5bb9;" d="M484 814 Q507 769 526 712 L885 712 L885 562 L863 562 L863 690 L137 690 L137 556 L115 556 L115 712 L505 712 Q485 768 463 810 L484 814 ZM513 495 Q637 333 934 211 L921 192 Q640 306 502 474 Q331 290 75 190 L62 209 Q342 320 491 495 L513 495 ZM774 210 L774 -94 L753 -94 L753 -40 L258 -40 L258 -94 L236 -94 L236 210 L774 210 ZM258 -19 L753 -19 L753 188 L258 188 L258 -19 ZM600 613 Q779 520 903 425 L888 410 Q771 501 584 599 L600 613 ZM413 601 Q283 490 100 411 L86 428 Q273 511 396 616 L413 601 Z" /><glyph glyph-name="uni5BC6" unicode="&#x5bc6;" d="M905 716 L905 538 L884 538 L884 695 L116 695 L116 538 L95 538 L95 716 L501 716 Q479 774 461 807 L482 811 Q507 761 522 716 L905 716 ZM492 205 L514 205 L514 -18 L825 -18 L825 174 L847 174 L847 -94 L825 -94 L825 -39 L190 -39 L190 -93 L168 -93 L168 173 L190 173 L190 -18 L492 -18 L492 205 ZM419 650 Q500 578 546 519 L529 506 Q479 571 402 639 L419 650 ZM741 605 Q595 421 356 305 Q358 263 408 263 L629 263 Q675 263 693 278 Q718 301 727 411 L747 405 Q739 294 710 263 Q686 242 633 242 L401 242 Q338 242 335 296 Q213 238 66 197 L58 216 Q210 259 335 318 L335 540 L356 540 L356 328 Q582 442 724 618 L741 605 ZM779 516 Q886 393 940 300 L923 289 Q857 395 762 505 L779 516 ZM255 568 Q213 434 138 338 L119 349 Q194 445 233 572 L255 568 Z" /><glyph glyph-name="uni5BDF" unicode="&#x5bdf;" d="M153 198 L833 198 L833 176 L508 176 L508 -41 Q508 -93 457 -93 L353 -93 L349 -72 Q417 -74 449 -74 Q486 -74 486 -36 L486 176 L153 176 L153 198 ZM227 524 Q190 491 149 464 Q208 400 249 337 Q295 372 336 414 Q293 466 227 524 ZM349 429 Q404 491 443 565 L271 565 Q252 546 242 537 Q308 482 349 429 ZM470 587 L470 569 Q339 313 65 220 L55 239 Q153 272 232 325 Q193 386 134 454 Q102 433 81 421 L67 437 Q242 535 328 669 L349 664 Q328 632 291 587 L470 587 ZM638 103 Q785 33 909 -68 L897 -85 Q766 23 626 86 L638 103 ZM342 106 Q289 42 236 1 Q172 -48 88 -84 L75 -68 Q161 -32 221 14 Q279 60 324 117 L342 106 ZM589 568 Q622 485 676 422 Q743 487 796 568 L589 568 ZM691 406 Q787 304 937 247 L926 227 Q618 345 541 647 L561 653 Q568 623 581 590 L821 590 L821 571 Q765 479 691 406 ZM885 725 L885 562 L863 562 L863 704 L143 704 L143 565 L121 565 L121 725 L509 725 Q484 779 458 816 L480 820 Q505 781 530 725 L885 725 ZM331 346 L691 346 L691 325 L331 325 L331 346 Z" /><glyph glyph-name="uni5BF9" unicode="&#x5bf9;" d="M481 602 L789 602 L789 812 L811 812 L811 602 L940 602 L940 581 L811 581 L811 -20 Q811 -90 744 -90 L575 -90 L571 -69 Q687 -71 736 -71 Q789 -71 789 -14 L789 581 L481 581 L481 602 ZM97 550 Q206 434 296 315 Q367 477 385 673 L93 673 L93 695 L407 695 L407 678 Q389 461 311 295 Q387 192 445 97 L431 83 Q368 184 301 274 Q215 102 63 -21 L50 -1 Q203 123 286 294 Q195 414 82 537 L97 550 ZM505 426 Q612 298 671 197 L653 185 Q583 301 488 415 L505 426 Z" /><glyph glyph-name="uni5C01" unicode="&#x5c01;" d="M85 656 L273 656 L273 799 L295 799 L295 656 L481 656 L481 634 L295 634 L295 457 L499 457 L499 435 L62 435 L62 457 L273 457 L273 634 L85 634 L85 656 ZM78 232 L273 232 L273 374 L295 374 L295 232 L486 232 L486 211 L295 211 L295 -17 Q405 0 515 24 L515 3 Q316 -42 62 -69 L60 -47 Q196 -32 273 -21 L273 211 L78 211 L78 232 ZM523 591 L814 591 L814 812 L836 812 L836 591 L941 591 L941 570 L836 570 L836 -13 Q836 -84 764 -84 L630 -84 L626 -63 Q716 -65 756 -65 Q814 -65 814 -8 L814 570 L523 570 L523 591 ZM584 427 Q655 318 709 188 L690 178 Q634 312 563 420 L584 427 Z" /><glyph glyph-name="uni5C06" unicode="&#x5c06;" d="M392 308 L790 308 L790 426 L812 426 L812 308 L951 308 L951 287 L812 287 L812 -22 Q812 -90 740 -90 L607 -90 L604 -69 Q692 -71 732 -71 Q790 -71 790 -17 L790 287 L392 287 L392 308 ZM277 810 L299 810 L299 -92 L277 -92 L277 287 Q160 178 60 117 L50 137 Q142 192 277 312 L277 810 ZM490 212 Q579 113 628 36 L611 23 Q558 107 473 201 L490 212 ZM570 700 Q498 610 386 552 L372 568 Q549 658 610 810 L632 806 Q610 757 585 721 L901 721 L901 702 Q797 475 432 381 L420 400 Q563 437 660 489 Q596 551 535 592 L552 604 Q627 550 679 500 Q819 581 877 700 L570 700 ZM68 687 Q149 591 211 477 L192 468 Q126 590 50 679 L68 687 Z" /><glyph glyph-name="uni2F29" unicode="&#x2f29;&#x5c0f;" d="M296 -82 L292 -61 Q392 -63 437 -63 Q506 -63 506 9 L506 795 L527 795 L527 5 Q527 -82 444 -82 L296 -82 ZM267 555 Q189 257 63 102 L46 117 Q176 279 247 563 L267 555 ZM739 584 Q880 307 955 97 L937 85 Q858 307 721 573 L739 584 Z" /><glyph glyph-name="uni5C11" unicode="&#x5c11;" d="M305 677 Q222 445 90 325 L73 340 Q210 465 285 685 L305 677 ZM797 376 Q621 14 96 -91 L84 -73 Q607 30 778 387 L797 376 ZM489 807 L511 807 L511 215 L489 215 L489 807 ZM668 703 Q827 545 951 352 L933 342 Q805 539 647 695 L668 703 Z" /><glyph glyph-name="uni5C16" unicode="&#x5c16;" d="M513 378 Q504 307 488 254 L932 254 L932 232 L514 232 Q644 8 949 -72 L938 -89 Q627 -8 492 232 L481 232 Q447 134 386 67 Q280 -39 60 -96 L52 -76 Q272 -21 371 83 Q428 143 458 232 L69 232 L69 254 L465 254 Q484 313 491 378 L513 378 ZM314 716 Q234 537 106 445 L90 460 Q224 558 295 723 L314 716 ZM689 738 Q829 578 903 458 L886 444 Q808 573 672 727 L689 738 ZM490 798 L512 798 L512 426 L490 426 L490 798 Z" /><glyph glyph-name="uni5C3D" unicode="&#x5c3d;" d="M357 379 Q518 308 652 208 L641 189 Q495 298 346 361 L357 379 ZM270 141 Q522 53 729 -75 L718 -92 Q494 45 258 125 L270 141 ZM204 510 L204 446 Q202 175 59 -19 L43 -5 Q180 169 183 446 L183 754 L840 754 L840 510 L685 510 Q734 212 957 49 L945 32 Q716 200 663 510 L204 510 ZM818 731 L204 731 L204 532 L818 532 L818 731 Z" /><glyph glyph-name="uni5C42" unicode="&#x5c42;" d="M330 413 L861 413 L861 391 L330 391 L330 413 ZM261 249 L925 249 L925 227 L531 227 Q414 29 333 -34 Q574 -19 824 16 Q762 91 703 152 L721 163 Q851 27 922 -78 L904 -91 Q875 -47 840 -3 Q587 -37 303 -56 L297 -34 L302 -32 Q382 16 510 227 L261 227 L261 249 ZM837 733 L196 733 L196 572 L837 572 L837 733 ZM196 550 L196 446 Q195 137 70 -85 L55 -72 Q173 129 175 446 L175 756 L858 756 L858 550 L196 550 Z" /><glyph glyph-name="uni5C4F" unicode="&#x5c4f;" d="M716 354 L485 354 L485 296 Q485 229 476 175 L716 175 L716 354 ZM716 154 L472 154 Q460 91 434 43 Q382 -45 268 -97 L255 -77 Q365 -32 418 60 Q437 99 450 154 L242 154 L242 175 L454 175 Q464 238 464 296 L464 354 L280 354 L280 376 L474 376 Q437 443 396 497 L416 506 Q465 438 498 376 L677 376 Q728 437 769 514 L788 508 Q748 430 699 376 L899 376 L899 354 L737 354 L737 175 L941 175 L941 154 L737 154 L737 -86 L716 -86 L716 154 ZM853 741 L200 741 L200 587 L853 587 L853 741 ZM200 565 L200 449 Q199 136 83 -88 L65 -74 Q178 130 179 449 L179 763 L874 763 L874 565 L200 565 Z" /><glyph glyph-name="uni5C55" unicode="&#x5c55;" d="M262 416 L425 416 L425 530 L446 530 L446 416 L696 416 L696 534 L718 534 L718 416 L890 416 L890 394 L718 394 L718 247 L920 247 L920 225 L562 225 Q610 127 683 60 Q774 99 853 189 L869 174 Q794 88 700 45 Q804 -41 952 -74 L941 -93 Q651 -24 540 225 L376 225 L376 -57 Q490 -28 571 9 L575 -12 Q480 -53 346 -87 L339 -67 Q354 -61 354 -47 L354 225 L172 225 Q142 46 60 -94 L44 -80 Q165 113 166 418 L166 760 L858 760 L858 562 L188 562 L188 418 Q188 328 176 247 L425 247 L425 394 L262 394 L262 416 ZM446 247 L696 247 L696 394 L446 394 L446 247 ZM837 738 L188 738 L188 584 L837 584 L837 738 Z" /><glyph glyph-name="uni5C5E" unicode="&#x5c5e;" d="M327 418 L565 418 L565 500 Q435 494 281 494 L273 514 Q631 515 854 546 L864 526 Q751 510 587 501 L587 418 L829 418 L829 268 L587 268 L587 181 L899 181 L899 -29 Q899 -92 843 -92 L735 -92 L729 -71 L835 -72 Q878 -72 878 -25 L878 160 L587 160 L587 30 Q670 40 729 48 Q709 95 689 130 L710 135 Q752 57 781 -27 L762 -36 Q757 -21 737 29 Q601 11 396 -6 L392 14 Q463 19 565 28 L565 160 L299 160 L299 -93 L277 -93 L277 181 L565 181 L565 268 L327 268 L327 418 ZM808 289 L808 396 L587 396 L587 289 L808 289 ZM565 289 L565 396 L349 396 L349 289 L565 289 ZM854 740 L191 740 L191 627 L854 627 L854 740 ZM191 605 L191 486 Q190 155 74 -84 L58 -71 Q168 144 170 486 L170 762 L876 762 L876 605 L191 605 Z" /><glyph glyph-name="uni5CF0" unicode="&#x5cf0;" d="M87 687 L108 687 L108 54 Q178 62 213 68 L213 809 L234 809 L234 72 Q304 84 338 91 L338 687 L359 687 L359 7 L338 7 L338 69 Q231 48 83 32 L73 51 Q87 53 87 56 L87 687 ZM447 339 L667 339 L667 430 L689 430 L689 339 L904 339 L904 317 L689 317 L689 193 L882 193 L882 171 L689 171 L689 49 L938 49 L938 28 L689 28 L689 -92 L667 -92 L667 28 L423 28 L423 49 L667 49 L667 171 L466 171 L466 193 L667 193 L667 317 L447 317 L447 339 ZM631 808 Q605 757 578 721 L857 721 L857 703 Q804 595 688 520 Q794 464 949 434 L942 415 Q777 445 666 506 Q559 445 398 405 L388 423 Q539 459 646 518 Q559 572 514 646 Q480 612 436 579 L422 595 Q546 685 610 813 L631 808 ZM668 531 Q780 599 832 700 L562 700 Q544 677 528 661 Q574 586 668 531 Z" /><glyph glyph-name="uni2F2F" unicode="&#x2f2f;&#x5de5;" d="M493 703 L126 703 L126 724 L883 724 L883 703 L515 703 L515 -13 L926 -13 L926 -35 L73 -35 L73 -13 L493 -13 L493 703 Z" /><glyph glyph-name="uni2F30" unicode="&#x2f30;&#x5df1;" d="M929 191 Q921 30 895 -14 Q868 -61 801 -61 L254 -61 Q163 -61 163 25 L163 408 L791 408 L791 721 L94 721 L94 743 L813 743 L813 386 L185 386 L185 26 Q185 -39 255 -39 L797 -39 Q859 -39 882 8 Q901 51 908 198 L929 191 Z" /><glyph glyph-name="uni5DF2" unicode="&#x5df2;" d="M812 386 L185 386 L185 35 Q185 -39 261 -39 L794 -39 Q842 -39 863 -21 Q902 18 909 199 L930 192 Q921 18 884 -31 Q856 -61 799 -61 L254 -61 Q163 -61 163 31 L163 570 L185 570 L185 408 L790 408 L790 721 L94 721 L94 743 L812 743 L812 386 Z" /><glyph glyph-name="uni5E02" unicode="&#x5e02;" d="M64 678 L501 678 Q473 759 438 819 L460 823 Q495 756 522 678 L936 678 L936 657 L511 657 L511 478 L837 478 L837 132 Q837 54 767 54 L670 54 L664 77 L760 76 Q815 76 815 137 L815 457 L511 457 L511 -89 L489 -89 L489 457 L197 457 L197 48 L176 48 L176 478 L489 478 L489 657 L64 657 L64 678 Z" /><glyph glyph-name="uni5E03" unicode="&#x5e03;" d="M550 553 L571 553 L571 417 L865 417 L865 89 Q865 16 794 16 L693 16 L687 39 L786 38 Q844 38 844 93 L844 395 L571 395 L571 -93 L550 -93 L550 395 L278 395 L278 12 L257 12 L257 417 L550 417 L550 553 ZM477 810 Q450 728 416 661 L933 661 L933 639 L405 639 Q284 408 58 242 L45 258 Q266 423 381 639 L77 639 L77 661 L392 661 Q430 737 455 812 L477 810 Z" /><glyph glyph-name="uni5E26" unicode="&#x5e26;" d="M62 680 L227 680 L227 799 L248 799 L248 680 L485 680 L485 803 L507 803 L507 680 L747 680 L747 799 L769 799 L769 680 L938 680 L938 659 L769 659 L769 530 L747 530 L747 659 L507 659 L507 526 L485 526 L485 659 L248 659 L248 530 L227 530 L227 659 L62 659 L62 680 ZM887 447 L887 269 L865 269 L865 425 L509 425 L509 270 L774 270 L774 36 Q774 -26 705 -26 L617 -26 L611 -3 L698 -4 Q753 -4 753 40 L753 249 L509 249 L509 -101 L487 -101 L487 249 L257 249 L257 -27 L235 -27 L235 270 L487 270 L487 425 L134 425 L134 269 L112 269 L112 447 L887 447 Z" /><glyph glyph-name="uni5E2E" unicode="&#x5e2e;" d="M115 600 L311 600 L311 713 L96 713 L96 735 L311 735 L311 808 L333 808 L333 735 L529 735 L529 713 L333 713 L333 600 L501 600 L501 579 L333 579 Q331 513 317 465 L527 465 L527 444 L310 444 Q297 409 277 380 Q223 305 98 263 L85 282 Q206 321 263 396 Q278 420 287 444 L67 444 L67 465 L294 465 Q310 519 311 579 L115 579 L115 600 ZM498 324 L520 324 L520 215 L843 215 L843 25 Q843 -38 777 -38 L692 -38 L686 -16 L770 -17 Q821 -17 821 29 L821 194 L520 194 L520 -100 L498 -100 L498 194 L200 194 L200 -39 L179 -39 L179 215 L498 215 L498 324 ZM611 755 L894 755 L894 739 Q858 656 803 575 Q894 499 894 442 Q893 377 820 359 Q784 350 725 350 L718 371 L734 370 Q873 370 873 442 Q873 485 780 575 Q832 650 871 733 L633 733 L633 307 L611 307 L611 755 Z" /><glyph glyph-name="uni5E73" unicode="&#x5e73;" d="M104 751 L898 751 L898 729 L507 729 L507 300 L936 300 L936 279 L507 279 L507 -93 L485 -93 L485 279 L64 279 L64 300 L485 300 L485 729 L104 729 L104 751 ZM187 628 Q249 519 301 391 L281 381 Q227 516 167 618 L187 628 ZM834 627 Q786 507 701 382 L682 392 Q765 515 813 636 L834 627 Z" /><glyph glyph-name="uni5E74" unicode="&#x5e74;" d="M237 659 Q175 549 80 476 L65 493 Q223 613 277 818 L299 814 Q278 742 248 681 L899 681 L899 659 L568 659 L568 449 L864 449 L864 427 L568 427 L568 163 L933 163 L933 141 L568 141 L568 -97 L547 -97 L547 141 L66 141 L66 163 L246 163 L246 449 L547 449 L547 659 L237 659 ZM268 163 L547 163 L547 427 L268 427 L268 163 Z" /><glyph glyph-name="uni5E76" unicode="&#x5e76;" d="M274 820 Q333 740 383 645 L363 635 Q310 737 255 810 L274 820 ZM663 583 L355 583 L355 475 Q355 378 343 300 L663 300 L663 583 ZM663 279 L340 279 Q323 181 289 109 Q226 -18 80 -92 L67 -73 Q209 -4 275 130 Q303 192 318 279 L62 279 L62 300 L321 300 Q333 381 333 475 L333 583 L103 583 L103 604 L612 604 Q681 701 730 820 L752 812 Q701 693 635 604 L900 604 L900 583 L685 583 L685 300 L939 300 L939 279 L685 279 L685 -89 L663 -89 L663 279 Z" /><glyph glyph-name="uni2F34" unicode="&#x2f34;&#x5e7f;" d="M494 830 Q531 771 563 690 L938 690 L938 669 L178 669 L178 418 Q172 90 65 -103 L50 -88 Q151 93 156 418 L156 690 L541 690 Q512 763 473 826 L494 830 Z" /><glyph glyph-name="uni5E93" unicode="&#x5e93;" d="M505 820 Q539 769 567 707 L938 707 L938 685 L178 685 L178 430 Q172 103 70 -95 L55 -80 Q152 104 156 430 L156 707 L546 707 Q517 767 483 816 L505 820 ZM514 624 Q492 558 474 513 L895 513 L895 492 L466 492 Q417 377 348 281 L608 281 L608 425 L630 425 L630 281 L870 281 L870 261 L630 261 L630 97 L947 97 L947 76 L630 76 L630 -94 L608 -94 L608 76 L223 76 L223 97 L608 97 L608 261 L322 261 L318 276 Q391 367 443 492 L260 492 L260 513 L451 513 Q476 575 492 628 L514 624 Z" /><glyph glyph-name="uni5E94" unicode="&#x5e94;" d="M230 -20 L655 -20 Q759 201 836 537 L856 532 Q787 219 679 -20 L922 -20 L922 -41 L230 -41 L230 -20 ZM305 489 Q368 324 415 117 L395 112 Q352 302 285 483 L305 489 ZM501 557 Q552 397 596 173 L575 169 Q540 362 481 551 L501 557 ZM494 820 Q533 767 562 703 L938 703 L938 681 L178 681 L178 428 Q172 101 65 -92 L50 -77 Q151 104 156 428 L156 703 L541 703 Q510 765 473 816 L494 820 Z" /><glyph glyph-name="uni5E97" unicode="&#x5e97;" d="M549 608 L570 608 L570 465 L926 465 L926 443 L570 443 L570 256 L837 256 L837 -92 L815 -92 L815 -30 L332 -30 L332 -92 L311 -92 L311 256 L549 256 L549 608 ZM332 -8 L815 -8 L815 234 L332 234 L332 -8 ZM507 815 Q538 760 563 695 L938 695 L938 673 L178 673 L178 430 Q172 107 67 -88 L52 -74 Q152 108 156 430 L156 695 L542 695 Q518 758 485 811 L507 815 Z" /><glyph glyph-name="uni5E9E" unicode="&#x5e9e;" d="M258 426 L461 426 Q469 516 469 601 L490 601 Q490 512 482 426 L916 426 L916 405 L634 405 L634 82 Q769 177 851 318 L870 307 Q777 152 634 56 L634 -9 Q634 -56 677 -56 L830 -56 Q871 -56 886 -39 Q906 -16 914 101 L935 95 Q929 -22 902 -55 Q881 -78 834 -78 L670 -78 Q612 -78 612 -13 L612 42 Q526 -10 424 -43 L412 -25 Q519 8 612 67 L612 405 L480 405 Q469 310 450 236 Q392 36 200 -87 L187 -70 Q359 40 423 223 Q447 304 459 405 L258 405 L258 426 ZM929 695 L929 673 L181 673 L181 430 Q175 104 63 -92 L48 -77 Q153 106 159 430 L159 695 L543 695 Q514 762 481 813 L503 817 Q534 768 564 695 L929 695 ZM666 597 Q756 547 823 483 L810 467 Q746 530 652 581 L666 597 Z" /><glyph glyph-name="uni5EA6" unicode="&#x5ea6;" d="M268 258 L839 258 L839 241 Q741 113 592 31 Q739 -43 947 -76 L937 -93 Q717 -57 571 20 Q419 -57 216 -92 L206 -74 Q403 -41 550 31 Q402 114 319 238 L268 238 L268 258 ZM341 238 Q426 118 570 42 Q714 118 812 238 L341 238 ZM230 535 L387 535 L387 644 L408 644 L408 535 L739 535 L739 644 L761 644 L761 535 L923 535 L923 513 L761 513 L761 355 L387 355 L387 513 L230 513 L230 535 ZM408 513 L408 377 L739 377 L739 513 L408 513 ZM531 812 Q554 769 573 715 L928 715 L928 693 L178 693 L178 387 Q172 89 69 -90 L53 -76 Q151 90 156 387 L156 715 L552 715 Q533 766 510 808 L531 812 Z" /><glyph glyph-name="uni5EFA" unicode="&#x5efa;" d="M853 423 L636 423 L636 305 L889 305 L889 284 L636 284 L636 156 L917 156 L917 135 L636 135 L636 -3 L614 -3 L614 135 L369 135 L369 156 L614 156 L614 284 L399 284 L399 305 L614 305 L614 423 L420 423 L420 445 L614 445 L614 563 L371 563 L371 585 L614 585 L614 706 L420 706 L420 727 L614 727 L614 812 L636 812 L636 727 L853 727 L853 585 L936 585 L936 563 L853 563 L853 423 ZM636 706 L636 585 L831 585 L831 706 L636 706 ZM636 563 L636 445 L831 445 L831 563 L636 563 ZM631 -46 Q786 -46 948 -43 L944 -65 L641 -65 Q383 -65 270 13 Q240 37 216 67 Q161 -19 81 -79 L68 -62 Q153 -1 203 84 Q141 169 102 311 L119 317 Q161 178 213 101 Q285 233 294 422 L100 422 L100 441 Q200 568 284 720 L89 720 L89 742 L311 742 L311 723 Q215 555 129 444 L315 444 L315 429 Q309 225 226 83 Q261 39 298 18 Q408 -43 631 -46 Z" /><glyph glyph-name="uni5F00" unicode="&#x5f00;" d="M122 736 L881 736 L881 714 L699 714 L699 395 L936 395 L936 374 L699 374 L699 -90 L677 -90 L677 374 L340 374 Q331 211 284 105 Q228 -18 100 -90 L87 -71 Q210 -3 270 125 Q309 227 318 374 L65 374 L65 395 L319 395 L320 426 L320 714 L122 714 L122 736 ZM342 714 L342 426 L341 395 L677 395 L677 714 L342 714 Z" /><glyph glyph-name="uni5F0A" unicode="&#x5f0a;" d="M51 178 L343 178 L344 291 L365 291 L364 178 L662 178 L662 292 L684 292 L684 178 L951 178 L951 157 L684 157 L684 -90 L662 -90 L662 157 L363 157 Q342 -36 120 -99 L108 -80 Q324 -21 342 157 L51 157 L51 178 ZM398 321 L393 342 L442 341 Q481 341 481 391 L481 636 L319 636 L319 325 L298 325 L298 636 L127 636 L127 322 L105 322 L105 658 L298 658 L298 819 L319 819 L319 658 L399 658 Q438 723 465 801 L486 795 Q455 716 420 658 L503 658 L503 386 Q503 321 449 321 L398 321 ZM655 675 L642 650 Q680 542 744 470 Q812 552 842 675 L655 675 ZM730 454 Q664 528 629 627 Q594 572 547 523 L534 540 Q644 653 685 819 L706 817 Q692 755 665 697 L919 697 L919 675 L864 675 Q831 542 758 456 Q831 381 937 348 L925 329 Q816 365 744 440 Q671 362 564 326 L554 343 Q660 379 730 454 ZM238 573 Q229 466 190 382 L170 389 Q209 470 218 575 L238 573 ZM372 579 Q404 508 429 419 L409 413 Q390 490 354 573 L372 579 ZM144 797 Q184 746 216 688 L196 678 Q163 738 124 788 L144 797 Z" /><glyph glyph-name="uni5F0F" unicode="&#x5f0f;" d="M69 614 L581 614 Q576 692 576 808 L598 808 Q598 690 603 614 L930 614 L930 592 L604 592 Q622 291 699 99 Q765 -63 830 -66 Q877 -54 916 129 L936 118 Q891 -84 831 -87 Q722 -84 632 235 Q594 383 582 592 L69 592 L69 614 ZM87 382 L497 382 L497 360 L303 360 L303 37 Q425 61 537 88 L537 66 Q331 15 78 -19 L72 2 Q186 16 281 33 L281 360 L87 360 L87 382 ZM746 798 Q808 731 852 665 L832 655 Q780 732 727 789 L746 798 Z" /><glyph glyph-name="uni5F15" unicode="&#x5f15;" d="M800 810 L821 810 L821 -94 L800 -94 L800 810 ZM165 512 L119 300 L518 300 Q518 67 499 -3 Q475 -86 329 -86 Q301 -86 237 -82 L232 -61 Q296 -65 327 -65 Q452 -65 476 -1 Q496 71 496 279 L95 279 L145 534 L485 534 L485 735 L112 735 L112 757 L507 757 L507 512 L165 512 Z" /><glyph glyph-name="uni5F39" unicode="&#x5f39;" d="M115 515 L95 310 L326 310 Q326 71 310 1 Q289 -84 159 -84 Q141 -84 101 -80 L96 -59 Q136 -63 156 -63 Q267 -63 286 3 Q305 79 305 289 L71 289 L95 537 L295 537 L295 734 L85 734 L85 756 L316 756 L316 515 L115 515 ZM431 636 L723 636 Q773 721 808 812 L829 805 Q793 710 744 636 L896 636 L896 264 L673 264 L673 138 L949 138 L949 117 L673 117 L673 -94 L651 -94 L651 117 L376 117 L376 138 L651 138 L651 264 L431 264 L431 636 ZM874 285 L874 439 L673 439 L673 285 L874 285 ZM651 285 L651 439 L451 439 L451 285 L651 285 ZM451 461 L651 461 L651 615 L451 615 L451 461 ZM673 615 L673 461 L874 461 L874 615 L673 615 ZM516 810 Q563 744 599 673 L579 664 Q539 745 495 804 L516 810 Z" /><glyph glyph-name="uni5F3A" unicode="&#x5f3a;" d="M435 427 L656 427 L656 541 L472 541 L472 757 L861 757 L861 541 L678 541 L678 427 L898 427 L898 186 L678 186 L678 -20 Q804 -3 871 8 Q844 75 814 132 L836 138 Q900 8 930 -85 L909 -92 Q891 -42 878 -11 Q676 -45 410 -70 L404 -49 Q566 -34 656 -23 L656 186 L435 186 L435 427 ZM877 208 L877 406 L678 406 L678 208 L877 208 ZM656 208 L656 406 L456 406 L456 208 L656 208 ZM132 511 L106 305 L332 305 Q332 65 317 -1 Q298 -85 178 -85 Q157 -85 109 -81 L104 -60 Q152 -64 176 -64 Q276 -64 294 1 Q311 74 311 284 L83 284 L111 533 L300 533 L300 734 L91 734 L91 756 L321 756 L321 511 L132 511 ZM840 562 L840 736 L493 736 L493 562 L840 562 Z" /><glyph glyph-name="uni5F52" unicode="&#x5f52;" d="M326 809 L348 809 L348 382 Q342 59 87 -91 L71 -77 Q322 67 326 382 L326 809 ZM104 722 L126 722 L126 234 L104 234 L104 722 ZM420 717 L891 717 L891 -74 L869 -74 L869 5 L394 5 L394 27 L869 27 L869 358 L441 358 L441 380 L869 380 L869 696 L420 696 L420 717 Z" /><glyph glyph-name="uni5F53" unicode="&#x5f53;" d="M131 469 L491 469 L491 801 L513 801 L513 469 L855 469 L855 -86 L834 -86 L834 -38 L118 -38 L118 -17 L834 -17 L834 212 L177 212 L177 233 L834 233 L834 448 L131 448 L131 469 ZM861 751 Q806 638 721 537 L702 547 Q790 654 842 759 L861 751 ZM165 746 Q260 630 306 549 L288 536 Q238 626 147 735 L165 746 Z" /><glyph glyph-name="uni5F62" unicode="&#x5f62;" d="M68 757 L555 757 L555 736 L439 736 L439 394 L569 394 L569 373 L439 373 L439 -87 L417 -87 L417 373 L212 373 Q203 55 62 -95 L46 -81 Q183 62 191 373 L51 373 L51 394 L191 394 L191 736 L68 736 L68 757 ZM213 736 L213 394 L417 394 L417 736 L213 736 ZM891 793 Q771 658 581 568 L570 589 Q753 671 877 807 L891 793 ZM931 513 Q813 372 623 279 L612 299 Q795 385 917 529 L931 513 ZM959 235 Q810 44 569 -82 L559 -61 Q791 57 945 252 L959 235 Z" /><glyph glyph-name="uni5F85" unicode="&#x5f85;" d="M304 806 Q218 628 51 506 L45 528 Q214 658 285 815 L304 806 ZM335 576 Q295 488 232 404 L232 -96 L211 -96 L211 377 Q146 298 60 231 L54 253 Q237 403 315 585 L335 576 ZM645 813 L666 813 L666 688 L908 688 L908 667 L666 667 L666 498 L949 498 L949 476 L369 476 L369 498 L645 498 L645 667 L404 667 L404 688 L645 688 L645 813 ZM372 309 L778 309 L778 398 L800 398 L800 309 L936 309 L936 288 L800 288 L800 -18 Q800 -84 731 -84 L585 -84 L581 -63 Q656 -66 724 -66 Q778 -66 778 -13 L778 288 L372 288 L372 309 ZM447 214 Q545 120 595 53 L577 41 Q523 116 430 203 L447 214 Z" /><glyph glyph-name="uni5FAE" unicode="&#x5fae;" d="M732 615 Q729 599 723 574 L713 534 Q747 327 799 190 Q866 369 869 615 L732 615 ZM789 164 Q733 307 701 489 Q668 378 625 298 L611 314 Q706 499 741 818 L763 814 Q751 720 736 636 L940 636 L940 615 L891 615 Q887 348 810 162 Q872 11 958 -69 L946 -88 Q858 -4 800 138 Q737 3 636 -86 L624 -69 Q730 25 789 164 ZM514 -4 Q525 3 528 17 L528 254 L378 254 L378 210 Q375 12 277 -85 L262 -72 Q354 23 356 210 L356 275 L550 275 L550 18 Q601 58 666 120 L671 100 Q602 26 523 -24 L514 -4 ZM451 810 L473 810 L473 570 L585 570 L585 758 L606 758 L606 548 L312 548 L312 758 L334 758 L334 570 L451 570 L451 810 ZM247 794 Q180 633 47 521 L41 543 Q172 659 228 802 L247 794 ZM254 527 Q225 456 193 402 L193 -97 L172 -97 L172 370 Q117 291 50 231 L44 253 Q178 381 234 535 L254 527 ZM305 418 L604 418 L604 396 L305 396 L305 418 Z" /><glyph glyph-name="uni2F3C" unicode="&#x2f3c;&#x5fc3;" d="M394 -60 Q317 -60 317 10 L317 601 L339 601 L339 14 Q339 -37 400 -37 L616 -37 Q666 -37 686 -9 Q712 34 721 227 L741 220 Q732 28 702 -23 Q677 -60 620 -60 L394 -60 ZM198 475 Q153 240 69 67 L51 79 Q135 250 177 479 L198 475 ZM761 519 Q874 336 956 129 L936 121 Q846 340 738 511 L761 519 ZM390 794 Q541 659 622 559 L603 547 Q518 656 371 783 L390 794 Z" /><glyph glyph-name="uni5FC5" unicode="&#x5fc5;" d="M361 802 Q486 706 568 607 L553 591 Q476 684 347 789 L361 802 ZM752 769 Q617 301 344 64 L344 19 Q344 -34 405 -34 L606 -34 Q660 -34 682 -6 Q711 36 721 227 L741 220 Q732 30 698 -20 Q673 -56 610 -56 L398 -56 Q322 -56 322 15 L322 45 Q226 -33 118 -83 L105 -65 Q224 -11 322 73 L322 601 L344 601 L344 92 Q609 327 732 778 L752 769 ZM205 497 Q158 272 69 100 L52 112 Q139 277 184 502 L205 497 ZM765 490 Q874 315 956 108 L936 99 Q850 315 744 484 L765 490 Z" /><glyph glyph-name="uni5FD7" unicode="&#x5fd7;" d="M489 813 L511 813 L511 664 L920 664 L920 642 L511 642 L511 437 L855 437 L855 416 L147 416 L147 437 L489 437 L489 642 L79 642 L79 664 L489 664 L489 813 ZM188 264 Q154 96 93 -28 L74 -15 Q136 106 166 268 L188 264 ZM797 295 Q878 159 938 4 L918 -5 Q853 164 776 289 L797 295 ZM390 -72 Q314 -72 314 5 L314 299 L336 299 L336 8 Q336 -50 397 -50 L627 -50 Q675 -50 693 -29 Q719 3 728 151 L748 145 Q741 -3 710 -43 Q687 -72 631 -72 L390 -72 ZM490 316 Q549 219 592 111 L572 102 Q524 222 470 310 L490 316 Z" /><glyph glyph-name="uni6001" unicode="&#x6001;" d="M514 815 Q504 741 489 688 L896 688 L896 667 L542 667 Q620 467 947 359 L936 340 Q599 457 521 667 L482 667 Q450 575 388 504 Q375 489 360 476 Q434 427 525 338 L510 323 Q419 411 343 463 Q245 386 59 338 L51 358 Q272 415 371 518 Q427 578 459 667 L95 667 L95 688 L466 688 Q482 742 492 817 L514 815 ZM189 225 Q152 72 85 -42 L66 -31 Q133 80 168 229 L189 225 ZM498 260 Q554 177 592 85 L572 76 Q527 180 478 255 L498 260 ZM792 242 Q866 132 925 -2 L905 -11 Q846 127 771 236 L792 242 ZM396 -72 Q315 -72 315 -3 L315 231 L337 231 L337 1 Q337 -50 402 -50 L629 -50 Q673 -50 688 -32 Q711 -5 720 125 L740 119 Q733 -11 705 -46 Q684 -72 633 -72 L396 -72 Z" /><glyph glyph-name="uni6027" unicode="&#x6027;" d="M113 622 Q108 471 74 336 L54 341 Q88 478 92 624 L113 622 ZM297 638 Q333 563 363 464 L343 459 Q319 544 278 632 L297 638 ZM208 807 L230 807 L230 -89 L208 -89 L208 807 ZM462 580 Q435 457 377 358 L360 373 Q455 539 464 757 L484 755 Q481 674 466 602 L664 602 L664 807 L687 807 L687 602 L924 602 L924 580 L687 580 L687 295 L900 295 L900 273 L687 273 L687 -36 L949 -36 L949 -58 L359 -58 L359 -36 L664 -36 L664 273 L421 273 L421 295 L664 295 L664 580 L462 580 Z" /><glyph glyph-name="uni603B" unicode="&#x603b;" d="M206 618 L577 618 Q647 709 697 818 L717 812 Q662 693 602 618 L794 618 L794 338 L206 338 L206 618 ZM772 360 L772 596 L228 596 L228 360 L772 360 ZM285 814 Q347 743 398 659 L379 649 Q326 736 266 805 L285 814 ZM186 224 Q146 68 71 -45 L54 -34 Q127 80 164 228 L186 224 ZM490 267 Q552 191 603 92 L583 84 Q533 183 470 261 L490 267 ZM807 243 Q882 128 939 -7 L920 -16 Q860 124 786 237 L807 243 ZM390 -80 Q316 -80 316 -5 L316 216 L338 216 L338 -1 Q338 -59 397 -59 L634 -59 Q680 -59 699 -40 Q724 -13 732 115 L753 109 Q746 -19 715 -56 Q691 -80 638 -80 L390 -80 Z" /><glyph glyph-name="uni606F" unicode="&#x606f;" d="M206 722 L422 722 Q450 766 462 811 L483 808 Q470 762 444 722 L802 722 L802 268 L206 268 L206 722 ZM780 290 L780 415 L228 415 L228 290 L780 290 ZM228 436 L780 436 L780 556 L228 556 L228 436 ZM228 578 L780 578 L780 701 L228 701 L228 578 ZM186 176 Q146 37 79 -59 L61 -47 Q129 48 164 180 L186 176 ZM349 -78 Q292 -78 292 -23 L292 190 L314 190 L314 -19 Q314 -57 355 -57 L607 -57 Q654 -57 671 -40 Q695 -13 704 105 L725 99 Q717 -23 688 -55 Q665 -78 611 -78 L349 -78 ZM454 219 Q547 137 601 71 L584 58 Q525 133 438 209 L454 219 ZM783 193 Q896 63 952 -31 L936 -43 Q872 61 767 182 L783 193 Z" /><glyph glyph-name="uni60A8" unicode="&#x60a8;" d="M501 267 L497 289 Q549 287 571 287 Q611 287 611 330 L611 598 L633 598 L633 325 Q633 267 579 267 L501 267 ZM196 616 Q137 537 68 475 L54 492 Q206 626 283 813 L304 808 Q269 724 218 648 L218 270 L196 270 L196 616 ZM528 809 Q505 754 474 703 L894 703 L894 688 Q872 610 839 541 L817 547 Q852 611 871 681 L460 681 Q403 597 327 530 L313 547 Q442 660 508 814 L528 809 ZM208 201 Q161 56 77 -49 L60 -37 Q143 65 187 205 L208 201 ZM383 -78 Q318 -78 318 -18 L318 225 L340 225 L340 -13 Q340 -57 390 -57 L641 -57 Q686 -57 702 -38 Q727 -10 734 112 L755 106 Q747 -20 718 -54 Q697 -78 645 -78 L383 -78 ZM787 225 Q892 91 945 -6 L928 -19 Q871 87 770 214 L787 225 ZM504 498 Q442 387 356 304 L339 316 Q426 400 484 506 L504 498 ZM763 507 Q841 420 901 312 L883 303 Q818 415 742 500 L763 507 ZM484 224 Q565 144 610 81 L593 68 Q548 134 468 214 L484 224 Z" /><glyph glyph-name="uni60C5" unicode="&#x60c5;" d="M479 208 L479 100 L843 100 L843 208 L479 208 ZM843 225 L843 338 L479 338 L479 225 L843 225 ZM479 83 L479 -91 L457 -91 L457 356 L864 356 L864 11 Q864 -87 800 -87 L725 -87 L721 -69 L793 -70 Q843 -70 843 15 L843 83 L479 83 ZM651 821 L674 821 L674 732 L924 732 L924 714 L674 714 L674 605 L891 605 L891 588 L674 588 L674 479 L952 479 L952 462 L370 462 L353 458 Q313 551 257 634 L272 639 Q323 568 367 469 L367 479 L651 479 L651 588 L431 588 L431 605 L651 605 L651 714 L396 714 L396 732 L651 732 L651 821 ZM126 623 Q118 477 56 346 L39 350 Q101 478 109 624 L126 623 ZM196 807 L218 807 L218 -89 L196 -89 L196 807 Z" /><glyph glyph-name="uni611F" unicode="&#x611f;" d="M240 562 L565 562 L565 541 L240 541 L240 562 ZM283 449 L533 449 L533 268 L283 268 L283 449 ZM512 290 L512 428 L305 428 L305 290 L512 290 ZM904 702 L904 680 L636 680 Q644 544 669 459 Q688 394 712 348 Q788 448 835 596 L855 587 Q800 423 724 327 Q740 300 757 280 Q809 228 852 228 Q884 228 920 372 L939 361 Q900 207 854 207 Q795 207 738 267 Q723 285 709 309 Q653 246 586 206 L574 224 Q642 263 697 328 Q666 385 647 451 Q622 541 614 680 L171 680 L171 538 Q167 337 78 214 L61 229 Q144 339 149 538 L149 702 L613 702 Q611 738 611 814 L633 814 Q633 737 635 702 L808 702 Q778 760 744 800 L766 804 Q802 756 830 702 L904 702 ZM204 189 Q161 47 82 -59 L63 -47 Q143 55 183 193 L204 189 ZM420 -78 Q329 -78 329 10 L329 195 L351 195 L351 15 Q351 -56 427 -56 L597 -56 Q657 -56 679 -41 Q709 -20 721 82 L741 75 Q732 -29 695 -58 Q667 -78 601 -78 L420 -78 ZM786 163 Q890 57 944 -22 L927 -35 Q870 47 769 151 L786 163 ZM479 195 Q558 115 598 55 L581 43 Q538 108 461 184 L479 195 Z" /><glyph glyph-name="uni6167" unicode="&#x6167;" d="M824 174 L142 174 L142 196 L803 196 L803 283 L198 283 L198 304 L803 304 L803 394 L154 394 L154 416 L288 416 L288 506 L88 506 L88 528 L288 528 L288 615 L125 615 L125 636 L288 636 L288 723 L106 723 L106 745 L288 745 L288 816 L310 816 L310 745 L476 745 L476 723 L310 723 L310 636 L460 636 L460 615 L310 615 L310 528 L475 528 L475 506 L310 506 L310 416 L696 416 L696 506 L519 506 L519 528 L696 528 L696 615 L540 615 L540 636 L696 636 L696 723 L523 723 L523 745 L696 745 L696 816 L718 816 L718 745 L898 745 L898 723 L718 723 L718 636 L877 636 L877 615 L718 615 L718 528 L912 528 L912 506 L718 506 L718 416 L824 416 L824 174 ZM201 111 Q166 5 98 -78 L79 -66 Q146 13 180 115 L201 111 ZM371 -77 Q313 -77 313 -22 L313 107 L335 107 L335 -18 Q335 -56 378 -56 L640 -56 Q682 -56 697 -41 Q719 -20 727 80 L747 74 Q738 -29 713 -57 Q691 -77 644 -77 L371 -77 ZM479 149 Q560 83 602 34 L585 21 Q542 73 461 138 L479 149 ZM806 122 Q906 22 959 -50 L942 -63 Q886 18 788 111 L806 122 Z" /><glyph glyph-name="uni61C2" unicode="&#x61c2;" d="M349 733 L505 733 L505 808 L526 808 L526 733 L778 733 L778 809 L800 809 L800 733 L955 733 L955 712 L800 712 L800 654 L778 654 L778 712 L526 712 L526 637 L505 637 L505 712 L349 712 L349 733 ZM380 483 L642 483 L642 572 Q531 566 401 566 L395 587 Q712 589 904 623 L914 603 Q808 582 663 573 L663 483 L946 483 L946 462 L663 462 L663 377 L874 377 L874 147 L663 147 L663 61 L923 61 L923 41 L663 41 L663 -49 L953 -49 L953 -69 L338 -69 L338 -49 L642 -49 L642 41 L376 41 L376 61 L642 61 L642 147 L436 147 L436 377 L642 377 L642 462 L380 462 L380 483 ZM853 168 L853 252 L663 252 L663 168 L853 168 ZM642 168 L642 252 L457 252 L457 168 L642 168 ZM457 272 L642 272 L642 356 L457 356 L457 272 ZM663 356 L663 272 L853 272 L853 356 L663 356 ZM116 622 Q110 476 60 339 L41 344 Q89 476 95 624 L116 622 ZM289 643 Q330 532 362 381 L343 377 Q314 509 271 637 L289 643 ZM196 808 L218 808 L218 -90 L196 -90 L196 808 Z" /><glyph glyph-name="uni6210" unicode="&#x6210;" d="M721 804 Q799 746 855 684 L839 670 Q790 724 706 790 L721 804 ZM856 504 Q793 295 691 154 Q721 79 760 25 Q822 -57 864 -57 Q909 -54 936 116 L956 105 Q926 -78 870 -78 Q811 -78 741 13 Q704 65 676 134 Q562 -13 402 -84 L391 -66 Q555 8 667 156 Q644 214 627 283 Q596 418 585 619 L192 619 L192 410 L437 410 Q437 200 426 117 Q414 49 350 44 Q330 44 258 46 L251 66 Q327 64 348 64 Q396 67 405 129 Q415 214 415 388 L192 388 L192 309 Q187 56 83 -93 L66 -78 Q167 60 171 309 L171 640 L584 640 Q581 721 581 812 L603 812 Q603 721 606 640 L936 640 L936 619 L607 619 Q616 414 649 283 Q664 224 682 176 Q779 312 837 512 L856 504 Z" /><glyph glyph-name="uni6211" unicode="&#x6211;" d="M511 308 Q399 271 303 247 L303 -1 Q303 -80 233 -80 L125 -80 L121 -59 Q193 -61 226 -61 Q281 -61 281 5 L281 242 Q178 216 55 196 L52 217 Q178 237 281 263 L281 496 L56 496 L56 517 L281 517 L281 714 Q186 694 90 682 L86 704 Q307 729 475 793 L482 772 Q397 741 303 719 L303 517 L599 517 Q589 641 589 808 L610 808 Q610 637 620 517 L944 517 L944 496 L622 496 Q633 369 653 282 Q668 218 684 172 Q777 274 843 412 L862 402 Q792 256 692 150 Q718 81 754 26 Q812 -56 851 -56 Q901 -53 932 141 L950 131 Q917 -78 855 -78 Q802 -78 736 14 Q702 67 676 134 Q555 16 402 -45 L391 -26 Q552 36 668 155 Q644 224 631 282 Q610 375 601 496 L303 496 L303 268 Q413 295 511 330 L511 308 ZM720 793 Q830 714 906 632 L891 617 Q819 694 705 779 L720 793 Z" /><glyph glyph-name="uni6218" unicode="&#x6218;" d="M238 807 L260 807 L260 618 L484 618 L484 596 L260 596 L260 366 L418 366 L418 27 L124 27 L124 -56 L103 -56 L103 366 L238 366 L238 807 ZM124 49 L396 49 L396 344 L124 344 L124 49 ZM925 572 L928 550 L637 496 Q645 381 665 283 Q681 206 700 154 Q806 273 882 435 L899 423 Q811 251 707 135 Q727 78 756 28 Q807 -53 842 -53 Q890 -50 920 139 L939 130 Q906 -75 847 -75 Q798 -75 739 16 Q710 65 690 117 Q571 -8 434 -63 L423 -48 Q568 15 683 136 Q660 200 643 283 Q625 374 616 492 L459 463 L456 485 L614 514 Q604 640 604 807 L626 807 Q626 646 635 518 L925 572 ZM740 786 Q823 700 868 632 L853 619 Q807 689 724 776 L740 786 Z" /><glyph glyph-name="uni6237" unicode="&#x6237;" d="M833 649 L204 649 L204 397 L833 397 L833 649 ZM204 376 Q200 102 57 -96 L41 -82 Q180 99 183 386 L183 672 L519 672 Q492 745 454 809 L476 813 Q512 751 541 672 L855 672 L855 376 L204 376 Z" /><glyph glyph-name="uni6240" unicode="&#x6240;" d="M426 256 L160 256 Q145 57 58 -90 L43 -76 Q139 90 145 316 L145 715 Q311 734 429 807 L442 792 Q335 721 164 697 L164 538 L426 538 L426 256 ZM164 516 L164 316 Q164 302 162 278 L404 278 L404 516 L164 516 ZM567 463 L567 290 Q564 39 497 -90 L478 -80 Q545 53 548 290 L548 720 Q751 729 895 795 L905 775 Q752 708 567 701 L567 484 L946 484 L946 463 L817 463 L817 -94 L796 -94 L796 463 L567 463 Z" /><glyph glyph-name="uni2F3F" unicode="&#x2f3f;&#x624b;" d="M857 778 Q714 738 529 719 L529 499 L869 499 L869 477 L529 477 L529 265 L945 265 L945 244 L529 244 L529 -11 Q529 -85 460 -85 L305 -85 L301 -64 Q405 -66 452 -66 Q508 -66 508 -5 L508 244 L56 244 L56 265 L508 265 L508 477 L140 477 L140 499 L508 499 L508 717 Q322 701 127 701 L120 721 Q573 723 847 797 L857 778 Z" /><glyph glyph-name="uni6253" unicode="&#x6253;" d="M426 375 Q356 342 257 305 L257 -25 Q257 -84 197 -84 L89 -84 L85 -63 Q157 -65 189 -65 Q235 -65 235 -20 L235 298 Q133 264 49 243 L44 263 Q151 288 235 318 L235 588 L59 588 L59 609 L235 609 L235 809 L257 809 L257 609 L406 609 L406 588 L257 588 L257 326 Q348 358 426 396 L426 375 ZM451 715 L939 715 L939 693 L758 693 L758 -12 Q758 -84 686 -84 L529 -84 L525 -63 Q633 -65 679 -65 Q736 -65 736 -7 L736 693 L451 693 L451 715 Z" /><glyph glyph-name="uni6258" unicode="&#x6258;" d="M930 417 L933 395 L602 356 L602 -6 Q602 -54 659 -54 L812 -54 Q863 -54 884 -33 Q911 0 920 151 L940 144 Q933 -4 899 -47 Q875 -76 815 -76 L652 -76 Q580 -76 580 -11 L580 353 L375 329 L372 350 L580 375 L580 693 Q477 677 383 670 L376 690 Q647 708 872 793 L883 773 Q755 725 602 697 L602 378 L930 417 ZM71 -84 L67 -63 Q131 -65 160 -65 Q209 -65 209 -26 L209 298 Q133 268 62 248 L57 268 Q138 291 209 319 L209 580 L64 580 L64 601 L209 601 L209 806 L230 806 L230 601 L352 601 L352 580 L230 580 L230 328 Q281 349 339 381 L339 359 Q288 332 230 307 L230 -32 Q230 -84 168 -84 L71 -84 Z" /><glyph glyph-name="uni626B" unicode="&#x626b;" d="M410 717 L891 717 L891 -74 L869 -74 L869 5 L384 5 L384 27 L869 27 L869 358 L432 358 L432 380 L869 380 L869 696 L410 696 L410 717 ZM383 361 Q302 323 238 300 L238 -32 Q238 -82 181 -82 L94 -82 L90 -61 Q146 -63 173 -63 Q217 -63 217 -26 L217 292 Q127 261 56 243 L51 263 Q130 282 217 313 L217 588 L62 588 L62 609 L217 609 L217 809 L238 809 L238 609 L366 609 L366 588 L238 588 L238 320 Q305 345 383 382 L383 361 Z" /><glyph glyph-name="uni6280" unicode="&#x6280;" d="M73 -82 L69 -61 Q123 -63 146 -63 Q199 -63 199 -9 L199 289 Q123 255 48 232 L43 253 Q120 276 199 309 L199 588 L61 588 L61 609 L199 609 L199 809 L221 809 L221 609 L344 609 L344 588 L221 588 L221 319 Q277 345 348 386 L348 365 Q285 328 221 299 L221 -14 Q221 -82 154 -82 L73 -82 ZM397 648 L651 648 L651 808 L673 808 L673 648 L928 648 L928 627 L673 627 L673 420 L887 420 L887 399 Q823 217 687 93 Q795 -5 959 -76 L947 -93 Q778 -19 672 79 Q546 -30 368 -94 L357 -76 Q537 -11 657 92 Q517 223 469 398 L414 398 L414 420 L651 420 L651 627 L397 627 L397 648 ZM490 398 Q538 229 672 106 Q804 228 864 398 L490 398 Z" /><glyph glyph-name="uni6295" unicode="&#x6295;" d="M75 -82 L71 -61 Q127 -63 149 -63 Q203 -63 203 -4 L203 297 Q122 263 52 241 L47 261 Q128 285 203 318 L203 588 L63 588 L63 609 L203 609 L203 809 L225 809 L225 609 L357 609 L357 588 L225 588 L225 328 Q287 356 354 396 L354 375 Q287 335 225 307 L225 -9 Q225 -82 157 -82 L75 -82 ZM404 365 L858 365 L858 344 Q803 185 682 79 Q795 -12 959 -76 L947 -94 Q777 -25 667 65 Q547 -35 365 -94 L354 -77 Q534 -17 651 79 Q520 192 475 343 L404 343 L404 365 ZM496 343 Q541 200 666 92 Q784 197 836 343 L496 343 ZM499 757 L785 757 L785 527 Q785 484 828 484 L929 484 L929 463 L827 463 Q764 463 764 527 L764 735 L521 735 L521 651 Q521 516 386 444 L371 460 Q499 526 499 649 L499 757 Z" /><glyph glyph-name="uni62A4" unicode="&#x62a4;" d="M66 -84 L62 -63 Q128 -65 158 -65 Q207 -65 207 -12 L207 289 Q135 263 58 241 L52 261 Q120 279 207 310 L207 580 L62 580 L62 601 L207 601 L207 807 L229 807 L229 601 L356 601 L356 580 L229 580 L229 318 Q289 341 360 377 L360 355 Q304 328 229 297 L229 -17 Q229 -84 166 -84 L66 -84 ZM892 650 L456 650 L456 412 L892 412 L892 650 ZM456 390 L456 376 Q455 103 330 -92 L314 -78 Q433 98 434 376 L434 673 L670 673 Q647 749 619 807 L641 811 Q665 758 691 673 L913 673 L913 390 L456 390 Z" /><glyph glyph-name="uni62DF" unicode="&#x62df;" d="M74 -77 L70 -55 Q114 -58 153 -58 Q200 -58 200 -18 L200 289 Q136 263 64 243 L59 263 Q133 284 200 311 L200 588 L61 588 L61 609 L200 609 L200 808 L222 808 L222 609 L344 609 L344 588 L222 588 L222 320 Q278 343 348 381 L348 359 Q278 321 222 298 L222 -23 Q222 -77 161 -77 L74 -77 ZM846 798 Q846 521 802 328 Q790 281 773 234 Q886 66 947 -62 L931 -75 Q868 57 763 210 Q687 30 529 -90 L516 -73 Q707 71 774 307 Q824 509 824 798 L846 798 ZM398 89 Q414 95 414 108 L414 756 L436 756 L436 102 Q517 132 615 184 L621 163 Q517 107 404 68 L398 89 ZM559 682 Q639 566 698 432 L679 424 Q615 566 539 676 L559 682 Z" /><glyph glyph-name="uni62E5" unicode="&#x62e5;" d="M74 -82 L70 -61 Q128 -63 154 -63 Q203 -63 203 -19 L203 297 Q125 267 53 247 L48 267 Q122 286 203 317 L203 588 L62 588 L62 609 L203 609 L203 805 L225 805 L225 609 L355 609 L355 588 L225 588 L225 326 Q291 353 354 386 L354 365 Q291 332 225 305 L225 -24 Q225 -82 162 -82 L74 -82 ZM434 493 L434 317 Q434 301 432 269 L643 269 L643 493 L434 493 ZM430 249 Q415 40 323 -93 L308 -78 Q409 76 412 316 L412 758 L898 758 L898 -35 Q898 -89 846 -89 L764 -89 L759 -68 L838 -69 Q877 -69 877 -29 L877 249 L664 249 L664 -78 L643 -78 L643 249 L430 249 ZM877 269 L877 493 L664 493 L664 269 L877 269 ZM877 514 L877 737 L664 737 L664 514 L877 514 ZM643 737 L434 737 L434 514 L643 514 L643 737 Z" /><glyph glyph-name="uni62FF" unicode="&#x62ff;" d="M312 655 L686 655 L686 633 L312 633 L312 655 ZM228 548 L770 548 L770 411 L228 411 L228 548 ZM748 432 L748 526 L250 526 L250 432 L748 432 ZM512 811 Q638 692 948 599 L937 581 Q644 667 501 791 Q331 655 68 581 L57 599 Q336 681 490 811 L512 811 ZM839 336 Q703 314 522 303 L522 200 L857 200 L857 178 L522 178 L522 74 L931 74 L931 53 L522 53 L522 -23 Q522 -92 455 -92 L335 -92 L331 -72 Q413 -74 447 -74 Q501 -74 501 -17 L501 53 L71 53 L71 74 L501 74 L501 178 L153 178 L153 200 L501 200 L501 302 Q342 293 158 293 L151 313 Q573 315 829 355 L839 336 Z" /><glyph glyph-name="uni6301" unicode="&#x6301;" d="M74 -84 L70 -63 Q128 -65 154 -65 Q203 -65 203 -12 L203 294 Q126 266 52 246 L47 266 Q128 287 203 314 L203 579 L62 579 L62 600 L203 600 L203 807 L225 807 L225 600 L347 600 L347 579 L225 579 L225 322 Q296 350 359 382 L359 360 Q294 329 225 302 L225 -17 Q225 -84 162 -84 L74 -84 ZM653 808 L675 808 L675 688 L885 688 L885 667 L675 667 L675 497 L932 497 L932 475 L396 475 L396 497 L653 497 L653 667 L435 667 L435 688 L653 688 L653 808 ZM394 314 L773 314 L773 415 L795 415 L795 314 L947 314 L947 293 L795 293 L795 -17 Q795 -85 730 -85 L590 -85 L586 -64 Q680 -66 723 -66 Q773 -66 773 -12 L773 293 L394 293 L394 314 ZM467 217 Q566 120 618 45 L601 32 Q546 113 450 207 L467 217 Z" /><glyph glyph-name="uni6307" unicode="&#x6307;" d="M888 347 L888 -89 L866 -89 L866 -28 L481 -28 L481 -93 L460 -93 L460 347 L888 347 ZM481 -6 L866 -6 L866 150 L481 150 L481 -6 ZM481 172 L866 172 L866 326 L481 326 L481 172 ZM486 527 Q486 471 541 471 L803 471 Q848 471 864 489 Q887 512 895 632 L916 627 Q908 507 881 473 Q856 450 807 450 L535 450 Q465 450 465 523 L465 807 L486 807 L486 659 Q680 698 880 782 L892 765 Q681 677 486 637 L486 527 ZM74 -84 L70 -63 Q138 -65 170 -65 Q219 -65 219 -12 L219 285 Q135 254 55 231 L50 252 Q141 277 219 306 L219 580 L67 580 L67 601 L219 601 L219 806 L240 806 L240 601 L368 601 L368 580 L240 580 L240 314 Q311 342 388 382 L388 360 Q323 326 240 293 L240 -17 Q240 -84 178 -84 L74 -84 Z" /><glyph glyph-name="uni6316" unicode="&#x6316;" d="M595 598 Q529 466 426 397 L410 411 Q517 483 575 606 L595 598 ZM709 610 Q806 505 864 414 L847 401 Q788 495 692 599 L709 610 ZM77 -82 L73 -61 Q127 -63 151 -63 Q200 -63 200 -21 L200 294 Q127 262 59 241 L54 261 Q141 288 200 314 L200 588 L62 588 L62 609 L200 609 L200 809 L222 809 L222 609 L331 609 L331 588 L222 588 L222 324 Q278 350 349 391 L349 370 Q286 333 222 304 L222 -26 Q222 -82 159 -82 L77 -82 ZM636 819 Q662 761 683 698 L903 698 L903 545 L882 545 L882 676 L423 676 L423 545 L401 545 L401 698 L661 698 Q638 769 614 815 L636 819 ZM416 324 L870 324 L870 303 Q557 150 466 51 Q437 19 437 -7 Q437 -56 508 -56 L794 -56 Q853 -56 880 -35 Q905 -12 920 109 L940 103 Q924 -22 895 -48 Q862 -78 795 -78 L509 -78 Q414 -78 414 -9 Q414 35 459 77 Q562 177 824 302 L416 302 L416 324 Z" /><glyph glyph-name="uni6362" unicode="&#x6362;" d="M876 520 L876 247 L953 247 L953 225 L669 225 Q753 32 955 -74 L945 -94 Q727 27 647 225 L637 225 Q581 27 344 -92 L329 -76 Q561 39 615 225 L354 225 L354 247 L440 247 L440 520 L652 520 Q717 599 767 700 L544 700 Q479 605 374 533 L361 549 Q522 661 579 817 L601 815 Q584 769 557 721 L793 721 L793 703 Q735 592 677 520 L876 520 ZM462 247 L621 248 Q643 347 645 499 L462 499 L462 247 ZM854 247 L854 499 L666 499 Q665 343 642 247 L854 247 ZM71 -82 L67 -61 Q121 -63 146 -63 Q197 -63 197 -7 L197 293 Q127 265 47 241 L42 261 Q124 284 197 313 L197 588 L60 588 L60 609 L197 609 L197 809 L219 809 L219 609 L339 609 L339 588 L219 588 L219 322 Q284 349 345 382 L345 361 Q284 328 219 301 L219 -12 Q219 -82 154 -82 L71 -82 Z" /><glyph glyph-name="uni636E" unicode="&#x636e;" d="M78 -84 L74 -63 Q130 -65 155 -65 Q202 -65 202 -12 L202 295 Q133 268 58 247 L53 267 Q124 286 202 316 L202 580 L65 580 L65 601 L202 601 L202 807 L224 807 L224 601 L337 601 L337 580 L224 580 L224 325 Q268 344 335 377 L335 355 Q281 328 224 304 L224 -17 Q224 -84 163 -84 L78 -84 ZM435 373 Q417 107 312 -91 L296 -77 Q415 135 417 472 L417 756 L914 756 L914 549 L713 549 L713 394 L945 394 L945 373 L713 373 L713 210 L896 210 L896 -93 L875 -93 L875 -33 L530 -33 L530 -93 L509 -93 L509 210 L691 210 L691 373 L435 373 ZM691 549 L439 549 L439 472 Q439 432 436 394 L691 394 L691 549 ZM530 -11 L875 -11 L875 188 L530 188 L530 -11 ZM893 733 L439 733 L439 571 L893 571 L893 733 Z" /><glyph glyph-name="uni6377" unicode="&#x6377;" d="M857 276 L652 276 L652 142 L888 142 L888 121 L652 121 L652 -43 Q712 -52 800 -52 Q868 -52 948 -50 L942 -73 L802 -72 Q617 -72 555 -36 Q491 1 443 111 Q407 -13 335 -92 L317 -79 Q415 25 442 211 L464 208 Q457 161 450 136 Q501 14 567 -21 Q589 -32 631 -40 L631 276 L414 276 L414 298 L631 298 L631 424 L387 424 L387 446 L631 446 L631 573 L421 573 L421 594 L631 594 L631 703 L382 703 L382 724 L631 724 L631 810 L652 810 L652 724 L922 724 L922 703 L652 703 L652 594 L857 594 L857 446 L933 446 L933 424 L857 424 L857 276 ZM652 573 L652 446 L836 446 L836 573 L652 573 ZM836 424 L652 424 L652 298 L836 298 L836 424 ZM79 -82 L75 -61 Q135 -63 162 -63 Q205 -63 205 -23 L205 299 Q126 266 59 246 L54 266 Q132 289 205 320 L205 588 L61 588 L61 609 L205 609 L205 808 L227 808 L227 609 L352 609 L352 588 L227 588 L227 330 Q287 357 344 390 L344 369 Q287 336 227 309 L227 -29 Q227 -82 170 -82 L79 -82 Z" /><glyph glyph-name="uni6398" unicode="&#x6398;" d="M70 -84 L66 -63 Q128 -65 155 -65 Q198 -65 198 26 L198 287 Q122 255 61 237 L56 257 Q128 279 198 308 L198 580 L63 580 L63 601 L198 601 L198 806 L220 806 L220 601 L334 601 L334 580 L220 580 L220 318 Q286 348 343 382 L343 360 Q283 326 220 297 L220 21 Q220 -84 163 -84 L70 -84 ZM866 266 L866 418 L888 418 L888 245 L715 245 L715 -1 L890 -1 L890 156 L911 156 L911 -83 L890 -83 L890 -23 L522 -23 L522 -83 L500 -83 L500 156 L522 156 L522 -1 L693 -1 L693 245 L524 245 L524 418 L545 418 L545 266 L693 266 L693 472 L715 472 L715 266 L866 266 ZM886 733 L431 733 L431 563 L886 563 L886 733 ZM431 542 L431 439 Q429 131 308 -91 L292 -77 Q408 124 409 439 L409 756 L907 756 L907 542 L431 542 Z" /><glyph glyph-name="uni63A5" unicode="&#x63a5;" d="M508 640 Q549 569 587 476 L711 476 Q756 555 790 650 L812 643 Q776 547 733 476 L929 476 L929 455 L385 455 L385 476 L564 476 Q524 568 488 631 L508 640 ZM637 813 Q656 768 676 706 L911 706 L911 684 L408 684 L408 706 L654 706 Q636 763 615 809 L637 813 ZM74 -84 L70 -63 Q128 -65 154 -65 Q203 -65 203 -7 L203 296 Q131 265 48 241 L43 261 Q131 287 203 317 L203 580 L62 580 L62 601 L203 601 L203 807 L225 807 L225 601 L327 601 L327 580 L225 580 L225 326 Q283 352 337 382 L337 360 Q271 325 225 305 L225 -12 Q225 -84 162 -84 L74 -84 ZM623 399 Q600 342 574 293 L945 293 L945 271 L820 271 Q799 131 707 45 Q823 -10 938 -80 L926 -98 Q810 -28 691 30 Q598 -49 369 -96 L360 -76 Q572 -35 669 41 Q559 94 455 136 Q509 215 540 271 L372 271 L372 293 L552 293 Q577 341 602 401 L623 399 ZM563 271 Q524 202 481 145 Q589 102 687 55 Q776 135 799 271 L563 271 Z" /><glyph glyph-name="uni63A7" unicode="&#x63a7;" d="M641 244 L385 244 L385 265 L915 265 L915 244 L662 244 L662 -28 L953 -28 L953 -49 L344 -49 L344 -28 L641 -28 L641 244 ZM74 -84 L70 -63 Q128 -65 154 -65 Q203 -65 203 -7 L203 296 Q127 265 58 246 L52 266 Q130 287 203 317 L203 580 L62 580 L62 601 L203 601 L203 809 L225 809 L225 601 L327 601 L327 580 L225 580 L225 326 Q283 351 332 377 L332 355 Q277 326 225 305 L225 -12 Q225 -84 162 -84 L74 -84 ZM615 821 Q647 763 676 685 L919 685 L919 525 L897 525 L897 664 L405 664 L405 525 L384 525 L384 685 L654 685 Q627 760 594 817 L615 821 ZM596 567 Q521 414 399 336 L383 349 Q507 431 576 575 L596 567 ZM720 577 Q820 477 899 354 L881 344 Q798 470 699 568 L720 577 Z" /><glyph glyph-name="uni63A8" unicode="&#x63a8;" d="M481 390 L481 202 L709 202 L709 390 L481 390 ZM481 180 L481 -22 L709 -22 L709 180 L481 180 ZM481 -43 L481 -92 L460 -92 L460 570 Q413 481 351 405 L344 429 Q476 603 530 807 L552 803 Q527 708 484 617 L929 617 L929 595 L730 595 L730 412 L909 412 L909 390 L730 390 L730 202 L909 202 L909 180 L730 180 L730 -22 L940 -22 L940 -43 L481 -43 ZM709 595 L481 595 L481 412 L709 412 L709 595 ZM343 361 Q289 332 230 307 L230 -21 Q230 -75 169 -75 L74 -75 L70 -53 Q134 -55 161 -55 Q209 -55 209 -16 L209 298 Q126 265 59 246 L53 266 Q132 287 209 319 L209 591 L62 591 L62 613 L209 613 L209 815 L230 815 L230 613 L350 613 L350 591 L230 591 L230 328 Q290 353 343 382 L343 361 ZM680 808 Q717 727 736 664 L717 656 Q696 720 659 802 L680 808 Z" /><glyph glyph-name="uni63CF" unicode="&#x63cf;" d="M895 458 L895 -91 L873 -91 L873 -42 L460 -42 L460 -91 L438 -91 L438 458 L895 458 ZM460 -21 L656 -21 L656 195 L460 195 L460 -21 ZM678 -21 L873 -21 L873 195 L678 195 L678 -21 ZM460 216 L656 216 L656 436 L460 436 L460 216 ZM678 436 L678 216 L873 216 L873 436 L678 436 ZM73 -78 L69 -56 Q119 -59 164 -59 Q204 -59 204 -14 L204 302 Q134 272 47 246 L42 266 Q122 289 204 322 L204 592 L60 592 L60 614 L204 614 L204 814 L226 814 L226 614 L341 614 L341 592 L226 592 L226 331 Q289 359 362 399 L362 378 Q286 336 226 311 L226 -19 Q226 -78 172 -78 L73 -78 ZM533 808 L555 808 L555 678 L775 678 L775 808 L797 808 L797 678 L945 678 L945 657 L797 657 L797 523 L775 523 L775 657 L555 657 L555 524 L533 524 L533 657 L385 657 L385 678 L533 678 L533 808 Z" /><glyph glyph-name="uni63D0" unicode="&#x63d0;" d="M74 -84 L70 -63 Q134 -65 163 -65 Q203 -65 203 -34 L203 292 Q135 262 60 241 L55 261 Q132 282 203 312 L203 580 L63 580 L63 601 L203 601 L203 807 L225 807 L225 601 L345 601 L345 580 L225 580 L225 321 Q284 347 334 376 L334 354 Q286 328 225 301 L225 -39 Q225 -84 171 -84 L74 -84 ZM443 768 L853 768 L853 449 L443 449 L443 768 ZM831 470 L831 595 L465 595 L465 470 L831 470 ZM465 617 L831 617 L831 747 L465 747 L465 617 ZM364 343 L928 343 L928 322 L658 322 L658 163 L893 163 L893 141 L658 141 L658 -39 Q724 -51 828 -51 Q883 -51 951 -49 L945 -72 L830 -71 Q634 -71 566 -32 Q498 8 447 128 Q411 6 324 -90 L309 -76 Q437 70 448 258 L469 256 Q466 202 454 154 Q510 19 581 -17 Q602 -27 637 -35 L637 322 L364 322 L364 343 Z" /><glyph glyph-name="uni641C" unicode="&#x641c;" d="M428 553 L428 422 L639 422 L639 815 L660 815 L660 422 L868 422 L868 557 L737 557 L737 579 L868 579 L868 733 L743 733 L743 754 L890 754 L890 400 L660 400 L660 266 L896 266 L896 246 Q826 118 671 31 Q790 -34 950 -69 L943 -89 Q770 -52 649 18 Q521 -49 339 -91 L328 -73 Q506 -32 629 30 Q490 116 424 245 L384 245 L384 266 L639 266 L639 400 L406 400 L406 730 Q485 755 549 795 L563 778 Q504 743 428 717 L428 575 L563 575 L563 553 L428 553 ZM447 245 Q512 123 651 42 Q803 126 872 245 L447 245 ZM70 -84 L66 -63 Q130 -65 157 -65 Q201 -65 201 -26 L201 288 Q121 257 63 239 L59 259 Q124 277 201 308 L201 580 L73 580 L73 601 L201 601 L201 800 L223 800 L223 601 L339 601 L339 580 L223 580 L223 317 Q293 349 345 378 L345 356 Q290 326 223 297 L223 -31 Q223 -84 165 -84 L70 -84 Z" /><glyph glyph-name="uni642D" unicode="&#x642d;" d="M69 -77 L65 -56 Q123 -58 148 -58 Q208 -58 208 1 L208 299 Q135 267 54 242 L49 262 Q128 285 208 321 L208 588 L62 588 L62 609 L208 609 L208 814 L230 814 L230 609 L343 609 L343 588 L230 588 L230 331 Q285 357 347 393 L347 370 Q295 340 230 309 L230 -4 Q230 -77 155 -77 L69 -77 ZM362 709 L507 709 L507 802 L528 802 L528 709 L741 709 L741 802 L763 802 L763 709 L917 709 L917 687 L763 687 L763 591 L741 591 L741 687 L528 687 L528 588 L507 588 L507 687 L362 687 L362 709 ZM496 359 L787 359 L787 338 L496 338 L496 359 ZM832 214 L832 -94 L811 -94 L811 -38 L469 -38 L469 -94 L447 -94 L447 214 L832 214 ZM469 -18 L811 -18 L811 192 L469 192 L469 -18 ZM647 583 Q737 415 958 289 L946 270 Q739 389 637 562 Q518 359 333 247 L321 264 Q517 386 626 583 L647 583 Z" /><glyph glyph-name="uni64AD" unicode="&#x64ad;" d="M630 283 L431 283 L431 145 L630 145 L630 283 ZM630 124 L431 124 L431 -13 L630 -13 L630 124 ZM651 -13 L851 -13 L851 124 L651 124 L651 -13 ZM851 -35 L431 -35 L431 -94 L409 -94 L409 304 L872 304 L872 -94 L851 -94 L851 -35 ZM651 145 L851 145 L851 283 L651 283 L651 145 ZM628 734 Q510 722 369 722 L362 743 Q694 745 893 804 L903 786 Q791 751 649 736 L649 544 L759 544 Q805 612 837 689 L858 681 Q827 607 781 544 L937 544 L937 522 L689 522 Q775 412 957 330 L947 310 Q772 389 668 522 L649 522 L649 331 L628 331 L628 522 L610 522 Q535 391 351 306 L340 325 Q517 402 591 522 L365 522 L365 544 L499 544 Q473 605 436 657 L456 664 Q493 613 521 544 L628 544 L628 734 ZM71 -84 L67 -63 Q123 -65 147 -65 Q194 -65 194 -12 L194 298 Q132 270 57 246 L51 266 Q136 293 194 319 L194 581 L61 581 L61 602 L194 602 L194 807 L216 807 L216 602 L318 602 L318 581 L216 581 L216 329 Q267 352 317 382 L317 360 Q274 336 216 308 L216 -17 Q216 -84 155 -84 L71 -84 Z" /><glyph glyph-name="uni64C5" unicode="&#x64c5;" d="M83 -82 L79 -61 Q127 -63 150 -63 Q192 -63 192 -19 L192 291 Q133 262 67 237 L62 257 Q129 280 192 311 L192 588 L71 588 L71 609 L192 609 L192 809 L214 809 L214 609 L321 609 L321 588 L214 588 L214 322 Q272 352 329 391 L329 370 Q269 330 214 302 L214 -24 Q214 -82 158 -82 L83 -82 ZM610 817 Q637 778 656 735 L937 735 L937 713 L337 713 L337 735 L634 735 Q613 780 589 813 L610 817 ZM308 -44 L951 -44 L951 -66 L308 -66 L308 -44 ZM414 632 L861 632 L861 346 L414 346 L414 632 ZM840 367 L840 610 L436 610 L436 367 L840 367 ZM537 545 L739 545 L739 428 L537 428 L537 545 ZM718 449 L718 525 L559 525 L559 449 L718 449 ZM438 265 L841 265 L841 33 L438 33 L438 265 ZM819 53 L819 137 L460 137 L460 53 L819 53 ZM460 158 L819 158 L819 245 L460 245 L460 158 Z" /><glyph glyph-name="uni64CD" unicode="&#x64cd;" d="M472 771 L817 771 L817 587 L472 587 L472 771 ZM796 608 L796 750 L493 750 L493 608 L796 608 ZM691 506 L902 506 L902 330 L691 330 L691 506 ZM882 350 L882 486 L713 486 L713 350 L882 350 ZM357 217 L632 217 L632 299 L653 299 L653 217 L927 217 L927 196 L696 196 Q766 76 946 -16 L932 -34 Q744 72 676 196 L653 196 L653 -90 L632 -90 L632 196 L610 196 Q531 53 333 -37 L322 -19 Q512 65 589 196 L357 196 L357 217 ZM389 506 L598 506 L598 330 L389 330 L389 506 ZM576 350 L576 486 L410 486 L410 350 L576 350 ZM65 -79 L62 -58 Q103 -61 139 -61 Q192 -61 192 -12 L192 290 Q116 258 55 240 L50 260 Q118 279 192 310 L192 580 L62 580 L62 601 L192 601 L192 806 L214 806 L214 601 L333 601 L333 580 L214 580 L214 319 Q277 348 337 382 L337 361 Q274 325 214 299 L214 -17 Q214 -79 146 -79 L65 -79 Z" /><glyph glyph-name="uni64CE" unicode="&#x64ce;" d="M627 698 Q623 691 617 677 Q638 572 733 495 Q811 574 835 698 L627 698 ZM603 650 Q572 590 528 542 L516 558 Q608 665 643 819 L664 817 Q650 758 635 719 L921 719 L921 698 L856 698 Q829 562 750 482 Q831 423 947 385 L937 368 Q810 410 734 467 Q663 403 554 373 L545 392 Q650 421 718 480 Q629 553 603 650 ZM831 329 Q702 307 522 295 L522 191 L851 191 L851 170 L522 170 L522 74 L931 74 L931 52 L522 52 L522 -33 Q522 -99 460 -99 L340 -99 L336 -78 Q416 -80 452 -80 Q501 -80 501 -27 L501 52 L71 52 L71 74 L501 74 L501 170 L141 170 L141 191 L501 191 L501 294 Q323 284 147 284 L141 304 Q567 306 820 347 L831 329 ZM212 815 L233 815 L233 760 L381 760 L381 816 L402 816 L402 760 L535 760 L535 739 L402 739 L402 676 L381 676 L381 739 L233 739 L233 674 L212 674 L212 739 L72 739 L72 760 L212 760 L212 815 ZM135 543 L361 543 L361 413 L135 413 L135 543 ZM341 433 L341 522 L155 522 L155 433 L341 433 ZM179 687 Q170 656 158 627 L490 627 Q488 447 480 416 Q473 384 448 373 Q426 362 363 362 L323 362 L317 382 L369 382 Q421 382 439 392 Q455 403 461 432 Q466 456 469 605 L147 605 Q114 545 62 505 L48 520 Q128 584 157 691 L179 687 Z" /><glyph glyph-name="uni2F40" unicode="&#x2f40;&#x652f;" d="M484 811 L506 811 L506 662 L921 662 L921 640 L506 640 L506 440 L782 440 L782 420 Q692 236 512 108 Q513 108 515 106 Q601 48 714 1 Q819 -41 944 -74 L933 -92 Q810 -61 691 -12 Q582 35 493 95 Q321 -21 68 -90 L56 -72 Q305 -6 476 107 Q397 165 333 245 Q271 319 248 419 L155 419 L155 440 L484 440 L484 640 L79 640 L79 662 L484 662 L484 811 ZM495 120 Q672 247 758 419 L270 419 Q294 318 364 239 Q418 173 495 120 Z" /><glyph glyph-name="uni6536" unicode="&#x6536;" d="M109 141 Q125 147 125 159 L125 683 L147 683 L147 152 Q243 179 335 218 L335 805 L356 805 L356 -90 L335 -90 L335 196 Q232 154 116 121 L109 141 ZM528 502 Q489 418 438 346 L425 363 Q553 547 598 810 L619 808 Q602 714 577 632 L933 632 L933 610 L834 610 L834 596 Q833 321 717 142 Q819 -1 958 -77 L945 -95 Q802 -16 704 122 Q610 -13 448 -92 L435 -75 Q600 4 692 139 Q589 290 528 502 ZM704 159 Q811 330 812 591 L812 610 L570 610 Q561 583 541 531 Q601 308 704 159 Z" /><glyph glyph-name="uni6539" unicode="&#x6539;" d="M581 627 Q560 563 544 523 Q599 318 696 171 Q811 352 812 616 L812 627 L581 627 ZM834 627 L834 620 Q833 339 708 153 Q812 5 960 -77 L947 -94 Q799 -12 696 135 Q594 -6 416 -89 L402 -72 Q584 9 684 153 Q588 296 531 493 Q496 418 450 357 L437 373 Q558 536 601 814 L622 810 Q606 713 587 648 L930 648 L930 627 L834 627 ZM146 11 Q290 58 439 132 L443 110 Q293 37 107 -25 L101 -5 Q124 1 124 22 L124 418 L358 418 L358 701 L63 701 L63 722 L380 722 L380 396 L146 396 L146 11 Z" /><glyph glyph-name="uni653B" unicode="&#x653b;" d="M228 673 L64 673 L64 695 L421 695 L421 673 L249 673 L249 127 Q346 158 431 193 L431 171 Q264 102 63 57 L59 78 Q138 94 228 121 L228 673 ZM528 619 Q502 540 475 483 Q546 308 665 172 Q803 358 806 619 L528 619 ZM827 619 Q821 345 678 158 Q791 29 953 -75 L939 -91 Q777 12 665 141 Q550 -1 361 -94 L350 -75 Q542 18 652 155 Q534 290 464 460 Q426 385 380 329 L366 344 Q504 518 552 816 L573 812 Q556 716 534 640 L931 640 L931 619 L827 619 Z" /><glyph glyph-name="uni653E" unicode="&#x653e;" d="M59 642 L284 642 Q250 733 207 807 L229 811 Q270 738 306 642 L462 642 L462 621 L203 621 L203 512 Q203 481 201 425 L397 425 Q397 83 382 6 Q369 -78 276 -78 L210 -77 L205 -56 Q257 -58 273 -58 Q345 -58 359 0 Q376 77 376 404 L200 404 Q181 75 59 -89 L43 -76 Q179 108 182 512 L182 621 L59 621 L59 642 ZM597 622 Q581 572 564 530 Q615 325 706 177 Q816 361 819 622 L597 622 ZM695 157 Q604 303 550 500 Q514 426 471 369 L457 384 Q577 547 621 823 L643 819 Q626 721 603 643 L929 643 L929 622 L841 622 Q835 347 718 158 Q816 6 959 -76 L946 -93 Q804 -11 707 139 Q614 0 463 -92 L451 -74 Q605 19 695 157 Z" /><glyph glyph-name="uni6548" unicode="&#x6548;" d="M227 577 Q166 443 79 339 L61 352 Q147 453 207 587 L227 577 ZM470 423 Q385 527 324 577 L340 591 Q405 538 484 439 L470 423 ZM165 334 Q243 270 306 207 Q350 288 379 385 L398 378 Q369 278 322 191 Q392 123 457 45 L442 29 Q383 99 311 171 Q217 11 59 -80 L47 -63 Q202 25 295 187 Q229 252 149 317 L165 334 ZM260 820 Q288 768 315 687 L510 687 L510 666 L61 666 L61 687 L293 687 Q267 763 238 816 L260 820 ZM628 609 Q613 553 600 516 Q646 323 719 193 Q818 368 821 609 L628 609 ZM707 172 Q634 302 588 483 Q552 396 514 338 L499 354 Q607 525 646 818 L668 814 Q651 705 633 631 L943 631 L943 609 L843 609 Q837 351 731 172 Q823 12 956 -71 L944 -89 Q809 -3 719 152 Q623 5 461 -91 L448 -73 Q613 22 707 172 Z" /><glyph glyph-name="uni654F" unicode="&#x654f;&#xfa41;" d="M198 693 Q146 599 78 540 L61 554 Q171 650 229 815 L249 807 Q232 759 210 715 L537 715 L537 693 L198 693 ZM269 495 Q341 441 389 387 L374 373 Q328 424 254 481 L269 495 ZM259 242 Q323 182 363 130 L349 115 Q307 171 244 228 L259 242 ZM100 44 Q123 165 136 297 L53 297 L53 319 L138 319 Q149 442 153 574 L500 574 L493 319 L570 319 L570 297 L492 297 Q486 139 480 65 L561 65 L561 44 L478 44 Q475 9 472 -2 Q460 -48 425 -73 Q392 -91 326 -91 L288 -91 L281 -69 Q313 -71 323 -71 Q366 -71 397 -62 Q434 -50 449 -5 Q453 9 457 44 L100 44 ZM459 65 Q465 142 471 297 L157 297 Q146 174 125 65 L459 65 ZM472 319 Q475 419 478 552 L174 552 Q168 428 159 319 L472 319 ZM662 619 Q647 580 629 544 Q677 351 761 191 Q840 370 843 619 L662 619 ZM864 619 Q859 353 773 170 Q848 32 950 -76 L937 -91 Q834 16 761 145 Q687 3 565 -89 L554 -72 Q679 23 749 166 Q664 322 615 517 Q580 457 544 415 L530 430 Q651 575 694 820 L716 816 Q698 722 669 640 L946 640 L946 619 L864 619 Z" /><glyph glyph-name="uni6570" unicode="&#x6570;" d="M640 619 L622 546 Q667 338 743 188 Q826 369 829 619 L640 619 ZM733 166 Q657 310 610 508 Q578 406 533 327 L519 343 Q616 517 651 815 L673 811 Q662 724 644 640 L932 640 L932 619 L851 619 Q845 351 755 166 Q840 11 961 -72 L949 -90 Q828 -7 745 145 Q671 5 543 -89 L531 -72 Q662 24 733 166 ZM279 343 Q266 304 249 268 L472 268 L472 249 Q427 135 331 51 Q425 9 507 -36 L495 -53 Q408 -4 314 37 Q211 -43 62 -90 L50 -72 Q194 -27 293 47 Q236 72 140 109 Q187 184 217 247 L71 247 L71 268 L227 268 Q248 316 258 345 L279 343 ZM310 61 Q405 139 448 247 L240 247 Q206 175 167 118 Q244 90 310 61 ZM122 783 Q160 727 192 653 L173 644 Q138 723 102 776 L122 783 ZM481 785 Q454 719 402 645 L383 655 Q433 726 461 794 L481 785 ZM74 604 L281 604 L281 809 L303 809 L303 604 L504 604 L504 583 L303 583 L303 567 Q389 510 482 436 L470 419 Q369 503 303 546 L303 376 L281 376 L281 583 L268 583 Q221 460 72 370 L61 389 Q205 473 248 583 L74 583 L74 604 Z" /><glyph glyph-name="uni6574" unicode="&#x6574;" d="M103 648 L272 648 L272 731 L59 731 L59 753 L272 753 L272 811 L294 811 L294 753 L496 753 L496 731 L294 731 L294 648 L464 648 L464 499 L294 499 L294 465 Q383 423 486 356 L475 339 Q376 404 294 445 L294 325 L272 325 L272 471 Q170 376 59 320 L49 339 Q160 387 272 496 L272 499 L103 499 L103 648 ZM442 520 L442 628 L294 628 L294 520 L442 520 ZM272 520 L272 628 L124 628 L124 520 L272 520 ZM620 693 Q606 659 585 621 Q637 520 726 449 Q742 465 748 472 Q814 553 832 693 L620 693 ZM710 435 Q625 505 574 601 Q543 553 515 521 L501 538 Q600 652 636 817 L657 815 Q644 756 628 715 L934 715 L934 693 L853 693 Q835 543 764 457 Q754 445 743 436 Q828 375 940 340 L929 321 Q808 360 727 422 Q655 364 529 327 L521 346 Q640 380 710 435 ZM482 247 L111 247 L111 268 L891 268 L891 247 L504 247 L504 115 L839 115 L839 93 L504 93 L504 -40 L938 -40 L938 -62 L62 -62 L62 -40 L238 -40 L238 177 L260 177 L260 -40 L482 -40 L482 247 Z" /><glyph glyph-name="uni2F42" unicode="&#x2f42;&#x6587;" d="M76 623 L515 623 Q474 718 405 804 L426 812 Q486 736 538 623 L924 623 L924 601 L760 601 Q686 339 525 172 Q693 18 948 -77 L937 -94 Q680 1 510 156 Q331 -20 64 -97 L54 -78 Q326 0 496 169 Q308 348 234 601 L76 601 L76 623 ZM257 601 Q329 358 511 185 Q671 352 738 601 L257 601 Z" /><glyph glyph-name="uni65B0" unicode="&#x65b0;" d="M909 776 Q773 708 599 699 L599 476 L964 476 L964 455 L831 455 L831 -100 L810 -100 L810 455 L599 455 L599 299 Q591 52 488 -93 L473 -77 Q569 59 577 299 L577 717 Q753 722 898 795 L909 776 ZM67 708 L291 708 Q257 772 219 821 L240 825 Q279 774 312 708 L505 708 L505 686 L67 686 L67 708 ZM58 481 L192 481 Q166 555 122 624 L142 631 Q181 571 215 481 L350 481 Q396 552 428 636 L449 630 Q416 545 371 481 L512 481 L512 460 L301 460 L301 301 L494 301 L494 280 L301 280 L301 -27 Q301 -98 240 -98 L183 -98 L179 -76 Q215 -78 232 -78 Q279 -78 279 -21 L279 280 L72 280 L72 301 L279 301 L279 460 L58 460 L58 481 ZM187 199 Q142 49 59 -65 L41 -53 Q123 57 165 203 L187 199 ZM395 212 Q455 106 484 23 L466 16 Q427 118 375 207 L395 212 Z" /><glyph glyph-name="uni2F45" unicode="&#x2f45;&#x65b9;" d="M81 647 L529 647 Q498 728 446 804 L467 811 Q512 747 552 647 L933 647 L933 626 L393 626 Q391 552 383 423 L381 398 L801 398 Q801 158 789 68 Q768 -78 649 -84 Q625 -84 533 -82 L526 -62 Q622 -64 647 -64 Q752 -60 770 79 Q779 168 779 377 L378 377 Q360 244 306 137 Q232 15 103 -91 L87 -77 Q247 61 304 180 Q355 300 364 445 Q369 545 371 626 L81 626 L81 647 Z" /><glyph glyph-name="uni65C5" unicode="&#x65c5;" d="M534 659 Q486 558 424 494 L407 507 Q514 620 571 814 L591 807 Q570 738 544 680 L919 680 L919 659 L534 659 ZM931 342 Q864 266 757 215 Q822 43 952 -72 L939 -88 Q714 107 675 482 Q597 465 537 457 L537 -52 Q636 -29 740 7 L743 -15 Q651 -44 509 -79 L504 -59 Q516 -56 516 -49 L516 474 Q699 495 864 561 L876 543 Q794 511 695 486 Q709 350 749 237 Q851 284 916 358 L931 342 ZM67 650 L422 650 L422 629 L189 629 L189 454 L392 454 Q392 87 374 4 Q359 -85 253 -85 L212 -84 L207 -64 Q239 -66 250 -66 Q333 -66 351 -3 Q370 83 370 432 L188 432 Q179 77 63 -92 L48 -78 Q165 95 168 478 L168 629 L67 629 L67 650 ZM206 816 Q246 748 268 694 L247 686 Q221 750 185 810 L206 816 Z" /><glyph glyph-name="uni2F47" unicode="&#x2f47;&#x65e5;" d="M793 758 L793 -88 L771 -88 L771 0 L249 0 L249 -89 L228 -89 L228 758 L793 758 ZM249 21 L771 21 L771 371 L249 371 L249 21 ZM249 392 L771 392 L771 737 L249 737 L249 392 Z" /><glyph glyph-name="uni65F6" unicode="&#x65f6;" d="M355 723 L355 11 L333 11 L333 88 L125 88 L125 -12 L103 -12 L103 723 L355 723 ZM125 109 L333 109 L333 403 L125 403 L125 109 ZM125 424 L333 424 L333 702 L125 702 L125 424 ZM486 432 Q586 288 636 182 L618 169 Q565 281 469 421 L486 432 ZM566 -83 L562 -62 Q678 -64 729 -64 Q791 -64 791 1 L791 588 L416 588 L416 609 L791 609 L791 802 L813 802 L813 609 L958 609 L958 588 L813 588 L813 -5 Q813 -83 735 -83 L566 -83 Z" /><glyph glyph-name="uni6613" unicode="&#x6613;" d="M212 449 L212 763 L793 763 L793 449 L401 449 Q367 389 307 334 L862 334 Q858 185 845 85 Q830 -9 799 -46 Q768 -82 697 -85 L588 -85 L582 -64 L687 -65 Q774 -65 803 5 Q832 78 841 312 L704 312 Q578 8 283 -89 L271 -72 Q565 26 682 312 L500 312 Q399 134 150 35 L136 51 Q386 151 476 312 L281 312 Q198 246 91 200 L79 219 Q199 269 276 333 L277 334 Q343 390 380 449 L212 449 ZM771 470 L771 595 L233 595 L233 470 L771 470 ZM233 617 L771 617 L771 742 L233 742 L233 617 Z" /><glyph glyph-name="uni662F" unicode="&#x662f;" d="M216 768 L798 768 L798 449 L216 449 L216 768 ZM776 470 L776 595 L237 595 L237 470 L776 470 ZM237 617 L776 617 L776 747 L237 747 L237 617 ZM501 322 L65 322 L65 343 L938 343 L938 322 L522 322 L522 163 L830 163 L830 141 L522 141 L522 -47 Q614 -57 722 -57 Q845 -57 929 -54 L923 -77 L724 -76 Q481 -76 396 -36 Q311 4 244 128 Q184 -2 87 -85 L72 -70 Q217 54 268 263 L289 259 Q274 199 253 149 Q320 16 411 -22 Q443 -35 501 -44 L501 322 Z" /><glyph glyph-name="uni666F" unicode="&#x666f;" d="M203 333 L802 333 L802 156 L520 156 L520 -35 Q520 -90 466 -90 L353 -90 L348 -69 Q424 -71 458 -71 Q498 -71 498 -30 L498 156 L203 156 L203 333 ZM780 176 L780 311 L225 311 L225 176 L780 176 ZM192 773 L809 773 L809 522 L486 522 Q504 483 519 435 L929 435 L929 415 L71 415 L71 435 L497 435 Q479 488 463 522 L192 522 L192 773 ZM787 544 L787 639 L214 639 L214 544 L787 544 ZM214 661 L787 661 L787 752 L214 752 L214 661 ZM671 91 Q810 42 942 -55 L936 -75 Q806 20 661 73 L671 91 ZM330 78 Q229 -15 68 -75 L56 -56 Q221 5 315 93 L330 78 Z" /><glyph glyph-name="uni667A" unicode="&#x667a;" d="M175 699 Q138 632 93 588 L80 603 Q159 681 201 813 L222 809 Q205 759 186 720 L500 720 L500 699 L333 699 Q332 623 319 557 L527 557 L527 536 L315 536 Q307 503 299 481 Q419 418 500 355 L484 339 Q406 401 291 464 Q234 343 73 269 L59 287 Q216 356 270 471 Q282 501 291 536 L63 536 L63 557 L296 557 Q309 623 311 699 L175 699 ZM592 738 L878 738 L878 398 L592 398 L592 738 ZM856 420 L856 717 L613 717 L613 420 L856 420 ZM809 292 L809 -95 L787 -95 L787 -37 L241 -37 L241 -95 L220 -95 L220 292 L809 292 ZM241 -16 L787 -16 L787 114 L241 114 L241 -16 ZM241 135 L787 135 L787 270 L241 270 L241 135 Z" /><glyph glyph-name="uni66F4" unicode="&#x66f4;" d="M84 758 L917 758 L917 737 L512 737 L512 612 L831 612 L831 248 L504 248 Q486 123 429 54 Q648 -54 955 -66 L949 -86 Q639 -74 415 38 Q318 -59 65 -89 L56 -70 Q303 -40 395 48 Q288 105 205 180 L223 193 Q306 117 410 63 Q466 135 482 248 L174 248 L174 612 L490 612 L490 737 L84 737 L84 758 ZM810 269 L810 421 L512 421 L512 361 Q512 316 507 269 L810 269 ZM484 269 Q490 314 490 361 L490 421 L195 421 L195 269 L484 269 ZM195 443 L490 443 L490 591 L195 591 L195 443 ZM512 591 L512 443 L810 443 L810 591 L512 591 Z" /><glyph glyph-name="uni6700" unicode="&#x6700;" d="M65 409 L937 409 L937 387 L475 387 L475 32 L545 41 L545 19 L475 10 L475 -93 L453 -93 L453 8 Q287 -10 76 -19 L73 3 L178 7 L178 387 L65 387 L65 409 ZM199 8 Q338 16 453 29 L453 128 L199 128 L199 8 ZM199 149 L453 149 L453 256 L199 256 L199 149 ZM199 278 L453 278 L453 387 L199 387 L199 278 ZM211 763 L795 763 L795 508 L211 508 L211 763 ZM773 530 L773 627 L232 627 L232 530 L773 530 ZM232 648 L773 648 L773 742 L232 742 L232 648 ZM550 265 L550 287 L874 287 L874 266 Q838 137 748 44 Q824 -22 933 -70 L921 -88 Q808 -36 734 29 Q660 -41 553 -89 L541 -71 Q648 -23 718 44 Q616 140 583 265 L550 265 ZM732 58 Q816 147 852 265 L604 265 Q637 146 732 58 Z" /><glyph glyph-name="uni2F49" unicode="&#x2f49;&#x6708;" d="M287 489 L287 269 L286 260 L766 260 L766 489 L287 489 ZM766 510 L766 738 L287 738 L287 510 L766 510 ZM285 239 Q274 37 171 -90 L154 -75 Q263 64 266 277 L266 759 L787 759 L787 -20 Q787 -84 729 -84 L597 -84 L591 -63 L722 -64 Q766 -64 766 -13 L766 239 L285 239 Z" /><glyph glyph-name="uni6709" unicode="&#x6709;" d="M323 479 L323 326 L772 326 L772 479 L323 479 ZM772 304 L323 304 L323 154 L772 154 L772 304 ZM772 132 L323 132 L323 -91 L302 -91 L302 490 Q200 348 63 240 L50 257 Q266 430 377 660 L76 660 L76 681 L387 681 Q418 753 437 815 L458 813 Q439 752 409 681 L936 681 L936 660 L400 660 Q362 577 309 500 L794 500 L794 -38 Q794 -90 735 -92 L623 -92 L617 -71 L728 -72 Q772 -72 772 -33 L772 132 Z" /><glyph glyph-name="uni670D" unicode="&#x670d;" d="M160 497 L160 286 L368 286 L368 497 L160 497 ZM368 518 L368 731 L160 731 L160 518 L368 518 ZM159 264 Q153 43 94 -94 L77 -79 Q138 69 139 296 L139 753 L390 753 L390 -21 Q390 -91 324 -91 L244 -91 L239 -70 Q295 -72 317 -72 Q368 -72 368 -14 L368 264 L159 264 ZM529 363 L529 -94 L508 -94 L508 754 L879 754 Q879 591 862 537 Q847 479 753 479 L679 479 L673 499 L742 499 Q780 499 808 506 Q829 514 841 540 Q857 591 857 732 L529 732 L529 384 L875 384 L875 364 Q840 192 756 74 Q840 -10 952 -71 L941 -88 Q824 -23 744 58 Q672 -33 570 -89 L558 -72 Q660 -15 730 73 Q614 199 577 363 L529 363 ZM598 363 Q632 209 742 89 Q822 205 854 363 L598 363 Z" /><glyph glyph-name="uni671F" unicode="&#x671f;" d="M149 811 L171 811 L171 681 L414 681 L414 809 L436 809 L436 681 L514 681 L514 660 L436 660 L436 186 L519 186 L519 165 L59 165 L59 186 L149 186 L149 660 L69 660 L69 681 L149 681 L149 811 ZM171 186 L414 186 L414 330 L171 330 L171 186 ZM414 660 L171 660 L171 514 L414 514 L414 660 ZM171 351 L414 351 L414 493 L171 493 L171 351 ZM345 107 Q421 12 463 -64 L445 -77 Q403 1 328 96 L345 107 ZM219 104 Q156 -8 74 -87 L58 -76 Q140 6 199 114 L219 104 ZM630 496 L630 316 Q630 298 628 264 L872 264 L872 496 L630 496 ZM872 517 L872 740 L630 740 L630 517 L872 517 ZM626 243 Q608 43 505 -88 L488 -73 Q605 80 608 315 L608 761 L894 761 L894 -7 Q894 -84 827 -84 L717 -84 L711 -63 L819 -64 Q872 -64 872 1 L872 243 L626 243 Z" /><glyph glyph-name="uni672C" unicode="&#x672c;" d="M79 609 L489 609 L489 807 L511 807 L511 609 L920 609 L920 588 L555 588 Q660 319 948 112 L934 93 Q641 312 533 588 L511 588 L511 150 L744 150 L744 129 L511 129 L511 -93 L489 -93 L489 129 L264 129 L264 150 L489 150 L489 588 L468 588 Q351 277 58 81 L47 99 Q333 286 447 588 L79 588 L79 609 Z" /><glyph glyph-name="uni672F" unicode="&#x672f;" d="M83 556 L489 556 L489 812 L511 812 L511 556 L918 556 L918 535 L552 535 Q657 253 946 31 L933 14 Q638 244 530 535 L511 535 L511 -91 L489 -91 L489 535 L470 535 Q354 207 61 2 L50 20 Q335 215 449 535 L83 535 L83 556 ZM669 809 Q770 710 821 633 L804 621 Q750 700 652 798 L669 809 Z" /><glyph glyph-name="uni673A" unicode="&#x673a;" d="M65 597 L232 597 L232 809 L254 809 L254 597 L396 597 L396 576 L254 576 L254 508 Q324 431 406 319 L394 301 Q310 421 254 481 L254 -88 L232 -88 L232 508 Q173 314 58 167 L49 188 Q183 359 232 576 L65 576 L65 597 ZM373 -75 Q444 28 471 144 Q491 249 491 377 L491 752 L770 752 L770 2 Q770 -47 812 -47 L851 -47 Q876 -47 895 -40 Q916 -29 922 6 Q929 55 929 167 L950 161 Q950 73 943 10 Q937 -41 912 -57 Q890 -68 848 -68 L813 -68 Q748 -68 748 3 L748 730 L513 730 L513 377 Q513 218 487 120 Q460 9 390 -91 L373 -75 Z" /><glyph glyph-name="uni6743" unicode="&#x6743;" d="M262 -89 L240 -89 L240 512 Q180 317 55 168 L45 189 Q186 360 240 576 L65 576 L65 597 L240 597 L240 809 L262 809 L262 597 L412 597 L412 576 L262 576 L262 500 Q345 416 427 310 L414 293 Q327 406 262 473 L262 -89 ZM518 711 Q536 434 680 218 Q818 427 860 711 L518 711 ZM668 200 Q514 430 496 711 L450 711 L450 732 L881 732 L881 711 Q835 410 693 199 Q794 54 954 -67 L940 -84 Q777 42 681 182 Q568 21 400 -86 L387 -70 Q560 43 668 200 Z" /><glyph glyph-name="uni6761" unicode="&#x6761;" d="M132 258 L492 258 L492 391 L514 391 L514 258 L865 258 L865 237 L514 237 L514 -22 Q514 -90 454 -90 L334 -90 L330 -69 Q410 -71 446 -71 Q492 -71 492 -17 L492 237 L132 237 L132 258 ZM327 126 Q231 18 93 -63 L79 -45 Q216 34 311 141 L327 126 ZM884 -62 Q750 67 656 128 L673 143 Q772 78 899 -47 L884 -62 ZM407 819 Q375 762 342 719 L759 719 L759 701 Q665 582 521 496 Q697 408 947 373 L937 352 Q676 391 501 485 Q317 384 63 342 L54 362 Q300 401 480 496 Q363 562 283 651 Q211 577 128 523 L114 539 Q296 660 385 824 L407 819 ZM296 665 Q375 574 500 507 Q636 586 731 698 L325 698 L296 665 Z" /><glyph glyph-name="uni6765" unicode="&#x6765;" d="M229 585 Q286 498 330 407 L311 397 Q262 501 210 575 L229 585 ZM71 333 L71 354 L489 354 L489 653 L110 653 L110 674 L489 674 L489 806 L511 806 L511 674 L898 674 L898 653 L511 653 L511 354 L642 354 Q712 466 762 595 L783 588 Q733 456 664 354 L927 354 L927 333 L553 333 Q660 135 947 -21 L933 -39 Q640 126 532 333 L511 333 L511 -91 L489 -91 L489 333 L466 333 Q373 116 60 -39 L48 -21 Q356 128 446 333 L71 333 Z" /><glyph glyph-name="uni6781" unicode="&#x6781;" d="M249 -89 L228 -89 L228 525 Q174 321 60 168 L51 189 Q175 359 223 576 L63 576 L63 597 L228 597 L228 809 L249 809 L249 597 L388 597 L388 576 L249 576 L249 481 Q312 400 392 277 L379 259 Q308 377 249 454 L249 -89 ZM508 732 L373 732 L373 754 L815 754 L815 740 Q776 587 740 479 L891 479 L891 465 Q861 251 735 104 Q819 7 940 -72 L927 -89 Q807 -12 722 88 Q628 -17 485 -89 L473 -69 Q615 0 708 105 Q572 274 526 502 Q502 108 340 -85 L324 -72 Q505 142 508 610 L508 732 ZM721 121 Q838 259 868 458 L712 458 Q747 547 791 732 L529 732 L529 592 Q562 315 721 121 Z" /><glyph glyph-name="uni6784" unicode="&#x6784;" d="M570 812 Q554 720 533 648 L894 648 Q894 149 876 38 Q860 -82 754 -82 L648 -81 L644 -61 Q726 -63 751 -63 Q835 -63 853 24 Q872 141 872 627 L526 627 Q484 505 421 410 L408 427 Q512 586 549 814 L570 812 ZM446 153 Q489 177 600 489 L620 482 Q529 224 486 164 Q612 190 718 215 Q687 302 662 355 L683 361 Q737 239 775 104 L756 96 Q749 121 725 195 Q611 167 451 137 L446 153 ZM248 -89 L227 -89 L227 510 Q171 314 52 162 L43 182 Q177 356 226 576 L64 576 L64 597 L227 597 L227 809 L248 809 L248 597 L389 597 L389 576 L248 576 L248 489 Q319 412 404 299 L393 282 Q307 399 248 463 L248 -89 Z" /><glyph glyph-name="uni6790" unicode="&#x6790;" d="M251 -90 L229 -90 L229 504 Q173 308 61 157 L51 179 Q182 355 229 574 L229 576 L66 576 L66 597 L229 597 L229 810 L251 810 L251 597 L404 597 L404 576 L251 576 L251 507 Q326 424 409 308 L397 291 Q318 406 251 481 L251 -90 ZM909 782 Q735 711 513 702 L513 473 L937 473 L937 452 L769 452 L769 -92 L747 -92 L747 452 L513 452 L513 414 Q504 102 366 -84 L350 -69 Q481 105 491 414 L491 720 Q712 726 897 801 L909 782 Z" /><glyph glyph-name="uni679C" unicode="&#x679c;" d="M188 757 L804 757 L804 408 L511 408 L511 278 L918 278 L918 256 L552 256 Q657 92 939 -36 L924 -54 Q636 86 531 256 L511 256 L511 -95 L489 -95 L489 256 L469 256 Q355 67 70 -53 L59 -35 Q337 78 449 256 L82 256 L82 278 L489 278 L489 408 L188 408 L188 757 ZM782 429 L782 571 L511 571 L511 429 L782 429 ZM489 429 L489 571 L210 571 L210 429 L489 429 ZM210 592 L489 592 L489 736 L210 736 L210 592 ZM511 736 L511 592 L782 592 L782 736 L511 736 Z" /><glyph glyph-name="uni67B6" unicode="&#x67b6;" d="M587 714 L872 714 L872 413 L587 413 L587 714 ZM851 434 L851 692 L608 692 L608 434 L851 434 ZM256 807 L277 807 L277 736 Q277 725 275 701 L463 701 Q462 467 436 422 Q409 377 346 377 L268 378 L261 399 Q309 396 341 396 Q404 398 422 444 Q438 492 441 681 L273 681 Q249 465 77 359 L61 373 Q232 473 253 681 L66 681 L66 701 L255 701 L256 719 L256 807 ZM78 259 L489 259 L489 357 L511 357 L511 259 L923 259 L923 238 L550 238 Q654 86 931 -31 L916 -48 Q631 79 528 238 L511 238 L511 -91 L489 -91 L489 238 L473 238 Q358 56 76 -54 L65 -35 Q340 70 451 238 L78 238 L78 259 Z" /><glyph glyph-name="uni6807" unicode="&#x6807;" d="M216 807 L237 807 L237 601 L371 601 L371 580 L237 580 L237 482 Q314 396 393 289 L380 271 Q299 386 237 454 L237 -92 L216 -92 L216 521 Q163 320 56 170 L46 191 Q168 364 213 580 L76 580 L76 601 L216 601 L216 807 ZM531 354 Q481 147 383 -9 L364 3 Q461 156 510 358 L531 354 ZM821 359 Q893 183 943 -7 L924 -16 Q867 193 801 353 L821 359 ZM522 -83 L519 -62 Q587 -64 617 -64 Q666 -64 666 -14 L666 465 L404 465 L404 487 L951 487 L951 465 L688 465 L688 -19 Q688 -83 625 -83 L522 -83 ZM457 735 L899 735 L899 713 L457 713 L457 735 Z" /><glyph glyph-name="uni6821" unicode="&#x6821;" d="M68 599 L223 599 L223 808 L244 808 L244 599 L367 599 L367 578 L244 578 L244 486 Q312 389 383 260 L371 244 Q295 386 244 459 L244 -88 L223 -88 L223 512 Q166 319 56 174 L47 196 Q174 365 223 578 L68 578 L68 599 ZM407 664 L681 664 Q646 755 611 819 L633 823 Q671 754 702 664 L931 664 L931 642 L407 642 L407 664 ZM565 558 Q496 411 405 308 L388 321 Q481 424 546 567 L565 558 ZM766 569 Q873 436 935 328 L917 314 Q855 425 748 558 L766 569 ZM798 385 Q767 213 681 100 Q781 -1 948 -69 L937 -86 Q766 -18 667 82 Q562 -42 388 -92 L375 -74 Q550 -26 652 97 Q543 215 517 375 L537 381 Q561 229 666 115 Q748 227 776 389 L798 385 Z" /><glyph glyph-name="uni6838" unicode="&#x6838;" d="M237 -93 L216 -93 L216 499 Q162 291 56 133 L47 155 Q169 337 216 573 L216 576 L61 576 L61 597 L216 597 L216 809 L237 809 L237 597 L372 597 L372 576 L237 576 L237 492 Q318 390 398 264 L387 248 Q300 388 237 464 L237 -93 ZM411 685 L686 685 Q662 755 632 807 L653 811 Q682 759 708 685 L939 685 L939 664 L665 664 Q561 476 484 415 Q613 421 734 430 Q775 488 808 552 L827 542 Q676 245 384 137 L372 157 Q582 232 718 407 Q622 401 454 394 L448 415 L454 417 Q524 462 641 664 L411 664 L411 685 ZM723 132 Q572 -7 370 -77 L358 -57 Q721 63 904 404 L924 393 Q846 251 738 147 Q862 37 940 -67 L925 -82 Q847 21 723 132 Z" /><glyph glyph-name="uni6839" unicode="&#x6839;" d="M480 374 L480 -48 Q586 -21 695 26 L699 5 Q599 -40 450 -78 L446 -61 Q459 -54 459 -41 L459 756 L855 756 L855 374 L660 374 Q684 256 738 159 Q826 198 907 291 L923 276 Q848 185 749 141 Q825 18 952 -63 L940 -80 Q693 82 639 374 L480 374 ZM67 597 L218 597 L218 798 L239 798 L239 597 L377 597 L377 576 L239 576 L239 509 Q316 415 395 290 L383 272 Q299 407 239 482 L239 -88 L218 -88 L218 504 Q162 310 52 163 L43 183 Q169 357 217 576 L67 576 L67 597 ZM480 551 L480 395 L833 395 L833 551 L480 551 ZM833 573 L833 734 L480 734 L480 573 L833 573 Z" /><glyph glyph-name="uni683C" unicode="&#x683c;" d="M235 -89 L214 -89 L214 510 Q164 322 57 172 L48 193 Q168 362 213 576 L63 576 L63 597 L214 597 L214 809 L235 809 L235 597 L362 597 L362 576 L235 576 L235 506 Q301 426 366 329 L354 312 Q288 413 235 481 L235 -89 ZM866 260 L866 -91 L845 -91 L845 -35 L485 -35 L485 -91 L464 -91 L464 260 L866 260 ZM485 -13 L845 -13 L845 239 L485 239 L485 -13 ZM594 808 Q574 754 552 710 L858 710 L858 692 Q796 562 683 461 Q793 365 951 299 L942 281 Q773 355 668 448 Q546 344 375 276 L361 293 Q533 361 652 462 Q563 545 513 639 Q463 560 401 498 L388 513 Q512 640 573 813 L594 808 ZM667 475 Q773 570 833 688 L541 688 L524 658 Q579 554 667 475 Z" /><glyph glyph-name="uni6846" unicode="&#x6846;" d="M229 -90 L207 -90 L207 495 Q156 295 54 140 L45 162 Q162 342 207 572 L207 576 L62 576 L62 597 L207 597 L207 810 L229 810 L229 597 L353 597 L353 576 L229 576 L229 499 Q299 406 372 287 L360 270 Q283 401 229 472 L229 -90 ZM555 596 L905 596 L905 575 L741 575 L741 366 L891 366 L891 344 L741 344 L741 123 L922 123 L922 101 L543 101 L543 123 L720 123 L720 344 L575 344 L575 366 L720 366 L720 575 L555 575 L555 596 ZM436 765 L937 765 L937 744 L457 744 L457 -37 L957 -37 L957 -59 L436 -59 L436 765 Z" /><glyph glyph-name="uni6848" unicode="&#x6848;" d="M461 649 L394 552 L894 552 L894 531 L717 531 Q650 436 567 385 Q724 342 875 288 L861 271 Q707 328 543 371 Q542 371 541 370 Q384 291 119 290 L106 307 Q355 307 514 379 Q394 411 277 433 Q319 484 354 531 L108 531 L108 552 L369 552 Q415 617 440 655 L461 649 ZM540 392 Q637 449 695 531 L379 531 Q339 478 310 445 Q418 425 540 392 ZM891 718 L891 598 L869 598 L869 697 L131 697 L131 597 L109 597 L109 718 L504 718 Q479 770 454 807 L476 811 Q502 773 525 718 L891 718 ZM78 201 L491 201 L491 293 L513 293 L513 201 L923 201 L923 179 L548 179 Q660 44 930 -32 L922 -50 Q635 35 527 179 L513 179 L513 -94 L491 -94 L491 179 L477 179 Q384 41 87 -58 L74 -38 Q370 56 456 179 L78 179 L78 201 Z" /><glyph glyph-name="uni68C0" unicode="&#x68c0;" d="M67 597 L210 597 L210 809 L231 809 L231 597 L352 597 L352 576 L231 576 L231 511 Q295 431 362 324 L350 306 Q284 415 231 484 L231 -88 L210 -88 L210 502 Q155 296 43 133 L33 155 Q160 338 210 573 L210 576 L67 576 L67 597 ZM513 505 L804 505 L804 483 L513 483 L513 505 ZM378 -36 L729 -36 Q802 126 857 381 L878 375 Q826 139 751 -36 L937 -36 L937 -58 L378 -58 L378 -36 ZM453 354 Q498 232 535 64 L515 58 Q481 211 434 347 L453 354 ZM616 392 Q655 278 690 113 L670 108 Q641 258 597 386 L616 392 ZM666 808 Q750 609 954 458 L942 439 Q749 581 655 787 Q541 559 368 434 L356 453 Q544 592 645 808 L666 808 Z" /><glyph glyph-name="uni697C" unicode="&#x697c;" d="M477 795 Q527 728 560 661 L541 652 Q502 729 456 788 L477 795 ZM681 579 L681 376 L659 376 L659 579 L649 579 Q545 435 405 369 L393 386 Q525 451 627 579 L422 579 L422 600 L659 600 L659 809 L681 809 L681 600 L921 600 L921 579 L712 579 Q776 472 946 389 L932 372 Q757 463 691 579 L681 579 ZM881 794 Q848 719 797 650 L778 660 Q832 734 861 801 L881 794 ZM240 -90 L219 -90 L219 511 Q165 319 56 175 L47 197 Q170 365 218 577 L64 577 L64 598 L219 598 L219 810 L240 810 L240 598 L366 598 L366 577 L240 577 L240 499 Q307 418 371 322 L358 304 Q290 411 240 473 L240 -90 ZM634 358 Q618 310 598 265 L952 265 L952 244 L828 244 Q807 120 721 40 Q834 -9 949 -73 L937 -90 Q825 -26 706 26 Q612 -46 393 -90 L385 -70 Q588 -33 682 37 Q579 82 494 113 Q536 185 565 244 L390 244 L390 265 L575 265 Q603 333 612 360 L634 358 ZM589 244 Q560 182 521 121 Q621 85 699 50 Q784 122 807 244 L589 244 Z" /><glyph glyph-name="uni6A21" unicode="&#x6a21;" d="M428 565 L874 565 L874 273 L661 273 Q658 205 647 161 L947 161 L947 139 L659 139 Q750 2 949 -75 L936 -91 Q724 -4 639 132 Q627 100 620 86 Q560 -24 367 -91 L354 -74 Q532 -14 594 84 Q609 112 618 139 L350 139 L350 161 L625 161 Q639 214 640 273 L428 273 L428 565 ZM853 295 L853 409 L448 409 L448 295 L853 295 ZM448 430 L853 430 L853 545 L448 545 L448 430 ZM359 711 L524 711 L524 811 L546 811 L546 711 L746 711 L746 811 L768 811 L768 711 L939 711 L939 689 L768 689 L768 602 L746 602 L746 689 L546 689 L546 602 L524 602 L524 689 L359 689 L359 711 ZM229 -90 L207 -90 L207 501 Q154 309 53 167 L44 187 Q162 357 207 574 L207 576 L64 576 L64 597 L207 597 L207 810 L229 810 L229 597 L344 597 L344 576 L229 576 L229 496 Q287 414 355 299 L343 281 Q274 406 229 471 L229 -90 Z" /><glyph glyph-name="uni6B21" unicode="&#x6b21;" d="M491 620 Q444 487 357 391 L339 404 Q478 552 515 811 L536 808 Q523 718 498 641 L892 641 L892 627 Q858 485 806 363 L784 369 Q839 485 869 620 L491 620 ZM84 778 Q209 634 273 526 L256 513 Q190 623 66 766 L84 778 ZM277 357 Q194 132 91 -70 L70 -61 Q179 145 259 364 L277 357 ZM635 524 Q635 425 623 342 Q721 77 950 -74 L936 -90 Q713 64 617 303 Q607 250 591 198 Q525 17 317 -92 L304 -75 Q494 24 563 186 Q613 324 613 524 L635 524 Z" /><glyph glyph-name="uni6B3A" unicode="&#x6b3a;" d="M135 800 L156 800 L156 677 L417 677 L417 800 L439 800 L439 677 L511 677 L511 656 L439 656 L439 179 L521 179 L521 158 L56 158 L56 179 L135 179 L135 656 L66 656 L66 677 L135 677 L135 800 ZM156 179 L417 179 L417 322 L156 322 L156 179 ZM417 656 L156 656 L156 512 L417 512 L417 656 ZM156 343 L417 343 L417 491 L156 491 L156 343 ZM349 109 Q427 26 468 -39 L451 -52 Q409 15 332 98 L349 109 ZM220 100 Q159 -13 77 -98 L60 -86 Q143 -2 200 110 L220 100 ZM647 809 Q636 713 619 643 L907 643 L907 629 Q887 504 849 370 L827 376 Q865 493 886 622 L614 622 Q578 489 517 397 L499 410 Q599 557 626 812 L647 809 ZM727 530 Q727 463 722 393 Q791 95 960 -76 L946 -91 Q788 73 717 333 Q709 259 696 200 Q651 18 510 -93 L496 -76 Q624 24 671 188 Q705 330 705 530 L727 530 Z" /><glyph glyph-name="uni6B63" unicode="&#x6b63;" d="M518 722 L121 722 L121 744 L897 744 L897 722 L539 722 L539 376 L850 376 L850 354 L539 354 L539 -17 L939 -17 L939 -38 L62 -38 L62 -17 L236 -17 L236 492 L258 492 L258 -17 L518 -17 L518 722 Z" /><glyph glyph-name="uni6B96" unicode="&#x6b96;" d="M73 718 L73 740 L389 740 L389 718 L211 718 Q199 615 181 533 L372 533 L372 513 Q306 89 78 -91 L66 -72 Q203 35 279 231 Q213 287 143 317 L152 335 Q226 304 286 252 Q329 372 351 511 L176 511 Q134 348 61 262 L51 280 Q159 424 189 718 L73 718 ZM495 388 L495 260 L848 260 L848 388 L495 388 ZM848 410 L848 540 L495 540 L495 410 L848 410 ZM495 239 L495 111 L848 111 L848 239 L495 239 ZM495 90 L495 -37 L848 -37 L848 90 L495 90 ZM370 -37 L474 -37 L474 561 L632 561 Q640 602 652 684 L438 684 L438 706 L655 706 L665 813 L687 810 Q681 741 677 706 L917 706 L917 684 L674 684 Q665 620 653 561 L869 561 L869 -37 L951 -37 L951 -59 L370 -59 L370 -37 Z" /><glyph glyph-name="uni6BB5" unicode="&#x6bb5;" d="M169 523 L169 355 L410 355 L410 334 L169 334 L169 127 Q317 141 445 173 L445 152 Q329 124 169 106 L169 -87 L147 -87 L147 104 Q85 98 58 96 L55 118 L147 125 L147 715 Q324 744 438 799 L449 781 Q328 725 169 699 L169 545 L410 545 L410 523 L169 523 ZM479 365 L873 365 L873 344 Q825 191 719 83 Q811 -6 951 -71 L938 -89 Q794 -19 704 68 Q597 -33 433 -92 L421 -74 Q586 -13 689 83 Q578 197 541 343 L479 343 L479 365 ZM563 343 Q601 203 704 98 Q807 202 850 343 L563 343 ZM571 762 L805 762 L805 537 Q805 486 853 486 L944 486 L944 464 L852 464 Q783 464 783 537 L783 741 L593 741 L593 651 Q593 515 472 439 L457 455 Q571 524 571 649 L571 762 Z" /><glyph glyph-name="uni2F53" unicode="&#x2f53;&#x6c14;" d="M243 679 Q177 559 78 463 L63 479 Q209 621 281 812 L302 807 Q283 758 255 701 L873 701 L873 679 L243 679 ZM853 -89 Q784 -88 754 -12 Q722 62 722 297 L722 371 L141 371 L141 392 L743 392 L743 297 Q743 60 772 -1 Q798 -68 851 -68 Q878 -68 898 -12 Q910 28 930 126 L949 117 Q928 -6 902 -51 Q879 -89 853 -89 ZM251 548 L817 548 L817 526 L251 526 L251 548 Z" /><glyph glyph-name="uni6C42" unicode="&#x6c42;" d="M79 609 L496 609 L496 816 L518 816 L518 609 L919 609 L919 588 L518 588 L518 529 Q565 408 638 304 Q761 390 847 504 L863 488 Q777 373 651 287 Q769 127 945 9 L931 -7 Q641 187 518 481 L518 -13 Q518 -87 447 -87 L318 -87 L314 -66 Q402 -68 440 -68 Q496 -68 496 -8 L496 353 Q328 126 84 -22 L73 -3 Q312 134 496 385 L496 588 L79 588 L79 609 ZM145 484 Q258 385 327 293 L311 277 Q245 366 130 470 L145 484 ZM647 805 Q745 732 813 653 L799 638 Q737 709 632 792 L647 805 Z" /><glyph glyph-name="uni6C89" unicode="&#x6c89;" d="M107 776 Q206 699 269 627 L253 611 Q193 682 92 761 L107 776 ZM84 543 Q183 467 249 390 L233 375 Q170 449 68 528 L84 543 ZM264 269 Q202 87 124 -78 L103 -70 Q185 101 244 276 L264 269 ZM902 758 L902 563 L881 563 L881 737 L360 737 L360 563 L339 563 L339 758 L902 758 ZM461 526 L766 526 L766 -10 Q766 -51 802 -51 L868 -51 Q908 -51 920 -3 Q925 54 925 175 L946 169 Q946 52 939 -4 Q928 -71 869 -71 L802 -71 Q745 -71 745 -10 L745 505 L481 505 L481 292 Q478 41 306 -90 L288 -75 Q458 48 461 295 L461 526 Z" /><glyph glyph-name="uni6CBB" unicode="&#x6cbb;" d="M114 781 Q225 711 302 637 L286 622 Q213 692 99 766 L114 781 ZM85 542 Q190 472 259 406 L243 390 Q177 456 69 528 L85 542 ZM283 279 Q204 89 106 -82 L86 -74 Q190 106 265 287 L283 279 ZM857 304 L857 -89 L836 -89 L836 -25 L416 -25 L416 -89 L395 -89 L395 304 L857 304 ZM416 -3 L836 -3 L836 283 L416 283 L416 -3 ZM737 685 Q844 550 930 398 L910 388 Q881 439 858 476 Q620 445 342 429 L338 449 Q465 538 603 809 L623 803 Q496 553 377 451 Q643 466 845 497 Q782 595 718 675 L737 685 Z" /><glyph glyph-name="uni6CD5" unicode="&#x6cd5;" d="M608 814 L630 814 L630 632 L906 632 L906 610 L630 610 L630 375 L933 375 L933 353 L599 353 Q476 59 390 -30 Q619 -11 854 38 Q801 150 747 234 L768 240 Q864 85 933 -86 L913 -95 Q902 -67 864 18 Q639 -25 362 -52 L356 -32 L361 -30 Q442 39 577 353 L304 353 L304 375 L608 375 L608 610 L352 610 L352 632 L608 632 L608 814 ZM108 786 Q210 710 277 632 L262 616 Q199 689 93 771 L108 786 ZM84 551 Q178 471 240 391 L225 376 Q166 451 68 537 L84 551 ZM259 275 Q190 74 113 -87 L93 -78 Q179 98 240 282 L259 275 Z" /><glyph glyph-name="uni6CE8" unicode="&#x6ce8;" d="M105 795 Q217 713 291 632 L275 616 Q206 693 90 781 L105 795 ZM82 551 Q191 470 258 396 L242 380 Q174 457 66 537 L82 551 ZM272 275 Q202 81 119 -87 L99 -78 Q186 94 253 282 L272 275 ZM351 622 L931 622 L931 600 L651 600 L651 304 L904 304 L904 283 L651 283 L651 -36 L949 -36 L949 -58 L324 -58 L324 -36 L630 -36 L630 283 L379 283 L379 304 L630 304 L630 600 L351 600 L351 622 ZM587 815 Q629 738 651 672 L632 665 Q607 733 565 809 L587 815 Z" /><glyph glyph-name="uni6D17" unicode="&#x6d17;" d="M108 792 Q204 723 271 651 L255 635 Q193 702 93 777 L108 792 ZM88 550 Q190 470 254 394 L238 379 Q172 458 72 536 L88 550 ZM240 287 Q176 94 96 -77 L75 -68 Q160 111 222 294 L240 287 ZM414 619 Q383 535 345 468 L326 481 Q402 612 441 788 L463 784 Q443 698 422 640 L620 640 L620 809 L642 809 L642 640 L882 640 L882 619 L642 619 L642 383 L927 383 L927 362 L729 362 L729 -13 Q729 -53 773 -53 L848 -53 Q876 -53 889 -41 Q913 -18 919 142 L939 135 Q934 -13 911 -47 Q894 -75 854 -75 L769 -75 Q741 -75 722 -59 Q707 -42 707 -17 L707 362 L547 362 Q546 223 511 127 Q459 -7 289 -90 L275 -73 Q430 2 485 122 Q523 218 525 362 L314 362 L314 383 L620 383 L620 619 L414 619 Z" /><glyph glyph-name="uni6D1E" unicode="&#x6d1e;" d="M96 786 Q199 715 271 642 L255 627 Q186 697 80 771 L96 786 ZM81 550 Q182 478 250 403 L234 387 Q175 454 65 536 L81 550 ZM267 278 Q185 86 87 -81 L66 -73 Q171 101 248 285 L267 278 ZM484 412 L762 412 L762 117 L484 117 L484 412 ZM740 138 L740 390 L506 390 L506 138 L740 138 ZM692 -87 L686 -65 L817 -66 Q876 -66 876 -20 L876 737 L357 737 L357 -90 L336 -90 L336 758 L897 758 L897 -24 Q897 -87 825 -87 L692 -87 ZM448 578 L798 578 L798 556 L448 556 L448 578 Z" /><glyph glyph-name="uni6D3B" unicode="&#x6d3b;" d="M318 505 L622 505 L622 712 Q498 697 350 697 L342 717 Q677 718 881 795 L892 775 Q786 735 644 715 L644 505 L951 505 L951 483 L644 483 L644 272 L879 272 L879 -92 L857 -92 L857 -30 L410 -30 L410 -97 L388 -97 L388 272 L622 272 L622 483 L318 483 L318 505 ZM410 -8 L857 -8 L857 251 L410 251 L410 -8 ZM105 787 Q214 720 287 653 L271 637 Q203 702 89 772 L105 787 ZM85 548 Q187 475 262 397 L246 381 Q179 456 69 533 L85 548 ZM272 287 Q201 94 111 -82 L91 -74 Q184 106 253 295 L272 287 Z" /><glyph glyph-name="uni6D41" unicode="&#x6d41;" d="M354 440 L359 442 Q427 485 535 669 L322 669 L322 690 L626 690 Q598 765 568 819 L590 823 Q619 768 647 690 L923 690 L923 669 L557 669 Q458 493 391 440 Q612 452 830 476 Q797 524 742 593 L760 604 Q861 477 909 389 L892 376 Q864 424 843 456 Q622 433 359 420 L354 440 ZM106 787 Q207 718 272 653 L256 637 Q193 703 91 772 L106 787 ZM83 552 Q187 472 251 397 L235 381 Q170 459 67 538 L83 552 ZM250 288 Q192 96 116 -82 L96 -74 Q174 106 231 295 L250 288 ZM582 349 L604 349 L604 -73 L582 -73 L582 349 ZM442 350 Q437 157 403 67 Q367 -27 283 -92 L269 -76 Q349 -13 383 74 Q415 161 421 350 L442 350 ZM803 -83 Q749 -83 749 -25 L749 348 L771 348 L771 -25 Q771 -62 802 -62 L864 -62 Q902 -62 911 -38 Q920 -5 920 88 L940 80 Q940 -30 926 -58 Q910 -83 865 -83 L803 -83 Z" /><glyph glyph-name="uni6D4B" unicode="&#x6d4b;" d="M87 781 Q180 710 238 643 L223 628 Q166 693 71 766 L87 781 ZM71 536 Q159 463 219 388 L203 373 Q147 442 56 521 L71 536 ZM223 270 Q159 80 84 -81 L63 -73 Q145 100 204 277 L223 270 ZM603 757 L603 164 L581 164 L581 737 L332 737 L332 158 L311 158 L311 757 L603 757 ZM495 104 Q596 15 663 -78 L648 -93 Q585 -6 480 90 L495 104 ZM446 644 L468 644 L468 320 Q468 154 417 55 Q367 -36 255 -91 L242 -73 Q350 -24 402 73 Q446 170 446 320 L446 644 ZM731 -86 L727 -65 Q801 -67 834 -67 Q877 -67 877 -21 L877 805 L898 805 L898 -26 Q898 -86 842 -86 L731 -86 ZM724 723 L745 723 L745 87 L724 87 L724 723 Z" /><glyph glyph-name="uni6D77" unicode="&#x6d77;&#xfa45;" d="M417 693 Q365 604 292 531 L277 548 Q393 659 450 813 L471 808 Q453 760 429 715 L924 715 L924 693 L417 693 ZM259 334 L378 334 Q388 459 392 573 L864 573 Q861 506 856 334 L953 334 L953 312 L855 312 Q848 179 841 80 L937 80 L937 59 L839 59 Q834 10 830 -3 Q815 -49 772 -74 Q733 -92 652 -92 L580 -92 L574 -70 Q628 -72 649 -72 Q701 -72 743 -63 Q785 -51 806 -6 Q812 6 818 59 L338 59 Q360 167 376 312 L259 312 L259 334 ZM396 312 Q383 184 363 80 L820 80 Q827 180 834 312 L396 312 ZM835 334 L843 551 L412 551 Q405 406 398 334 L835 334 ZM561 502 Q642 446 691 391 L677 376 Q625 431 546 488 L561 502 ZM555 258 Q633 196 682 138 L667 124 Q621 178 540 244 L555 258 ZM93 781 Q193 719 255 662 L239 646 Q178 703 77 766 L93 781 ZM79 537 Q175 476 238 414 L223 398 Q162 457 63 522 L79 537 ZM240 254 Q171 70 94 -79 L73 -71 Q161 95 222 260 L240 254 Z" /><glyph glyph-name="uni6D88" unicode="&#x6d88;" d="M622 818 L644 818 L644 529 L885 529 L885 -19 Q885 -85 822 -85 L679 -85 L672 -63 L815 -64 Q863 -64 863 -14 L863 150 L406 150 L406 -91 L384 -91 L384 529 L622 529 L622 818 ZM406 325 L406 172 L863 172 L863 325 L406 325 ZM863 346 L863 507 L406 507 L406 346 L863 346 ZM371 769 Q444 683 499 596 L479 587 Q422 679 352 759 L371 769 ZM906 774 Q862 680 789 589 L770 598 Q845 692 887 783 L906 774 ZM277 285 Q199 91 100 -86 L79 -77 Q184 106 258 292 L277 285 ZM103 791 Q223 714 305 632 L290 617 Q211 695 88 776 L103 791 ZM70 544 Q187 469 265 394 L250 379 Q173 453 56 529 L70 544 Z" /><glyph glyph-name="uni6DC0" unicode="&#x6dc0;" d="M84 793 Q194 710 268 622 L253 607 Q179 692 69 779 L84 793 ZM68 553 Q184 465 260 374 L245 359 Q174 441 54 540 L68 553 ZM268 268 Q189 86 88 -82 L67 -74 Q175 102 249 276 L268 268 ZM897 682 L897 511 L875 511 L875 661 L356 661 L356 511 L335 511 L335 682 L621 682 Q596 746 560 805 L581 809 Q614 755 643 682 L897 682 ZM617 469 L373 469 L373 491 L865 491 L865 469 L639 469 L639 259 L865 259 L865 238 L639 238 L639 -38 L649 -42 Q706 -59 837 -60 L958 -59 L954 -80 Q744 -80 673 -69 Q522 -39 413 139 Q365 3 283 -92 L267 -79 Q402 77 440 351 L462 348 Q446 241 421 162 Q505 19 617 -30 L617 469 Z" /><glyph glyph-name="uni6DF1" unicode="&#x6df1;" d="M108 791 Q228 710 308 627 L292 611 Q219 687 93 776 L108 791 ZM85 556 Q199 472 273 391 L258 376 Q187 454 69 542 L85 556 ZM292 275 Q208 80 113 -82 L93 -74 Q198 102 273 282 L292 275 ZM362 297 L362 319 L621 319 L621 452 L643 452 L643 319 L912 319 L912 297 L689 297 Q759 129 946 -7 L932 -24 Q739 120 668 297 L643 297 L643 -89 L621 -89 L621 297 L597 297 Q516 94 315 -34 L305 -16 Q499 105 576 297 L362 297 ZM897 758 L897 595 L876 595 L876 737 L387 737 L387 595 L365 595 L365 758 L897 758 ZM572 635 Q500 495 384 423 L368 438 Q488 514 553 643 L572 635 ZM697 646 Q812 530 873 441 L855 427 Q795 518 680 635 L697 646 Z" /><glyph glyph-name="uni6E20" unicode="&#x6e20;" d="M833 468 L437 468 L437 355 L907 355 L907 334 L415 334 L415 765 L896 765 L896 744 L437 744 L437 632 L833 632 L833 468 ZM437 610 L437 490 L811 490 L811 610 L437 610 ZM76 202 L491 202 L491 293 L513 293 L513 202 L927 202 L927 180 L575 180 Q685 31 946 -52 L937 -71 Q656 24 551 180 L513 180 L513 -94 L491 -94 L491 180 L449 180 Q359 28 67 -80 L56 -61 Q342 42 426 180 L76 180 L76 202 ZM138 802 Q244 754 331 683 L319 665 Q224 742 126 785 L138 802 ZM85 654 Q171 615 245 556 L233 538 Q159 598 73 636 L85 654 ZM324 511 Q213 379 96 296 L81 311 Q203 400 308 523 L324 511 Z" /><glyph glyph-name="uni6E38" unicode="&#x6e38;" d="M663 631 Q622 524 564 452 L551 467 Q654 601 690 823 L712 819 Q696 730 671 653 L951 653 L951 631 L663 631 ZM78 791 Q168 721 228 650 L212 634 Q157 700 62 777 L78 791 ZM70 537 Q167 462 227 392 L211 377 Q149 448 56 522 L70 537 ZM214 274 Q152 87 76 -81 L56 -73 Q136 97 195 282 L214 274 ZM351 615 L256 615 L256 636 L420 636 Q395 742 367 814 L389 818 Q419 732 441 636 L568 636 L568 615 L372 615 L372 523 Q372 471 369 423 L543 423 Q543 106 528 31 Q520 -75 448 -75 L374 -74 L369 -54 L450 -55 Q498 -55 507 28 Q520 102 521 401 L368 401 Q347 72 232 -92 L217 -78 Q348 108 351 523 L351 615 ZM662 478 L914 478 L914 457 Q863 391 798 322 L798 228 L954 228 L954 207 L798 207 L798 -13 Q798 -79 735 -79 L656 -79 L651 -57 L728 -58 Q776 -58 776 -5 L776 207 L600 207 L600 228 L776 228 L776 328 Q857 410 889 457 L662 457 L662 478 Z" /><glyph glyph-name="uni6E90" unicode="&#x6e90;" d="M98 781 Q212 699 279 626 L264 610 Q196 684 82 766 L98 781 ZM80 536 Q181 462 249 386 L233 371 Q172 441 64 521 L80 536 ZM266 268 Q190 79 98 -89 L77 -80 Q173 88 247 275 L266 268 ZM485 603 L640 603 Q668 668 678 734 L380 734 L380 379 Q374 86 268 -89 L252 -75 Q353 88 358 379 L358 756 L934 756 L934 734 L699 734 Q687 667 660 603 L875 603 L875 283 L694 283 L694 -37 Q694 -91 638 -91 L554 -91 L550 -70 Q592 -73 630 -73 Q673 -73 673 -33 L673 283 L485 283 L485 603 ZM853 304 L853 431 L507 431 L507 304 L853 304 ZM507 453 L853 453 L853 582 L507 582 L507 453 ZM552 186 Q511 56 432 -41 L414 -30 Q492 66 530 190 L552 186 ZM819 193 Q891 86 941 -32 L922 -40 Q866 86 799 187 L819 193 Z" /><glyph glyph-name="uni6F0F" unicode="&#x6f0f;" d="M374 438 L374 406 Q373 121 255 -87 L238 -73 Q351 112 353 406 L353 762 L877 762 L877 581 L374 581 L374 460 L931 460 L931 438 L682 438 L682 320 L897 320 L897 -15 Q897 -76 843 -76 L776 -76 L770 -55 L835 -56 Q875 -56 875 -8 L875 298 L682 298 L682 -79 L660 -79 L660 298 L467 298 L467 -78 L445 -78 L445 320 L660 320 L660 438 L374 438 ZM531 240 Q592 190 630 145 L615 131 Q577 176 517 226 L531 240 ZM737 112 Q788 70 824 28 L810 13 Q779 52 723 99 L737 112 ZM530 106 Q584 60 626 9 L611 -5 Q574 44 516 92 L530 106 ZM736 239 Q797 193 836 150 L821 135 Q784 179 722 225 L736 239 ZM101 795 Q204 717 268 641 L253 627 Q191 698 86 781 L101 795 ZM74 560 Q172 484 234 408 L220 393 Q155 470 60 547 L74 560 ZM249 276 Q182 87 99 -82 L78 -74 Q167 103 230 283 L249 276 ZM855 740 L374 740 L374 602 L855 602 L855 740 Z" /><glyph glyph-name="uni2F55" unicode="&#x2f55;&#x706b;" d="M875 644 Q801 486 698 370 L681 381 Q783 494 855 653 L875 644 ZM489 808 L511 808 L511 480 Q569 150 950 -70 L937 -86 Q579 129 501 433 Q444 136 73 -86 L61 -70 Q454 158 489 480 L489 808 ZM273 624 Q232 458 170 337 L149 343 Q207 454 253 629 L273 624 Z" /><glyph glyph-name="uni7070" unicode="&#x7070;" d="M80 667 L322 667 Q336 751 341 813 L362 813 Q351 721 343 667 L921 667 L921 645 L339 645 Q313 505 272 402 Q200 230 63 98 L51 115 Q196 254 268 448 Q299 540 319 645 L80 645 L80 667 ZM174 -72 Q556 29 580 342 L581 582 L603 582 L602 337 L601 332 Q694 18 951 -69 L940 -86 Q693 1 594 288 Q540 6 186 -90 L174 -72 ZM867 478 Q817 336 741 227 L723 237 Q801 346 847 485 L867 478 ZM442 450 Q419 323 355 208 L335 214 Q398 328 422 455 L442 450 Z" /><glyph glyph-name="uni70B9" unicode="&#x70b9;" d="M472 817 L493 817 L493 700 L897 700 L897 678 L493 678 L493 505 L814 505 L814 223 L197 223 L197 505 L472 505 L472 817 ZM793 245 L793 483 L219 483 L219 245 L793 245 ZM214 147 Q153 10 75 -86 L58 -75 Q137 22 194 157 L214 147 ZM367 133 Q400 21 423 -94 L401 -98 Q380 30 347 128 L367 133 ZM579 138 Q624 40 662 -92 L641 -96 Q606 36 559 133 L579 138 ZM795 152 Q892 23 943 -77 L927 -90 Q874 13 778 141 L795 152 Z" /><glyph glyph-name="uni70ED" unicode="&#x70ed;" d="M890 165 Q859 165 830 206 Q778 291 778 487 L778 643 L600 643 L600 631 Q597 500 567 398 Q648 338 720 269 L708 251 Q635 322 561 378 Q513 238 408 154 L392 168 Q499 253 543 391 Q481 437 429 464 L441 482 Q501 447 549 412 Q577 513 578 631 L578 643 L442 643 L442 665 L578 665 L578 811 L600 811 L600 665 L800 665 L800 487 Q800 297 848 216 Q868 186 886 186 Q901 186 915 211 Q932 248 938 362 L957 352 Q950 230 930 195 Q911 165 890 165 ZM69 667 L229 667 L229 820 L251 820 L251 667 L392 667 L392 645 L251 645 L251 445 Q315 462 395 486 L395 464 Q331 444 251 424 L251 231 Q251 168 186 168 L99 168 L95 189 Q153 187 179 187 Q229 187 229 236 L229 418 Q129 395 45 380 L40 402 Q124 415 229 439 L229 645 L69 645 L69 667 ZM222 108 Q162 -13 86 -97 L68 -85 Q143 -2 202 118 L222 108 ZM359 99 Q393 11 420 -95 L398 -99 Q373 14 339 94 L359 99 ZM566 113 Q612 21 649 -93 L628 -97 Q596 15 546 108 L566 113 ZM770 123 Q856 12 907 -78 L890 -91 Q840 0 752 111 L770 123 Z" /><glyph glyph-name="uni719F" unicode="&#x719f;" d="M131 643 L426 643 L426 497 L131 497 L131 643 ZM404 517 L404 623 L152 623 L152 517 L404 517 ZM471 290 Q376 275 301 268 L301 194 Q301 127 230 127 L146 127 L141 150 L224 148 Q279 148 279 200 L279 266 Q173 257 53 251 L50 272 Q200 279 279 286 L279 344 L391 411 L87 411 L87 432 L433 432 L433 414 L301 336 L301 288 Q382 297 471 311 L471 290 ZM878 167 Q856 167 838 193 Q820 220 811 283 Q803 339 803 437 Q803 522 806 627 L672 627 Q666 486 632 377 Q688 316 748 227 L732 212 Q681 290 624 353 Q573 213 468 124 L451 137 Q561 229 608 370 Q552 429 495 473 L509 490 Q563 451 616 395 Q647 502 650 627 L509 627 L509 648 L651 648 L651 820 L673 820 L673 648 L827 648 Q824 533 824 434 Q824 326 836 260 Q851 189 876 189 Q896 189 910 229 Q920 262 929 335 L949 326 Q937 224 916 191 Q900 167 878 167 ZM247 821 Q268 785 286 737 L500 737 L500 715 L50 715 L50 737 L265 737 Q246 783 226 817 L247 821 ZM217 80 Q157 -17 79 -88 L61 -77 Q140 -7 197 89 L217 80 ZM374 80 Q398 -8 415 -100 L394 -104 Q378 -8 353 75 L374 80 ZM586 87 Q619 7 648 -102 L627 -107 Q604 -3 565 81 L586 87 ZM783 105 Q874 -8 917 -83 L899 -96 Q851 -9 766 94 L783 105 Z" /></font>
</defs>
</svg>
